<?xml version="1.0" standalone="no"?>
<!DOCTYPE svg PUBLIC "-//W3C//DTD SVG 1.1//EN" "http://www.w3.org/Graphics/SVG/1.1/DTD/svg11.dtd" >
<svg xmlns="http://www.w3.org/2000/svg" xmlns:xlink="http://www.w3.org/1999/xlink" version="1.1">
<metadata>
Created by FontForge 20170731 at Thu Dec  3 19:23:48 2020
 By Aleksey,,,
Copyright (c) 2019 by Enrique Hernandez Vasquez. All rights reserved.
</metadata>
<defs>
<font id="Goldplay-SemiBold" horiz-adv-x="0" >
  <font-face 
    font-family="Goldplay SemiBold"
    font-weight="600"
    font-stretch="normal"
    units-per-em="2048"
    panose-1="0 0 7 0 0 0 0 0 0 0"
    ascent="1638"
    descent="-410"
    x-height="1034"
    cap-height="1331"
    bbox="-1442 -555 4520 1952"
    underline-thickness="102"
    underline-position="-409"
    unicode-range="U+0020-FB02"
  />
<missing-glyph horiz-adv-x="1085" 
d="M102 1495h881v-1495h-881v1495zM236 1423l307 -587l307 587h-614zM498 748l-314 598v-1196zM590 748l311 -598v1196zM543 659l-307 -587h614z" />
    <glyph glyph-name="fi" unicode="fi" horiz-adv-x="1339" 
d="M1063 1147q-72 0 -124 51.5t-52 124.5q0 72 52 123t124 51q71 0 122.5 -51t51.5 -123q0 -73 -51 -124.5t-123 -51.5zM1118 1034q37 0 57.5 -19.5t20.5 -56.5v-878q0 -37 -20.5 -58.5t-57.5 -21.5h-119q-36 0 -55.5 21.5t-19.5 58.5v749h-432v-751q0 -37 -19.5 -57.5
t-56.5 -20.5h-119q-37 0 -57.5 20.5t-20.5 57.5v751h-98q-37 0 -56.5 20.5t-19.5 57.5v51q0 76 76 76h98v43q0 100 32 178t87 125t124 71t148 24q112 0 185 -37q21 -9 32.5 -19.5t16.5 -30t-8 -45.5l-25 -61q-17 -36 -38.5 -44t-53.5 5q-46 19 -78 19q-70 0 -109.5 -46
t-39.5 -139v-43h626z" />
    <glyph glyph-name="fl" unicode="fl" horiz-adv-x="1288" 
d="M1067 1462q40 9 61 -13.5t21 -64.5v-1304q0 -37 -20 -58.5t-56 -21.5h-119q-36 0 -56.5 21.5t-20.5 58.5v1100q-41 40 -101.5 61t-111.5 21q-75 0 -123.5 -50t-48.5 -133v-45h188q76 0 76 -76v-51q0 -37 -19.5 -57.5t-56.5 -20.5h-188v-751q0 -37 -19.5 -57.5
t-56.5 -20.5h-119q-37 0 -57.5 20.5t-20.5 57.5v751h-98q-37 0 -56.5 20.5t-19.5 57.5v51q0 76 76 76h98v43q0 186 118.5 292t293.5 106q138 0 258 -70q17 26 65 35z" />
    <glyph glyph-name=".notdef" horiz-adv-x="1085" 
d="M102 1495h881v-1495h-881v1495zM236 1423l307 -587l307 587h-614zM498 748l-314 598v-1196zM590 748l311 -598v1196zM543 659l-307 -587h614z" />
    <glyph glyph-name=".null" 
 />
    <glyph glyph-name="nonmarkingreturn" horiz-adv-x="682" 
 />
    <glyph glyph-name="space" unicode=" " horiz-adv-x="460" 
 />
    <glyph glyph-name="exclam" unicode="!" horiz-adv-x="555" 
d="M332 1331q39 0 62 -23t20 -61l-37 -741q-6 -80 -78 -80h-43q-75 0 -78 80l-37 741q-3 39 21 61.5t63 22.5h107zM279 328q72 0 124 -51.5t52 -124.5q0 -72 -52 -124.5t-124 -52.5q-73 0 -125 52.5t-52 124.5q0 73 51.5 124.5t125.5 51.5z" />
    <glyph glyph-name="quotedbl" unicode="&#x22;" horiz-adv-x="737" 
d="M201 807q-68 0 -74 76l-29 368q-3 38 19.5 59t60.5 21h60q38 0 60 -20.5t19 -59.5l-28 -368q-3 -38 -19.5 -57t-52.5 -19h-16zM522 807q-67 0 -73 76l-29 368q-3 38 19.5 59t60.5 21h59q38 0 60.5 -21t19.5 -59l-29 -368q-3 -38 -19.5 -57t-51.5 -19h-17z" />
    <glyph glyph-name="numbersign" unicode="#" horiz-adv-x="1286" 
d="M301 0q-77 0 -68 80l39 278h-147q-33 0 -49 18t-10 50l6 31q15 67 78 67h147l41 287h-156q-33 0 -49.5 17.5t-9.5 50.5l6 30q15 68 78 68h153l39 276q12 78 90 78h56q76 0 67 -78l-39 -276h234l39 276q9 78 90 78h53q77 0 68 -78l-39 -276h143q33 0 49.5 -18t10.5 -50
l-7 -30q-15 -68 -77 -68h-142l-41 -287h150q33 0 49.5 -17t9.5 -50l-6 -31q-15 -68 -78 -68h-149l-39 -278q-4 -38 -28 -59t-62 -21h-53q-77 0 -68 80l39 278h-234l-39 -278q-4 -38 -28 -59t-62 -21h-55zM510 524h233l39 287h-233z" />
    <glyph glyph-name="dollar" unicode="$" horiz-adv-x="1054" 
d="M1008 399q0 -146 -100 -240t-263 -120v-72q0 -37 -20.5 -57.5t-57.5 -20.5h-53q-37 0 -56.5 20.5t-19.5 57.5v70q-116 14 -217 61.5t-168 120.5q-57 57 -10 107l61 65q49 49 103 2q58 -60 146 -97.5t167 -37.5q99 0 157 38.5t58 100.5q0 29 -12 52t-28 37.5t-49 29.5
t-58 23t-73 22.5t-77 24.5q-56 18 -100 36t-96 50t-86.5 69t-58 91.5t-23.5 119.5q0 138 99.5 233.5t264.5 117.5v77q0 76 76 76h53q37 0 57.5 -19.5t20.5 -56.5v-82q170 -26 287 -133q59 -53 14 -106l-51 -60q-48 -57 -104 -10q-122 105 -261 105q-82 0 -133 -35t-51 -92
q0 -25 12.5 -47t29 -37t47 -30t53 -24t61.5 -22q168 -56 219 -79q167 -75 216 -197q24 -59 24 -132z" />
    <glyph glyph-name="percent" unicode="%" horiz-adv-x="1775" 
d="M399 565q-146 0 -237.5 109.5t-91.5 286.5t91.5 286t237.5 109t238 -109t92 -286t-92 -286.5t-238 -109.5zM377 0q-40 0 -55 22.5t8 57.5l876 1173q31 40 56.5 59t60.5 19h82q40 0 55.5 -22t-8.5 -56l-877 -1173q-31 -42 -55 -61t-59 -19h-84zM399 739q61 0 100.5 61.5
t39.5 160.5q0 100 -38.5 160.5t-101.5 60.5t-102 -60.5t-39 -160.5t39 -161t102 -61zM1378 -27q-145 0 -237 110t-92 288q0 177 91.5 286t237.5 109t238 -109t92 -286q0 -178 -92 -288t-238 -110zM1378 150q63 0 102.5 61t39.5 160t-39.5 160t-102.5 61t-101 -60.5
t-38 -160.5t38 -160.5t101 -60.5z" />
    <glyph glyph-name="ampersand" unicode="&#x26;" horiz-adv-x="1376" 
d="M1378 74q20 -49 -41 -80q-96 -47 -180 -47q-129 0 -231 76q-135 -50 -275 -50q-252 0 -416.5 135.5t-164.5 340.5q0 127 61 229t170 168q-49 81 -49 170q0 152 104.5 246t272.5 94q228 0 354 -172q34 -49 -16 -90l-47 -37q-53 -41 -95 10q-77 95 -180 92q-70 -1 -113 -40
t-43 -101q0 -28 16.5 -63.5t36 -64.5t54.5 -77q8 -11 12 -16l348 -490q52 71 52 158q0 54 -24 109t-60 96q-50 60 14 100l68 41q62 36 116 -27q127 -148 127 -327q0 -189 -137 -316q25 -14 55 -14q45 0 107 35q59 26 80 -29zM313 469q0 -129 102.5 -218t254.5 -89
q56 0 121 20l-359 510q-119 -88 -119 -223z" />
    <glyph glyph-name="quotesingle" unicode="'" horiz-adv-x="415" 
d="M201 807q-68 0 -74 76l-29 368q-3 38 19.5 59t60.5 21h60q38 0 60 -20.5t19 -59.5l-28 -368q-3 -38 -19.5 -57t-52.5 -19h-16z" />
    <glyph glyph-name="parenleft" unicode="(" horiz-adv-x="634" 
d="M432 -238q-36 0 -59.5 18.5t-48.5 59.5q-116 178 -181 383.5t-65 411.5q0 207 65 414t181 383q25 41 48.5 59t59.5 18h100q41 0 54.5 -22t-11.5 -60q-118 -169 -184.5 -375.5t-66.5 -416.5q0 -209 67 -416t184 -375q25 -38 11.5 -60t-54.5 -22h-100z" />
    <glyph glyph-name="parenright" unicode=")" horiz-adv-x="634" 
d="M205 -238h-101q-41 0 -54.5 22t11.5 60q117 168 183.5 374.5t66.5 416.5q0 209 -66.5 415.5t-183.5 376.5q-25 38 -11.5 60t54.5 22h101q36 0 58.5 -17.5t47.5 -59.5q116 -176 181 -383t65 -414t-65 -412.5t-181 -382.5q-26 -42 -48 -60t-58 -18z" />
    <glyph glyph-name="asterisk" unicode="*" horiz-adv-x="874" 
d="M754 907q40 -22 18 -65l-27 -47q-25 -43 -65 -19l-168 103l8 -197q0 -49 -49 -49h-68q-50 0 -47 49l6 199l-165 -105q-42 -23 -66 21l-27 45q-23 43 19 65l180 94l-180 99q-42 20 -17 65l27 45q23 44 64 19l165 -103l-6 199q-3 47 47 47h68q49 0 49 -47l-8 -201l168 105
q39 25 65 -19l27 -45q25 -44 -18 -65l-181 -99z" />
    <glyph glyph-name="plus" unicode="+" horiz-adv-x="1130" 
d="M997 717q37 0 57.5 -20t20.5 -58v-51q0 -38 -20.5 -58t-57.5 -20h-317v-315q0 -76 -78 -76h-74q-77 0 -77 78v313h-318q-37 0 -57.5 20t-20.5 58v51q0 38 20.5 58t57.5 20h318v309q0 37 20 57.5t57 20.5h76q37 0 57.5 -20t20.5 -58v-309h315z" />
    <glyph glyph-name="comma" unicode="," horiz-adv-x="524" 
d="M260 328q81 0 130.5 -52t51.5 -137q0 -208 -260 -483q-43 -43 -84 -10l-22 20q-40 34 4 84q133 149 139 223q-60 15 -99.5 64.5t-39.5 112.5q0 73 53 125.5t127 52.5z" />
    <glyph glyph-name="hyphen" unicode="-" horiz-adv-x="991" 
d="M193 508q-37 0 -57.5 20.5t-20.5 57.5v59q0 37 20.5 56.5t57.5 19.5h606q75 0 75 -76v-59q0 -37 -19.5 -57.5t-55.5 -20.5h-606z" />
    <glyph glyph-name="period" unicode="." horiz-adv-x="520" 
d="M260 -25q-72 0 -124 52.5t-52 124.5q0 73 52 124.5t124 51.5q74 0 125 -51t51 -125q0 -72 -51.5 -124.5t-124.5 -52.5z" />
    <glyph glyph-name="slash" unicode="/" horiz-adv-x="1134" 
d="M98 -109q-39 0 -51 21.5t8 56.5l760 1420q41 77 109 77h110q39 0 52 -21t-5 -56l-759 -1420q-45 -78 -111 -78h-113z" />
    <glyph glyph-name="zero" unicode="0" horiz-adv-x="1306" 
d="M1219 666q0 -309 -157 -500t-409 -191t-408.5 191t-156.5 500q0 205 71 362t199.5 242.5t294.5 85.5t295 -85.5t200 -242.5t71 -362zM360 666q0 -205 81 -332t212 -127t212 127t81 332q0 206 -81 333t-212 127t-212 -127t-81 -333z" />
    <glyph glyph-name="one" unicode="1" horiz-adv-x="759" 
d="M504 1331q78 0 78 -78v-1173q0 -80 -78 -80h-119q-78 0 -78 80v1024h-221q-41 0 -60.5 22t-5.5 64l21 67q12 39 34.5 56.5t61.5 17.5h367z" />
    <glyph glyph-name="two" unicode="2" horiz-adv-x="1128" 
d="M971 225q38 0 59 -20.5t21 -57.5v-67q0 -38 -21 -59t-59 -21h-811q-38 0 -59 21t-21 59v57q0 63 51 107q160 145 367 352q122 122 176.5 199t54.5 151q0 87 -56.5 138t-148.5 51q-142 0 -282 -140q-60 -54 -113 9l-39 45q-49 58 12 116q188 191 451 191q198 0 320 -110.5
t122 -289.5q0 -98 -47 -188t-149 -207q-41 -47 -102.5 -106.5t-109.5 -103.5t-141 -126h525z" />
    <glyph glyph-name="three" unicode="3" horiz-adv-x="1132" 
d="M821 707q108 -51 168 -135.5t60 -198.5q0 -175 -141 -286.5t-365 -111.5q-131 0 -252.5 52t-204.5 135q-64 60 -18 106l53 56q60 60 110 8q59 -60 139 -97.5t165 -37.5q105 0 169 53.5t64 140.5q0 96 -76 152.5t-200 56.5h-50q-77 0 -77 80v37q0 80 77 80h58
q101 0 166 49.5t65 126.5q0 72 -58 118t-149 46q-146 0 -258 -95q-62 -50 -112 9l-39 49q-23 31 -17 58t35 50q179 148 426 148q197 0 322 -100.5t125 -258.5q0 -190 -185 -290z" />
    <glyph glyph-name="four" unicode="4" horiz-adv-x="1183" 
d="M1042 483q80 0 80 -77v-44q0 -77 -80 -77h-112v-207q0 -78 -78 -78h-109q-38 0 -58.5 20.5t-20.5 57.5v207h-558q-77 0 -77 77v56q0 35 10 57.5t35 52.5l592 732q22 27 34 38.5t36.5 22t58.5 10.5h57q37 0 57.5 -21.5t20.5 -58.5v-768h112zM307 483h359v451z" />
    <glyph glyph-name="five" unicode="5" horiz-adv-x="1179" 
d="M614 897q221 0 357.5 -125.5t136.5 -331.5t-148.5 -336.5t-384.5 -130.5q-135 0 -261 49.5t-208 133.5q-65 61 -16 110l55 56q54 54 107 4q60 -58 142.5 -93.5t162.5 -35.5q121 0 197.5 67.5t76.5 173.5q0 110 -74 177t-196 67q-131 0 -221 -76q-57 -37 -117 -12l-51 22
q-38 17 -46 49.5t3 73.5l84 514q7 38 25 58t55 20h637q38 0 58 -20.5t20 -57.5v-69q0 -80 -78 -80h-514l-41 -256q107 49 239 49z" />
    <glyph glyph-name="six" unicode="6" horiz-adv-x="1167" 
d="M596 -25q-228 0 -371.5 131t-146.5 355q-1 92 24.5 184.5t65 171.5t106.5 170.5t130 164.5t155 171q33 33 70.5 37t64.5 -21l58 -53q64 -59 -9 -123q-188 -188 -315 -356l4 2q96 74 236 74q194 0 322 -127t128 -320q0 -203 -147.5 -332t-374.5 -129zM598 182
q107 0 178.5 69t71.5 173q0 105 -72 175.5t-178 70.5q-105 0 -176.5 -70.5t-71.5 -175.5q0 -104 71 -173t177 -69z" />
    <glyph glyph-name="seven" unicode="7" horiz-adv-x="1001" 
d="M887 1331q38 0 59 -18.5t21 -52.5v-52q0 -17 -25 -82l-461 -1048q-32 -78 -108 -78h-107q-41 0 -63 26t-2 70l446 1008h-545q-77 0 -77 80v69q0 78 77 78h785z" />
    <glyph glyph-name="eight" unicode="8" horiz-adv-x="1212" 
d="M885 741q117 -46 183.5 -138.5t66.5 -209.5q0 -184 -149 -302t-380 -118q-230 0 -379 118t-149 302q0 117 66.5 208.5t183.5 137.5q-74 42 -116 110t-42 152q0 156 122.5 255.5t313.5 99.5t313.5 -99.5t122.5 -255.5q0 -178 -157 -260zM606 1153q-77 0 -128.5 -46.5
t-51.5 -115.5q0 -72 51.5 -120t128.5 -48t128.5 48t51.5 120q0 69 -51.5 115.5t-128.5 46.5zM606 184q109 0 181.5 64t72.5 162q0 100 -72.5 165.5t-181.5 65.5t-181.5 -65.5t-72.5 -165.5q0 -98 72.5 -162t181.5 -64z" />
    <glyph glyph-name="nine" unicode="9" horiz-adv-x="1167" 
d="M461 -20l-43 43q-68 61 4 127q21 20 39.5 39t42 45t36.5 40.5t44.5 51t42 48.5t52.5 61.5t54 64.5l-8 -4q-66 -60 -184 -60q-213 0 -353.5 127.5t-140.5 329.5q0 203 146 333t376 130q123 0 227 -42.5t175 -119.5q119 -128 119 -326q1 -93 -24.5 -187t-66.5 -176
t-107 -173.5t-132 -167.5t-156 -170q-74 -77 -143 -14zM569 651q106 0 178 70.5t72 175.5q0 104 -71.5 173t-178.5 69t-178.5 -69t-71.5 -173q0 -105 72 -175.5t178 -70.5z" />
    <glyph glyph-name="colon" unicode=":" horiz-adv-x="561" 
d="M281 696q-72 0 -124.5 52t-52.5 124q0 73 52.5 125t124.5 52q73 0 124.5 -51.5t51.5 -125.5q0 -72 -51.5 -124t-124.5 -52zM281 -25q-72 0 -124.5 52.5t-52.5 124.5q0 73 52.5 124.5t124.5 51.5q73 0 124.5 -51t51.5 -125q0 -72 -51.5 -124.5t-124.5 -52.5z" />
    <glyph glyph-name="semicolon" unicode=";" horiz-adv-x="598" 
d="M303 696q-73 0 -124.5 52t-51.5 124q0 74 51.5 125.5t124.5 51.5q72 0 124 -52t52 -125q0 -72 -52 -124t-124 -52zM481 139q3 -205 -260 -483q-42 -42 -82 -10l-22 20q-41 36 4 84q134 149 137 225q-60 13 -98.5 62.5t-38.5 112.5q0 74 52.5 126t127.5 52q80 0 130 -52.5
t50 -136.5z" />
    <glyph glyph-name="less" unicode="&#x3c;" horiz-adv-x="1028" 
d="M920 1065q0 -52 -56 -88l-522 -318l522 -319q56 -33 56 -86v-86q0 -39 -28.5 -55t-68.5 6l-667 401q-55 33 -77 59t-22 74v13q0 43 23.5 72t75.5 59l667 401q40 24 68.5 8t28.5 -57v-84z" />
    <glyph glyph-name="equal" unicode="=" horiz-adv-x="1251" 
d="M203 721q-38 0 -58 20.5t-20 57.5v37q0 77 78 77h848q77 0 77 -77v-37q0 -37 -20 -57.5t-57 -20.5h-848zM203 315q-38 0 -58 20.5t-20 57.5v37q0 78 78 78h848q77 0 77 -78v-37q0 -37 -20 -57.5t-57 -20.5h-848z" />
    <glyph glyph-name="greater" unicode="&#x3e;" horiz-adv-x="1028" 
d="M874 797q50 -31 73.5 -59.5t23.5 -71.5v-13q0 -47 -21.5 -73.5t-75.5 -59.5l-667 -401q-41 -22 -68.5 -6.5t-27.5 55.5v86q0 54 55 86l522 319l-522 318q-55 35 -55 88v84q0 41 27.5 56.5t68.5 -7.5z" />
    <glyph glyph-name="question" unicode="?" horiz-adv-x="1032" 
d="M506 1356q196 0 320 -97t124 -251q0 -44 -13.5 -87.5t-30 -74.5t-48 -70t-51 -58t-57.5 -54.5t-48 -45.5q-75 -70 -75 -147v-18q0 -72 -80 -72h-82q-80 0 -80 72v16q0 66 28.5 121t86.5 112q13 13 58.5 54.5t68.5 65.5t46 65.5t23 81.5q0 74 -57.5 120t-153.5 46
q-67 0 -130 -42t-89 -106q-19 -35 -43 -45t-63 4l-62 25q-69 25 -37 104q44 121 167 201t278 80zM502 297q67 0 115.5 -48t48.5 -114q0 -65 -48.5 -113.5t-115.5 -48.5q-66 0 -114 48.5t-48 113.5q0 66 48 114t114 48z" />
    <glyph glyph-name="at" unicode="@" horiz-adv-x="1802" 
d="M1327 -158q-76 -54 -190.5 -87.5t-241.5 -33.5q-220 0 -404 101t-293.5 284t-109.5 408q0 226 105.5 406t293.5 281.5t422 101.5q173 0 325 -56.5t259 -153.5t169 -232.5t62 -287.5q0 -208 -103.5 -323t-266.5 -115q-85 0 -145 33t-87 92q-111 -121 -288 -121
q-163 0 -271 107.5t-108 271.5q0 167 108.5 278t270.5 111q146 0 256 -102v72q0 45 45 45h94q45 0 45 -45v-441q0 -139 92 -139q69 0 117.5 71.5t48.5 204.5q0 167 -84 297t-224.5 198.5t-310.5 68.5q-181 0 -325 -79t-225.5 -222t-81.5 -324q0 -271 176 -448t446 -177
q94 0 173 25t163 74q48 31 74 -19l33 -53q23 -44 -19 -72zM870 303q86 0 142.5 59.5t56.5 159.5t-56.5 159.5t-142.5 59.5q-90 0 -145 -62.5t-55 -156.5t55 -156.5t145 -62.5z" />
    <glyph glyph-name="A" unicode="A" horiz-adv-x="1417" 
d="M1378 80q16 -38 1 -59t-56 -21h-160q-15 0 -26.5 4.5t-18 8t-15.5 18.5t-11 20t-13 29l-71 172h-607l-73 -172q-10 -24 -15 -34.5t-14.5 -23.5t-22.5 -17.5t-32 -4.5h-150q-40 0 -55 21t2 59l563 1194q32 69 96 69h19q66 0 98 -69zM487 451h437l-215 516z" />
    <glyph glyph-name="B" unicode="B" horiz-adv-x="1296" 
d="M965 707q110 -40 179.5 -125.5t69.5 -208.5q0 -170 -133.5 -271.5t-353.5 -101.5h-485q-38 0 -60 22t-22 60v1169q0 38 22 59t60 21h446q211 0 329 -93t118 -257q0 -92 -46 -162t-124 -112zM662 1122h-224v-348h224q97 0 151.5 45.5t54.5 128.5t-54 128.5t-152 45.5z
M692 211q119 0 183.5 48.5t64.5 139.5q0 86 -62.5 138.5t-166.5 52.5h-275v-379h256z" />
    <glyph glyph-name="C" unicode="C" horiz-adv-x="1382" 
d="M791 -25q-148 0 -279.5 53t-227 144t-151 220t-55.5 274q0 194 94.5 352.5t258.5 248t362 89.5q151 0 283 -55.5t227 -155.5q28 -28 26 -58t-31 -53l-73 -63q-55 -43 -113 6q-135 129 -317 129q-185 0 -310 -125t-125 -315t125 -315.5t310 -125.5t317 129q58 52 113 6
l73 -61q29 -25 31 -55t-26 -56q-95 -101 -227 -157t-285 -56z" />
    <glyph glyph-name="D" unicode="D" horiz-adv-x="1505" 
d="M242 0q-38 0 -60 22t-22 60v1169q0 38 22 59t60 21h483q318 0 508 -182t190 -481q0 -302 -190 -485t-508 -183h-483zM436 229h281q192 0 308 118.5t116 318.5q0 201 -116 318.5t-308 117.5h-281v-873z" />
    <glyph glyph-name="E" unicode="E" horiz-adv-x="1187" 
d="M242 0q-38 0 -60 22t-22 60v1169q0 38 22 59t60 21h786q39 0 60.5 -20t21.5 -58v-71q0 -38 -22 -59t-60 -21h-592v-324h445q39 0 60.5 -20t21.5 -58v-61q0 -38 -22 -59t-60 -21h-445v-330h596q80 0 80 -77v-72q0 -38 -21 -59t-59 -21h-790z" />
    <glyph glyph-name="F" unicode="F" horiz-adv-x="1120" 
d="M240 0q-38 0 -59 22t-21 60v1169q0 38 22 59t60 21h762q39 0 60 -20t21 -58v-71q0 -38 -21.5 -59t-59.5 -21h-568v-338h412q38 0 60 -21t22 -59v-61q0 -38 -21.5 -58t-60.5 -20h-412v-463q0 -39 -20 -60.5t-58 -21.5h-118z" />
    <glyph glyph-name="G" unicode="G" horiz-adv-x="1421" 
d="M778 -25q-146 0 -275.5 53.5t-223 145t-147.5 220t-54 272.5q0 145 54.5 273t147.5 219.5t224 144.5t278 53q248 0 441 -150q31 -25 31 -56.5t-29 -57.5l-64 -60q-53 -48 -121 -2q-121 80 -252 80q-183 0 -307.5 -127.5t-124.5 -316.5q0 -196 126.5 -323.5t312.5 -127.5
q64 0 124.5 16t82 27t69.5 37v246h-248q-80 0 -80 77v54q0 37 21 57.5t59 20.5h418q38 0 59 -21.5t21 -58.5v-447q0 -37 -19 -63t-59 -51q-44 -26 -74 -41.5t-92.5 -41t-138 -38.5t-160.5 -13z" />
    <glyph glyph-name="H" unicode="H" horiz-adv-x="1484" 
d="M240 0q-38 0 -59 22t-21 60v1169q0 38 21 59t59 21h118q78 0 78 -80v-469h613v469q0 80 77 80h119q38 0 59 -21t21 -59v-1169q0 -38 -21 -60t-59 -22h-119q-38 0 -57.5 21.5t-19.5 60.5v471h-613v-471q0 -39 -20 -60.5t-58 -21.5h-118z" />
    <glyph glyph-name="I" unicode="I" horiz-adv-x="595" 
d="M240 0q-38 0 -59 22t-21 60v1169q0 38 21 59t59 21h118q78 0 78 -80v-1169q0 -39 -20 -60.5t-58 -21.5h-118z" />
    <glyph glyph-name="J" unicode="J" horiz-adv-x="1052" 
d="M436 -25q-122 0 -223 44.5t-170 121.5q-55 55 0 109l70 69q30 27 55 26t53 -28q86 -94 197 -94q96 0 153.5 61t57.5 173v794q0 38 21 59t59 21h118q78 0 78 -80v-792q0 -235 -127 -359.5t-342 -124.5z" />
    <glyph glyph-name="K" unicode="K" horiz-adv-x="1292" 
d="M1235 82q24 -35 12.5 -58.5t-49.5 -23.5h-168q-38 0 -62.5 17.5t-54.5 60.5l-358 489l-119 -125v-360q0 -39 -20 -60.5t-58 -21.5h-118q-38 0 -59 22t-21 60v1169q0 38 21 59t59 21h118q78 0 78 -80v-501l465 505q26 30 38.5 42.5t34 23t46.5 10.5h170q38 0 51.5 -24
t-12.5 -56l-473 -518z" />
    <glyph glyph-name="L" unicode="L" horiz-adv-x="1050" 
d="M240 0q-38 0 -59 21t-21 59v1171q0 38 21 59t59 21h118q78 0 78 -80v-1022h504q39 0 60.5 -19.5t21.5 -57.5v-72q0 -38 -22 -59t-60 -21h-700z" />
    <glyph glyph-name="M" unicode="M" horiz-adv-x="1714" 
d="M1620 80q6 -38 -13.5 -59t-58.5 -21h-102q-71 0 -80 80l-88 725l-303 -739q-36 -76 -98 -76h-17q-67 0 -98 76l-305 739l-86 -725q-9 -80 -82 -80h-117q-38 0 -57 21t-15 59l172 1192q9 69 80 69h17q59 0 90 -69l409 -910l396 910q31 69 92 69h16q68 0 80 -69z" />
    <glyph glyph-name="N" unicode="N" horiz-adv-x="1482" 
d="M1243 1331q38 0 59 -21t21 -59v-1175q0 -42 -26.5 -64t-65.5 -22h-17q-34 0 -61.5 18t-58.5 55l-660 787v-768q0 -39 -20 -60.5t-58 -21.5h-116q-38 0 -59 22t-21 60v1173q0 43 26 64.5t66 21.5h16q60 0 121 -73l660 -785v768q0 80 77 80h117z" />
    <glyph glyph-name="O" unicode="O" horiz-adv-x="1601" 
d="M801 -25q-151 0 -285.5 53t-230.5 144t-151.5 219.5t-55.5 274.5q0 194 94.5 352.5t260.5 248t368 89.5q152 0 286.5 -52.5t230 -144t151 -219.5t55.5 -274q0 -145 -55.5 -273.5t-151 -220t-230 -144.5t-286.5 -53zM801 225q123 0 224 56.5t159.5 157.5t58.5 227
q0 192 -127 316t-315 124t-314.5 -124t-126.5 -316q0 -191 127 -316t314 -125z" />
    <glyph glyph-name="P" unicode="P" horiz-adv-x="1273" 
d="M240 0q-38 0 -59 22t-21 60v1169q0 38 22 59t60 21h473q242 0 373 -113t131 -315q0 -200 -130.5 -313t-373.5 -113h-279v-395q0 -39 -20 -60.5t-58 -21.5h-118zM436 694h291q97 0 153 53t56 150q0 98 -56 151.5t-153 53.5h-291v-408z" />
    <glyph glyph-name="Q" unicode="Q" horiz-adv-x="1601" 
d="M1196 82l211 -272q27 -37 15 -57.5t-52 -20.5h-176q-58 0 -98 51l-160 203q-82 -11 -135 -11q-151 0 -285.5 53t-230.5 144t-151.5 219.5t-55.5 274.5q0 194 94.5 352.5t260.5 248t368 89.5q152 0 286.5 -52.5t230 -144t151 -219.5t55.5 -274q0 -187 -87.5 -340.5
t-240.5 -243.5zM360 666q0 -191 127 -316t314 -125q123 0 224 56.5t159.5 157.5t58.5 227q0 192 -127 316t-315 124t-314.5 -124t-126.5 -316z" />
    <glyph glyph-name="R" unicode="R" horiz-adv-x="1306" 
d="M940 549l260 -467q20 -40 5 -61t-54 -21h-150q-36 0 -52.5 14.5t-41.5 59.5l-245 442h-226v-434q0 -39 -20 -60.5t-58 -21.5h-118q-38 0 -59 22t-21 60v1169q0 38 22 59t60 21h473q244 0 374 -109t130 -304q0 -137 -73.5 -232t-205.5 -137zM436 1102v-389h291
q95 0 152 52t57 140q0 89 -57 143t-152 54h-291z" />
    <glyph glyph-name="S" unicode="S" horiz-adv-x="1189" 
d="M608 -25q-157 0 -294 54t-224 151q-64 64 -8 119l47 55q62 65 119 11q61 -69 158 -110.5t186 -41.5q109 0 174 43t65 113q0 32 -13 58t-30.5 42t-54.5 32.5t-64 25.5t-81 25.5t-86 27.5q-60 19 -107 38.5t-102.5 54t-92.5 73.5t-62 98t-25 129q0 169 135 276t350 107
q133 0 244.5 -42t191.5 -116q70 -59 15 -117l-48 -55q-57 -61 -116 -10q-130 114 -283 114q-91 0 -149 -39t-58 -102q0 -29 13.5 -53.5t31.5 -41t52 -33t59.5 -26t69.5 -24.5q174 -59 211 -74q177 -74 240 -188q42 -77 42 -178q0 -122 -68 -213t-181.5 -137t-256.5 -46z" />
    <glyph glyph-name="T" unicode="T" horiz-adv-x="1175" 
d="M528 0q-38 0 -57.5 21.5t-19.5 60.5v1020h-345q-38 0 -58.5 21t-20.5 59v71q0 78 79 78h963q39 0 60.5 -20t21.5 -58v-71q0 -38 -22 -59t-60 -21h-342v-1020q0 -38 -21 -60t-59 -22h-119z" />
    <glyph glyph-name="U" unicode="U" horiz-adv-x="1484" 
d="M745 -25q-271 0 -437.5 164.5t-166.5 433.5v678q0 38 21 59t59 21h119q78 0 78 -80v-688q0 -153 90 -246.5t237 -93.5q146 0 236 94t90 246v688q0 38 21 59t59 21h113q38 0 58.5 -21t20.5 -59v-678q0 -269 -164.5 -433.5t-433.5 -164.5z" />
    <glyph glyph-name="V" unicode="V" horiz-adv-x="1388" 
d="M1286 1331q41 0 61.5 -21.5t2.5 -56.5l-551 -1187q-19 -41 -41 -58.5t-56 -17.5h-16q-33 0 -54 17.5t-40 58.5l-553 1187q-18 35 2 56.5t61 21.5h131q78 0 107 -78l354 -845l363 845q34 78 108 78h121z" />
    <glyph glyph-name="W" unicode="W" horiz-adv-x="1966" 
d="M1864 1331q40 0 58.5 -20.5t4.5 -57.5l-444 -1187q-15 -41 -37 -58.5t-57 -17.5h-15q-34 0 -56.5 17.5t-37.5 58.5l-299 817l-295 -817q-15 -41 -37 -58.5t-57 -17.5h-14q-67 0 -95 76l-444 1187q-13 37 5.5 57.5t57.5 20.5h117q85 0 111 -78l270 -811l279 826
q26 73 96 73h16q73 0 96 -73l285 -832l277 817q26 78 108 78h107z" />
    <glyph glyph-name="X" unicode="X" horiz-adv-x="1290" 
d="M1245 74q22 -32 7.5 -53t-52.5 -21h-182q-35 0 -56 17.5t-51 62.5l-268 397l-278 -397q-21 -31 -32.5 -45t-31 -24.5t-43.5 -10.5h-168q-40 0 -54 21t9 53l438 596l-413 587q-20 34 -6.5 54t51.5 20h182q35 0 55.5 -17t50.5 -61l248 -366l254 366q29 44 50 61t57 17h168
q40 0 54 -21t-9 -53l-416 -569z" />
    <glyph glyph-name="Y" unicode="Y" horiz-adv-x="1327" 
d="M1212 1331q39 0 56.5 -19.5t-0.5 -54.5l-463 -763v-412q0 -39 -20 -60.5t-58 -21.5h-119q-38 0 -59 22t-21 60v410l-473 765q-20 34 -2 54t58 20h129q37 0 64 -18.5t52 -59.5l314 -524l305 524q44 78 117 78h120z" />
    <glyph glyph-name="Z" unicode="Z" horiz-adv-x="1206" 
d="M1077 225q38 0 59 -21t21 -59v-65q0 -38 -21 -59t-59 -21h-942q-36 0 -56 19t-20 53v69q0 18 8.5 37t16.5 30t25 30l659 870h-596q-39 0 -60.5 20t-21.5 58v67q0 38 21.5 58t60.5 20h870q78 0 78 -71v-68q0 -12 -2.5 -22.5t-9 -21.5t-10 -17t-14 -19.5t-13.5 -17.5
l-653 -869h659z" />
    <glyph glyph-name="bracketleft" unicode="[" horiz-adv-x="655" 
d="M231 -238q-77 0 -77 78v1594q0 77 77 77h314q78 0 78 -77v-29q0 -37 -20.5 -57.5t-57.5 -20.5h-156v-1380h156q37 0 57.5 -20.5t20.5 -57.5v-29q0 -38 -20.5 -58t-57.5 -20h-314z" />
    <glyph glyph-name="backslash" unicode="\" horiz-adv-x="1134" 
d="M930 -109q-72 0 -115 78l-760 1420q-21 37 -8.5 57t51.5 20h107q72 0 114 -77l760 -1420q21 -37 8.5 -57.5t-51.5 -20.5h-106z" />
    <glyph glyph-name="bracketright" unicode="]" horiz-adv-x="655" 
d="M424 -238h-311q-78 0 -78 78v29q0 37 20 57.5t58 20.5h153v1380h-153q-38 0 -58 20.5t-20 57.5v29q0 77 78 77h311q78 0 78 -77v-1594q0 -78 -78 -78z" />
    <glyph glyph-name="asciicircum" unicode="^" horiz-adv-x="1234" 
d="M1159 645q22 -35 6 -61.5t-55 -26.5h-88q-35 0 -56.5 17.5t-52.5 60.5l-290 438l-299 -438q-31 -43 -52.5 -60.5t-56.5 -17.5h-88q-40 0 -56 26.5t7 61.5l414 608q30 42 52.5 60t57.5 18h43q36 0 60 -18.5t51 -59.5z" />
    <glyph glyph-name="underscore" unicode="_" horiz-adv-x="1187" 
d="M180 -270q-78 0 -78 77v58q0 37 20 57.5t58 20.5h830q37 0 57 -20.5t20 -57.5v-58q0 -77 -77 -77h-830z" />
    <glyph glyph-name="grave" unicode="`" horiz-adv-x="675" 
d="M555 1204q-25 -37 -88 -8l-344 162q-63 32 -27 90l49 90q34 53 93 10l315 -205q62 -43 29 -92z" />
    <glyph glyph-name="a" unicode="a" horiz-adv-x="1150" 
d="M561 1051q79 0 147.5 -15.5t127 -49t100 -83t65 -121.5t23.5 -161v-541q0 -38 -19.5 -59t-56.5 -21h-65q-37 0 -57.5 21.5t-20.5 58.5v35q-145 -142 -338 -142q-180 0 -290.5 91t-110.5 239q0 157 120.5 252.5t317.5 95.5q133 0 266 -55v55q0 89 -60.5 141t-166.5 52
q-144 0 -262 -80q-63 -38 -103 29l-18 32q-43 73 22 113q168 113 379 113zM526 160q101 0 175.5 54t74.5 128v76q-120 59 -235 59q-97 0 -156 -45t-59 -119q0 -69 54.5 -111t145.5 -42z" />
    <glyph glyph-name="b" unicode="b" horiz-adv-x="1302" 
d="M715 1051q148 0 266 -71.5t183 -194.5t65 -273q0 -228 -145.5 -383.5t-368.5 -155.5q-212 0 -353 158v-51q0 -37 -19.5 -58.5t-55.5 -21.5h-72q-37 0 -57.5 21.5t-20.5 58.5v1280q0 34 19 52.5t59 27.5l113 20q40 9 61 -12.5t21 -63.5v-434q139 101 305 101zM674 211
q127 0 205.5 86t78.5 215t-79 216t-205 87q-121 0 -202.5 -81t-78.5 -222q1 -141 80.5 -221t200.5 -80z" />
    <glyph glyph-name="c" unicode="c" horiz-adv-x="1097" 
d="M625 -27q-157 0 -284 70.5t-198 193.5t-71 275q0 232 157 385.5t396 153.5q240 0 401 -158q48 -48 0 -96l-72 -72q-46 -43 -98 2q-95 88 -223 88q-127 0 -209 -86t-82 -217t80.5 -217t210.5 -86q125 0 223 88q52 48 98 2l72 -72q47 -47 0 -94q-160 -160 -401 -160z" />
    <glyph glyph-name="d" unicode="d" horiz-adv-x="1308" 
d="M1081 1460q40 7 61 -14t21 -62v-1304q0 -37 -20.5 -58.5t-57.5 -21.5h-81q-36 0 -56 21.5t-20 58.5v43q-137 -150 -342 -150q-148 0 -266.5 71.5t-184 195t-65.5 272.5q0 150 65.5 273t184 194.5t266.5 71.5q166 0 305 -101v410q0 34 18.5 52.5t57.5 27.5zM625 211
q122 0 202 80.5t80 220.5q0 142 -80 222.5t-202 80.5q-127 0 -206 -87t-79 -216q0 -128 79 -214.5t206 -86.5z" />
    <glyph glyph-name="e" unicode="e" horiz-adv-x="1198" 
d="M340 451q12 -126 101 -198.5t212 -72.5q142 0 260 92q29 23 51 24t48 -24l49 -49q45 -45 0 -94q-74 -75 -194.5 -115.5t-237.5 -40.5q-154 0 -280 65.5t-201.5 189.5t-75.5 284q0 232 152.5 385.5t383.5 153.5q114 0 210.5 -38t164.5 -106q72 -70 111 -167.5t39 -204.5
q0 -44 -19.5 -64t-64.5 -20h-709zM604 850q-105 0 -176 -63t-86 -169h524q-16 99 -73 156q-70 76 -189 76z" />
    <glyph glyph-name="f" unicode="f" horiz-adv-x="788" 
d="M821 1438q71 -29 41 -95l-24 -61q-14 -35 -37 -43.5t-56 4.5q-43 19 -83 19q-73 0 -121.5 -47.5t-48.5 -137.5v-43h217q37 0 57 -19.5t20 -56.5v-51q0 -37 -20 -57.5t-57 -20.5h-217v-749q0 -37 -20 -58.5t-56 -21.5h-119q-37 0 -57.5 21.5t-20.5 58.5v749h-96
q-37 0 -57.5 20.5t-20.5 57.5v51q0 37 20.5 56.5t57.5 19.5h96v43q0 100 35 178t94.5 125t131.5 71t151 24q111 0 190 -37z" />
    <glyph glyph-name="g" unicode="g" horiz-adv-x="1259" 
d="M1049 1034q36 0 55.5 -20.5t19.5 -57.5v-843q0 -101 -28 -184t-77.5 -141.5t-118.5 -98.5t-149.5 -59t-172.5 -19q-293 0 -469 192q-53 57 2 109l39 45q51 51 106 -2q128 -139 324 -139q126 0 209 65t83 189v123q-133 -107 -309 -107q-211 0 -351 137.5t-140 343.5
q0 207 140.5 345.5t352.5 138.5q197 0 334 -127v32q0 37 20.5 57.5t57.5 20.5h72zM616 295q121 0 197 76.5t76 195.5q0 120 -77 197.5t-198 77.5q-120 0 -196 -77.5t-76 -197.5q0 -119 76 -195.5t198 -76.5z" />
    <glyph glyph-name="h" unicode="h" horiz-adv-x="1243" 
d="M696 1051q190 0 306 -121t116 -318v-532q0 -37 -20 -58.5t-56 -21.5h-118q-37 0 -57.5 21.5t-20.5 58.5v512q0 102 -58 163.5t-157 61.5q-100 0 -161.5 -62t-61.5 -163v-512q0 -37 -20 -58.5t-56 -21.5h-117q-37 0 -57.5 21.5t-20.5 58.5v1280q0 34 19 52.5t59 27.5
l111 20q40 7 61 -14t21 -62v-446q113 113 288 113z" />
    <glyph glyph-name="i" unicode="i" horiz-adv-x="546" 
d="M274 1206q-74 0 -125 51t-51 125q0 72 51.5 124.5t124.5 52.5q72 0 124.5 -52.5t52.5 -124.5q0 -73 -52.5 -124.5t-124.5 -51.5zM215 0q-37 0 -57.5 21.5t-20.5 58.5v876q0 37 20.5 57.5t57.5 20.5h119q37 0 56.5 -20.5t19.5 -57.5v-876q0 -37 -20 -58.5t-56 -21.5h-119z
" />
    <glyph glyph-name="j" unicode="j" horiz-adv-x="548" 
d="M276 1206q-74 0 -125 51t-51 125q0 72 51.5 124.5t124.5 52.5q72 0 124.5 -52.5t52.5 -124.5q0 -73 -52.5 -124.5t-124.5 -51.5zM133 -377q-75 -37 -113 31l-43 80q-36 69 35 110q55 31 81.5 62t37 80t10.5 141v829q0 37 19.5 57.5t56.5 20.5h119q37 0 57.5 -20.5
t20.5 -57.5v-833q0 -214 -56 -315t-225 -185z" />
    <glyph glyph-name="k" unicode="k" horiz-adv-x="1116" 
d="M1079 80q26 -34 12 -57t-51 -23h-161q-37 0 -63.5 18t-53.5 58l-256 346l-98 -107v-235q0 -37 -20 -58.5t-56 -21.5h-117q-37 0 -57.5 21.5t-20.5 58.5v1280q0 34 19 52.5t59 27.5l111 20q40 9 61 -12.5t21 -63.5v-821l348 395q35 42 59 59t59 17h152q37 0 51 -23
t-12 -57l-356 -391z" />
    <glyph glyph-name="l" unicode="l" horiz-adv-x="550" 
d="M217 0q-37 0 -57.5 21.5t-20.5 58.5v1280q0 34 19 52.5t59 27.5l113 22q40 9 61 -13.5t21 -64.5v-1304q0 -37 -20 -58.5t-56 -21.5h-119z" />
    <glyph glyph-name="m" unicode="m" horiz-adv-x="1925" 
d="M1380 1051q190 0 305 -121t115 -318v-532q0 -37 -20.5 -58.5t-57.5 -21.5h-118q-36 0 -56 21.5t-20 58.5v512q0 104 -54.5 164.5t-150.5 60.5q-98 0 -158.5 -61.5t-60.5 -163.5v-512q0 -37 -20 -58.5t-56 -21.5h-119q-37 0 -57.5 21.5t-20.5 58.5v512q0 104 -54 164.5
t-150 60.5q-98 0 -158.5 -61.5t-60.5 -163.5v-512q0 -37 -20 -58.5t-56 -21.5h-119q-37 0 -57.5 21.5t-20.5 58.5v876q0 37 20.5 57.5t57.5 20.5h78q37 0 57.5 -20.5t20.5 -57.5v-69q120 164 325 164q111 0 197 -43.5t139 -122.5q58 77 147.5 121.5t202.5 44.5z" />
    <glyph glyph-name="n" unicode="n" horiz-adv-x="1243" 
d="M696 1051q190 0 306 -121t116 -318v-532q0 -37 -20 -58.5t-56 -21.5h-118q-37 0 -57.5 21.5t-20.5 58.5v512q0 102 -58 163.5t-157 61.5q-100 0 -161.5 -62t-61.5 -163v-512q0 -37 -20 -58.5t-56 -21.5h-119q-37 0 -57.5 21.5t-20.5 58.5v876q0 37 20.5 57.5t57.5 20.5
h78q37 0 57.5 -20.5t20.5 -57.5v-69q114 164 327 164z" />
    <glyph glyph-name="o" unicode="o" horiz-adv-x="1259" 
d="M631 -27q-242 0 -401.5 154t-159.5 385t159.5 385t401.5 154t400.5 -154t158.5 -385t-158.5 -385t-400.5 -154zM631 211q126 0 207.5 85t81.5 216t-81.5 217t-207.5 86t-208.5 -86t-82.5 -217t82 -216t209 -85z" />
    <glyph glyph-name="p" unicode="p" horiz-adv-x="1300" 
d="M715 1051q148 0 266.5 -71.5t184 -195t65.5 -272.5q0 -148 -65.5 -271.5t-184.5 -195.5t-266 -72q-171 0 -305 103v-387q0 -37 -19.5 -57.5t-56.5 -20.5h-119q-37 0 -57.5 20.5t-20.5 57.5v1267q0 37 20.5 57.5t57.5 20.5h76q37 0 57.5 -20.5t20.5 -57.5v-43
q148 138 346 138zM674 211q127 0 205.5 86t78.5 215t-79 216t-205 87q-120 0 -200.5 -81t-80.5 -222q0 -140 80 -220.5t201 -80.5z" />
    <glyph glyph-name="q" unicode="q" horiz-adv-x="1300" 
d="M1087 1034q37 0 56.5 -20.5t19.5 -57.5v-1267q0 -37 -19.5 -57.5t-56.5 -20.5h-118q-37 0 -57.5 20.5t-20.5 57.5v387q-134 -103 -305 -103q-223 0 -368.5 155.5t-145.5 383.5q0 150 65.5 273t183.5 194.5t265 71.5q202 0 350 -138v43q0 37 20.5 57.5t57.5 20.5h73z
M627 211q122 0 202 80.5t80 220.5q0 142 -80 222.5t-202 80.5q-127 0 -206 -87t-79 -216q0 -128 79 -214.5t206 -86.5z" />
    <glyph glyph-name="r" unicode="r" horiz-adv-x="823" 
d="M772 1032q28 -9 41.5 -27t3.5 -55l-26 -102q-18 -65 -82 -47q-46 16 -91 16q-99 0 -154.5 -68.5t-55.5 -181.5v-487q0 -37 -20 -58.5t-56 -21.5h-119q-37 0 -57.5 21.5t-20.5 58.5v876q0 37 20.5 57.5t57.5 20.5h78q37 0 57.5 -20.5t20.5 -57.5v-63q106 158 274 158
q64 0 129 -19z" />
    <glyph glyph-name="s" unicode="s" horiz-adv-x="968" 
d="M492 -27q-119 0 -230 43t-176 113q-60 57 -4 115l35 39q53 58 114 6q120 -105 258 -105q66 0 106 27.5t40 71.5q0 22 -9.5 40t-21 30t-37 26t-41 21t-49.5 20q-13 5 -20 8q-46 16 -73 25.5t-68.5 27.5t-66 34t-54.5 40.5t-46 50.5t-27 62t-11 77q0 139 106 222.5
t283 83.5q100 0 194.5 -32.5t153.5 -88.5q30 -26 32 -51.5t-28 -65.5l-29 -37q-50 -57 -112 -10q-99 80 -211 80q-59 0 -94 -23.5t-35 -62.5q0 -11 3 -20.5t10.5 -18.5t14 -16t21 -15t24.5 -13.5t30 -13.5t32 -13t37.5 -14.5t38.5 -14.5q60 -24 100 -43.5t84 -49.5t69.5 -62
t42.5 -78t17 -101q0 -145 -110.5 -229.5t-292.5 -84.5z" />
    <glyph glyph-name="t" unicode="t" horiz-adv-x="829" 
d="M821 127q25 -48 -35 -88q-92 -66 -229 -66q-156 0 -258 94t-102 275v487h-101q-37 0 -58.5 20.5t-21.5 57.5v51q0 36 21.5 56t58.5 20h101v258q0 65 77 80l111 23q40 9 61 -13.5t21 -64.5v-283h227q37 0 58.5 -20t21.5 -56v-51q0 -37 -21.5 -57.5t-58.5 -20.5h-227v-462
q0 -158 135 -158q38 0 94 31q22 16 39.5 14t28 -12t20.5 -29z" />
    <glyph glyph-name="u" unicode="u" horiz-adv-x="1218" 
d="M1006 1034q37 0 57 -20.5t20 -57.5v-876q0 -37 -20.5 -58.5t-56.5 -21.5h-74q-37 0 -57.5 21.5t-20.5 58.5v55q-106 -162 -313 -162q-187 0 -301.5 116.5t-114.5 305.5v561q0 37 19.5 57.5t56.5 20.5h118q37 0 57.5 -20.5t20.5 -57.5v-530q0 -98 55 -157.5t148 -59.5
q97 0 154 61t57 162v524q0 37 19.5 57.5t56.5 20.5h119z" />
    <glyph glyph-name="v" unicode="v" horiz-adv-x="1112" 
d="M1016 1034q37 0 54.5 -22.5t2.5 -55.5l-407 -890q-36 -76 -101 -76h-12q-64 0 -100 76l-424 890q-15 33 3 55.5t54 22.5h119q37 0 58.5 -19t37.5 -59l258 -632l256 632q14 40 36.5 59t59.5 19h105z" />
    <glyph glyph-name="w" unicode="w" horiz-adv-x="1599" 
d="M1507 1034q36 0 53.5 -22t4.5 -56l-346 -890q-17 -41 -40 -58.5t-57 -17.5h-12q-68 0 -96 76l-215 602l-217 -602q-28 -76 -97 -76h-12q-34 0 -56.5 17.5t-39.5 58.5l-342 890q-13 34 4 56t53 22h115q77 0 98 -78l184 -618l211 633q13 41 36 57t59 16h10q70 0 94 -73
l211 -621l182 606q24 78 99 78h116z" />
    <glyph glyph-name="x" unicode="x" horiz-adv-x="1087" 
d="M1038 78q25 -32 12 -55t-51 -23h-161q-34 0 -56.5 17.5t-52.5 58.5l-197 270l-196 -270q-30 -41 -52.5 -58.5t-56.5 -17.5h-139q-37 0 -50 22t11 56l342 438l-340 442q-24 32 -11 54t50 22h162q34 0 56 -17.5t52 -58.5l197 -270l195 270q28 41 50 58.5t58 17.5h137
q38 0 51 -22t-12 -54l-338 -442z" />
    <glyph glyph-name="y" unicode="y" horiz-adv-x="1107" 
d="M1016 1034q37 0 54.5 -22.5t2.5 -55.5l-471 -1083q-62 -145 -147.5 -203.5t-200.5 -58.5q-88 0 -156 33q-57 29 -41 80l23 79q19 60 90 35q35 -14 72 -14q41 0 71 19.5t56 76.5l69 154l-397 882q-15 33 2.5 55.5t54.5 22.5h133q68 0 97 -78l243 -616l244 616q29 78 94 78
h107z" />
    <glyph glyph-name="z" unicode="z" horiz-adv-x="1001" 
d="M139 0q-37 0 -58.5 21.5t-21.5 58.5v72q0 20 10 39.5t21 33t41 45.5l471 561h-446q-38 0 -59 20.5t-21 57.5v49q0 36 21.5 56t58.5 20h686q37 0 58.5 -20.5t21.5 -57.5v-71q0 -28 -16 -52.5t-56 -70.5l-457 -559h481q37 0 57.5 -19.5t20.5 -56.5v-49q0 -37 -20 -57.5
t-58 -20.5h-735z" />
    <glyph glyph-name="braceleft" unicode="{" horiz-adv-x="720" 
d="M489 -238q-146 0 -216 84.5t-70 266.5v266q0 73 -18.5 110t-63.5 50q-37 10 -55.5 27t-18.5 50v46q0 33 18 49t56 26q45 13 63.5 50t18.5 110v264q0 182 70 266t216 84h125q78 0 78 -77v-39q0 -37 -20.5 -57.5t-57.5 -20.5h-61q-56 0 -80 -35.5t-24 -105.5v-291
q0 -220 -164 -246v-2q77 -12 120.5 -72t43.5 -153v-312q0 -70 24 -106.5t80 -36.5h61q37 0 57.5 -20.5t20.5 -57.5v-39q0 -38 -20.5 -58t-57.5 -20h-125z" />
    <glyph glyph-name="bar" unicode="|" horiz-adv-x="512" 
d="M358 -221q0 -78 -77 -78h-50q-77 0 -77 78v1593q0 78 77 78h50q77 0 77 -78v-1593z" />
    <glyph glyph-name="braceright" unicode="}" horiz-adv-x="720" 
d="M233 -238h-124q-78 0 -78 78v39q0 37 20 57.5t58 20.5h61q56 0 79 36.5t23 106.5v312q0 93 44 153t122 72v2q-166 26 -166 246v291q0 70 -23 105.5t-79 35.5h-61q-38 0 -58 20.5t-20 57.5v39q0 77 78 77h124q146 0 216.5 -84.5t70.5 -265.5v-264q0 -73 18.5 -110
t63.5 -50q36 -10 54 -26t18 -49v-46q0 -33 -18 -50t-54 -27q-45 -13 -63.5 -50t-18.5 -110v-266q0 -182 -70.5 -266.5t-216.5 -84.5z" />
    <glyph glyph-name="asciitilde" unicode="~" horiz-adv-x="1261" 
d="M874 508q-65 0 -134 19t-118 42.5t-110.5 42.5t-114.5 19q-48 0 -71 -14.5t-37 -49.5q-12 -32 -28 -43.5t-50 -11.5h-37q-37 0 -51.5 13t-11.5 42q13 111 87.5 183.5t198.5 72.5q59 0 126 -19t118 -42.5t115 -42.5t118 -19q47 0 71 15t38 49q12 32 28 43.5t50 11.5h37
q37 0 51.5 -12.5t11.5 -42.5q-13 -111 -88 -183.5t-199 -72.5z" />
    <glyph glyph-name="exclamdown" unicode="&#xa1;" horiz-adv-x="540" 
d="M270 696q-72 0 -124 52t-52 124q0 73 52 125t124 52q73 0 124.5 -51.5t51.5 -125.5q0 -72 -51.5 -124t-124.5 -52zM217 -307q-39 0 -62 23t-20 61l37 743q6 78 78 78h43q75 0 78 -78l37 -743q3 -39 -21 -61.5t-63 -22.5h-107z" />
    <glyph glyph-name="cent" unicode="&#xa2;" horiz-adv-x="1095" 
d="M928 467l73 -74q42 -42 3 -86q-122 -122 -291 -147v-107q0 -37 -19.5 -57.5t-56.5 -20.5h-53q-37 0 -57.5 20.5t-20.5 57.5v109q-190 32 -308 172t-118 336t118 336t308 172v98q0 37 20.5 56.5t57.5 19.5h53q76 0 76 -76v-96q166 -24 291 -146q12 -15 17.5 -26t1.5 -28
t-22 -34l-73 -72q-20 -20 -37.5 -20.5t-48.5 25.5q-93 86 -221 86q-124 0 -204.5 -83.5t-80.5 -211.5t79 -211.5t206 -83.5q128 0 223 90q18 18 33.5 22t26.5 -1.5t24 -18.5z" />
    <glyph glyph-name="sterling" unicode="&#xa3;" horiz-adv-x="1175" 
d="M1020 209q37 0 56.5 -20.5t19.5 -57.5v-53q0 -37 -19.5 -57.5t-56.5 -20.5h-856q-37 0 -56.5 20.5t-19.5 57.5v53q0 37 19.5 57.5t56.5 20.5h61v364h-57q-38 0 -59 20.5t-21 57.5v54q0 37 21 57t59 20h57v148q0 103 38 185.5t102.5 134t146.5 79t174 27.5
q123 0 229 -46.5t177 -129.5q51 -58 -5 -111l-49 -45q-53 -50 -108 8q-98 105 -225 105q-93 0 -149 -55.5t-56 -151.5v-148h286q37 0 58.5 -20.5t21.5 -56.5v-54q0 -37 -21.5 -57.5t-58.5 -20.5h-286v-364h520z" />
    <glyph glyph-name="currency" unicode="&#xa4;" horiz-adv-x="1366" 
d="M1227 309q57 -53 0 -110l-56 -54q-57 -53 -108 -2l-100 101q-128 -76 -281 -76q-151 0 -279 76l-100 -101q-50 -54 -106 2l-56 54q-28 26 -28 55t26 55l88 88q-88 122 -88 275q0 154 88 276l-88 90q-55 52 0 107l56 55q53 57 108 2l100 -100q131 76 281 76q154 0 279 -76
l100 100q26 26 55.5 26t55.5 -28l53 -55q56 -56 2 -107l-90 -90q90 -122 90 -276t-90 -275zM684 381q126 0 209.5 82.5t83.5 208.5q0 127 -83.5 210t-209.5 83t-209.5 -83t-83.5 -210q0 -126 83.5 -208.5t209.5 -82.5z" />
    <glyph glyph-name="yen" unicode="&#xa5;" horiz-adv-x="1333" 
d="M1227 1333q38 0 51 -19.5t-6 -53.5l-426 -705h155q32 0 50 -18t18 -50v-12q0 -32 -18 -49.5t-50 -17.5h-202v-107h202q32 0 50 -18t18 -50v-12q0 -32 -18 -49.5t-50 -17.5h-202v-74q0 -80 -78 -80h-98q-38 0 -59 21t-21 59v74h-205q-31 0 -48.5 17.5t-17.5 49.5v12
q0 32 17.5 50t48.5 18h205v107h-205q-31 0 -48.5 17.5t-17.5 49.5v12q0 32 17.5 50t48.5 18h156l-435 705q-21 34 -7.5 53.5t52.5 19.5h152q36 0 56.5 -17.5t47.5 -62.5l314 -524l305 524q25 44 46.5 62t57.5 18h144z" />
    <glyph glyph-name="brokenbar" unicode="&#xa6;" horiz-adv-x="512" 
d="M358 776q0 -78 -77 -78h-50q-37 0 -57 20.5t-20 57.5v596q0 78 77 78h50q77 0 77 -78v-596zM358 -221q0 -78 -77 -78h-50q-77 0 -77 78v637q0 78 77 78h50q77 0 77 -78v-637z" />
    <glyph glyph-name="section" unicode="&#xa7;" horiz-adv-x="1171" 
d="M575 -340q-140 0 -266 49.5t-209 147.5q-59 59 -12 106l62 57q49 46 98 0q56 -68 145 -110.5t170 -42.5q93 0 152 40t59 99q0 33 -18.5 59t-55 46t-71 33t-87.5 31q-5 1 -8.5 2.5t-7.5 2.5q-74 24 -127.5 45t-110.5 53.5t-93 68.5t-59 87t-23 111q0 81 39.5 148.5
t107.5 109.5q-115 88 -115 215q0 104 61.5 181.5t165 117t234.5 39.5q250 0 418 -160q56 -56 12 -102l-43 -45q-29 -27 -51 -30t-51 21q-117 117 -268 117q-84 0 -137.5 -36.5t-53.5 -94.5q0 -60 55.5 -96.5t165.5 -73.5h1l1 -1h1h1l1 -1h1q180 -60 256 -105
q171 -102 172 -272q0 -163 -129 -258q99 -102 99 -221q0 -107 -67.5 -185t-175 -115.5t-239.5 -37.5zM733 346q43 20 67.5 55.5t24.5 77.5q0 29 -15 54t-35 42t-58 35.5t-67 29t-78.5 28t-77.5 28.5q-51 -17 -81 -52.5t-30 -78.5q0 -36 19 -63t57.5 -48t76 -35t98 -35
t99.5 -38z" />
    <glyph glyph-name="dieresis" unicode="&#xa8;" horiz-adv-x="1048" 
d="M303 1206q-72 0 -123 50.5t-51 121.5q0 72 51 122t123 50q71 0 121.5 -50t50.5 -122q0 -70 -50.5 -121t-121.5 -51zM745 1206q-71 0 -121.5 51t-50.5 121q0 72 50.5 122t121.5 50q72 0 122.5 -50t50.5 -122q0 -71 -50.5 -121.5t-122.5 -50.5z" />
    <glyph glyph-name="copyright" unicode="&#xa9;" horiz-adv-x="1554" 
d="M778 -25q-146 0 -276 53.5t-222.5 145t-146 220t-53.5 272.5q0 192 91 350t251.5 249t355.5 91q146 0 275.5 -53.5t222.5 -145t147 -219.5t54 -272t-54 -272.5t-147 -220t-222.5 -145t-275.5 -53.5zM778 113q154 0 281 72.5t199.5 199.5t72.5 281t-72.5 281t-199.5 199.5
t-281 72.5t-281 -72.5t-199.5 -199.5t-72.5 -281t72.5 -281t199.5 -199.5t281 -72.5zM799 266q-178 0 -297 115t-119 287q0 175 118.5 290t297.5 115q96 0 176 -34.5t133 -92.5q34 -38 -4 -74l-55 -55q-40 -36 -78 2q-64 64 -164 64q-96 0 -151.5 -60.5t-55.5 -154.5
q0 -93 55.5 -153t153.5 -60q104 0 162 65q39 41 78 2l57 -55q36 -36 4 -76q-53 -58 -133.5 -91.5t-177.5 -33.5z" />
    <glyph glyph-name="ordfeminine" unicode="&#xaa;" horiz-adv-x="796" 
d="M389 1356q126 0 210.5 -62.5t84.5 -175.5v-366q0 -52 -51 -52h-51q-52 0 -52 52v22q-85 -78 -194 -78q-116 0 -188 57.5t-72 151.5t77.5 147.5t198.5 53.5q76 0 156 -25v23q0 51 -37.5 82t-99.5 31q-80 0 -150 -52q-38 -30 -63 2l-29 35q-26 36 8 66q99 88 252 88z
M367 821q61 0 99 35.5t38 81.5v29q-59 22 -127 22q-52 0 -84.5 -24t-32.5 -62t28.5 -60t78.5 -22z" />
    <glyph glyph-name="guillemotleft" unicode="&#xab;" horiz-adv-x="1093" 
d="M317 614l201 -235q51 -58 -2 -109l-31 -26q-33 -24 -63.5 -20t-52.5 28l-279 313q-41 47 4 101l275 307q22 25 52.5 29.5t63.5 -21.5l31 -27q53 -48 2 -106zM766 614l201 -235q51 -58 -2 -109l-31 -26q-33 -24 -64 -20t-53 28l-278 313q-41 47 4 101l274 307
q22 25 53 29.5t64 -21.5l31 -27q53 -48 2 -106z" />
    <glyph glyph-name="registered" unicode="&#xae;" horiz-adv-x="927" 
d="M465 1382q162 0 272.5 -108t110.5 -270q0 -161 -110.5 -269t-272.5 -108q-163 0 -274 108t-111 269q0 162 111 270t274 108zM465 721q121 0 203 81t82 202q0 122 -82 203t-203 81t-203 -80.5t-82 -201.5q0 -122 82 -203.5t203 -81.5zM633 1075q0 -70 -70 -104l64 -115
q9 -17 0.5 -29t-27.5 -12h-43q-17 0 -27 9t-20 30l-55 102h-37v-102q0 -39 -39 -39h-31q-37 0 -37 39v311q0 37 37 37h131q74 0 114 -33.5t40 -93.5zM418 1114v-84h59q45 0 45 41q0 19 -12 31t-33 12h-59z" />
    <glyph glyph-name="macron" unicode="&#xaf;" horiz-adv-x="1024" 
d="M268 1268q-80 0 -80 78v28q0 78 80 78h488q78 0 78 -78v-28q0 -78 -78 -78h-488z" />
    <glyph glyph-name="degree" unicode="&#xb0;" horiz-adv-x="667" 
d="M334 827q-109 0 -186.5 78t-77.5 187q0 110 77.5 187t186.5 77q110 0 187 -77t77 -187q0 -109 -77 -187t-187 -78zM334 979q49 0 79.5 32.5t30.5 80.5t-31.5 81t-78.5 33q-46 0 -77.5 -33.5t-31.5 -80.5t31.5 -80t77.5 -33z" />
    <glyph glyph-name="plusminus" unicode="&#xb1;" horiz-adv-x="1183" 
d="M1024 854q37 0 57.5 -20.5t20.5 -57.5v-53q0 -37 -20.5 -57.5t-57.5 -20.5h-317v-313q0 -78 -78 -78h-74q-78 0 -78 78v313h-317q-37 0 -57.5 20.5t-20.5 57.5v53q0 37 20.5 57.5t57.5 20.5h317v307q0 37 20.5 57.5t57.5 20.5h76q37 0 57.5 -20t20.5 -58v-307h315z
M1024 137q78 0 78 -78v-51q0 -80 -78 -80h-862q-78 0 -78 80v51q0 78 78 78h862z" />
    <glyph glyph-name="acute" unicode="&#xb4;" horiz-adv-x="673" 
d="M203 1206l-27 47q-34 50 29 93l315 204q58 42 92 -10l50 -90q36 -58 -27 -90l-344 -162q-63 -29 -88 8z" />
    <glyph glyph-name="paragraph" unicode="&#xb6;" horiz-adv-x="1441" 
d="M760 -342q-38 0 -59 21t-21 59v688h-100q-111 0 -204.5 27t-166.5 81t-114.5 143.5t-41.5 205.5q0 93 27 168.5t75 127t115 86.5t144 50.5t166 15.5h716q74 0 74 -74v-36q0 -35 -19.5 -54.5t-54.5 -19.5h-411v-1409q0 -80 -78 -80h-47zM1118 -342q-38 0 -59 21t-21 59
v1227q0 77 80 77h47q78 0 78 -77v-1227q0 -80 -78 -80h-47z" />
    <glyph glyph-name="periodcentered" unicode="&#xb7;" horiz-adv-x="567" 
d="M285 391q-78 0 -133.5 56t-55.5 133q0 78 55.5 133t133.5 55q77 0 132.5 -55t55.5 -133q0 -77 -56 -133t-132 -56z" />
    <glyph glyph-name="cedilla" unicode="&#xb8;" horiz-adv-x="768" 
d="M397 -106q121 6 194 -48t73 -155q0 -108 -82 -176t-215 -68q-134 0 -240 61q-69 37 -31 99l8 12q19 32 43 36.5t50 -11.5q73 -41 145 -41q58 0 91.5 24t33.5 66q0 60 -58.5 82.5t-152.5 3.5q-25 -8 -39.5 -1t-7.5 34q14 43 37.5 132t25.5 97v35l160 2v-37z" />
    <glyph glyph-name="ordmasculine" unicode="&#xba;" horiz-adv-x="827" 
d="M414 698q-151 0 -247.5 92.5t-96.5 237.5q0 143 97 235.5t247 92.5t247 -92.5t97 -235.5q0 -146 -97 -238t-247 -92zM414 860q69 0 114 46.5t45 121.5q0 73 -45 119.5t-114 46.5t-114.5 -46.5t-45.5 -119.5q0 -74 45 -121t115 -47z" />
    <glyph glyph-name="guillemotright" unicode="&#xbb;" horiz-adv-x="1091" 
d="M549 666q47 -52 4 -101l-279 -313q-22 -24 -52.5 -28t-63.5 20l-29 26q-54 48 -4 109l201 235l-201 234q-49 60 4 106l29 27q33 26 63.5 21.5t52.5 -29.5zM997 666q47 -52 4 -101l-278 -313q-22 -24 -53 -28t-64 20l-28 26q-54 49 -5 109l201 235l-201 234q-49 60 5 106
l28 27q33 26 64 21.5t53 -29.5z" />
    <glyph glyph-name="onequarter" unicode="&#xbc;" horiz-adv-x="1566" 
d="M246 616v533h-133q-30 0 -45 16t-5 47l19 62q15 57 70 57h262q57 0 57 -57v-658q0 -27 -15 -42t-42 -15h-111q-27 0 -42 15t-15 42zM1309 1331q40 0 55 -22t-8 -56l-877 -1173q-30 -41 -56 -60.5t-61 -19.5h-81q-40 0 -56 22.5t8 57.5l877 1173q31 40 56.5 59t60.5 19h82
zM1423 299q58 0 58 -55v-39q0 -55 -58 -55h-37v-93q0 -57 -57 -57h-88q-57 0 -57 57v93h-299q-56 0 -56 53v28q0 36 37 86l301 406q25 32 44.5 44.5t54.5 12.5h63q57 0 57 -57v-424h37zM1044 299h150v213z" />
    <glyph glyph-name="onehalf" unicode="&#xbd;" horiz-adv-x="1748" 
d="M266 616v533h-133q-30 0 -44.5 16t-4.5 47l18 62q15 57 70 57h262q58 0 58 -57v-658q0 -27 -15.5 -42t-42.5 -15h-110q-27 0 -42.5 15t-15.5 42zM1341 1331q40 0 55.5 -22t-7.5 -56l-877 -1173q-30 -41 -56 -60.5t-61 -19.5h-82q-40 0 -55.5 22.5t8.5 57.5l877 1173
q31 40 56.5 59t60.5 19h81zM1618 174q57 0 57 -57v-60q0 -57 -57 -57h-502q-25 0 -39 14t-14 39v39q0 23 13 40.5t40 39.5q35 30 113 94t106 92q50 50 75.5 85.5t25.5 68.5q0 43 -29 68.5t-76 25.5q-74 0 -153 -65q-57 -44 -101 12l-14 16q-21 29 -17 50t31 45q53 50 129 81
t150 31q123 0 204.5 -64.5t81.5 -176.5q0 -65 -30.5 -121.5t-104.5 -124.5q-21 -18 -70 -58t-69 -57h250z" />
    <glyph glyph-name="threequarters" unicode="&#xbe;" horiz-adv-x="1675" 
d="M664 780q0 -103 -84.5 -168t-221.5 -65q-76 0 -151.5 29.5t-122.5 78.5q-24 24 -24 45t26 50l12 14q17 17 33 19.5t28.5 -3.5t30.5 -20q61 -55 160 -55q50 0 82.5 26t32.5 68q0 48 -38.5 76t-100.5 28h-23q-51 0 -51 49v27q0 49 51 49h35q51 0 82 25t31 65
q0 39 -28.5 61.5t-78.5 22.5q-68 0 -125 -33q-25 -17 -48 -14.5t-42 31.5l-8 12q-21 32 -16 52t34 40q97 66 223 66q122 0 196.5 -59t74.5 -156q0 -107 -98 -168q61 -30 95 -79.5t34 -113.5zM1434 1331q40 0 55 -22t-8 -56l-877 -1173q-30 -41 -56 -60.5t-61 -19.5h-81
q-40 0 -56 22.5t8 57.5l877 1173q31 40 56.5 59t60.5 19h82zM1538 299q57 0 57 -55v-39q0 -55 -57 -55h-37v-93q0 -57 -57 -57h-88q-58 0 -58 57v93h-299q-55 0 -55 53v28q0 36 37 86l301 406q25 32 44 44.5t54 12.5h64q57 0 57 -57v-424h37zM1159 299h150v213z" />
    <glyph glyph-name="questiondown" unicode="&#xbf;" horiz-adv-x="1017" 
d="M522 723q-67 0 -115.5 48t-48.5 114q0 65 48.5 112t115.5 47q66 0 114 -47t48 -112q0 -66 -48 -114t-114 -48zM518 -338q-197 0 -320.5 97.5t-123.5 252.5q0 44 13.5 87.5t30 74.5t48 69.5t51 57.5t57 54t48.5 46q75 70 75 148v18q0 72 80 72h82q80 0 80 -72v-16
q0 -67 -28.5 -122.5t-86.5 -111.5q-15 -15 -47 -43.5t-54 -50t-46 -50t-36.5 -59.5t-12.5 -63q0 -74 57.5 -120t153.5 -46q67 0 130 41.5t89 106.5q19 35 43 45t63 -4l62 -25q69 -25 37 -104q-44 -121 -167 -202t-278 -81z" />
    <glyph glyph-name="Agrave" unicode="&#xc0;" horiz-adv-x="1417" 
d="M571 1630q-46 20 -56 40.5t13 62.5l45 75q22 35 43 40.5t70 -21.5l315 -199q34 -21 41 -43t-14 -57l-18 -31q-19 -28 -41.5 -31.5t-63.5 13.5zM1378 80q16 -38 1 -59t-56 -21h-160q-15 0 -26.5 4.5t-18 8t-15.5 18.5t-11 20t-13 29l-71 172h-607l-73 -172
q-10 -24 -15 -34.5t-14.5 -23.5t-22.5 -17.5t-32 -4.5h-150q-40 0 -55 21t2 59l563 1194q32 69 96 69h19q66 0 98 -69zM487 451h437l-215 516z" />
    <glyph glyph-name="Aacute" unicode="&#xc1;" horiz-adv-x="1417" 
d="M469 1497l-20 31q-20 35 -13 57t41 43l316 199q47 27 68.5 21.5t41.5 -40.5l45 -75q23 -42 13.5 -62.5t-54.5 -40.5l-336 -151q-40 -17 -62.5 -13.5t-39.5 31.5zM1378 80q16 -38 1 -59t-56 -21h-160q-15 0 -26.5 4.5t-18 8t-15.5 18.5t-11 20t-13 29l-71 172h-607
l-73 -172q-10 -24 -15 -34.5t-14.5 -23.5t-22.5 -17.5t-32 -4.5h-150q-40 0 -55 21t2 59l563 1194q32 69 96 69h19q66 0 98 -69zM487 451h437l-215 516z" />
    <glyph glyph-name="Acircumflex" unicode="&#xc2;" horiz-adv-x="1417" 
d="M375 1497l-21 31q-36 59 37 104l275 166q29 15 46 14.5t44 -14.5l274 -166q73 -45 37 -104l-20 -31q-19 -31 -44.5 -34.5t-68.5 18.5l-223 116l-224 -116q-43 -22 -68 -18.5t-44 34.5zM1378 80q16 -38 1 -59t-56 -21h-160q-15 0 -26.5 4.5t-18 8t-15.5 18.5t-11 20
t-13 29l-71 172h-607l-73 -172q-10 -24 -15 -34.5t-14.5 -23.5t-22.5 -17.5t-32 -4.5h-150q-40 0 -55 21t2 59l563 1194q32 69 96 69h19q66 0 98 -69zM487 451h437l-215 516z" />
    <glyph glyph-name="Atilde" unicode="&#xc3;" horiz-adv-x="1417" 
d="M383 1464q-72 0 -72 64q0 126 64 199t160 73q53 0 104.5 -21t86 -45.5t74.5 -45.5t72 -21q27 0 43.5 19t16.5 51q0 65 74 65h38q72 0 72 -65q0 -126 -63.5 -198.5t-159.5 -72.5q-57 0 -110.5 20.5t-86.5 45t-70 45t-65 20.5q-62 0 -65 -69q-5 -34 -21.5 -49t-50.5 -15
h-41zM1378 80q16 -38 1 -59t-56 -21h-160q-15 0 -26.5 4.5t-18 8t-15.5 18.5t-11 20t-13 29l-71 172h-607l-73 -172q-10 -24 -15 -34.5t-14.5 -23.5t-22.5 -17.5t-32 -4.5h-150q-40 0 -55 21t2 59l563 1194q32 69 96 69h19q66 0 98 -69zM487 451h437l-215 516z" />
    <glyph glyph-name="Adieresis" unicode="&#xc4;" horiz-adv-x="1417" 
d="M483 1483q-69 0 -119.5 50t-50.5 118q0 69 50.5 119.5t119.5 50.5t119.5 -50.5t50.5 -119.5q0 -68 -51 -118t-119 -50zM932 1483q-68 0 -118 50.5t-50 117.5q0 69 50 119.5t118 50.5q69 0 119.5 -50.5t50.5 -119.5t-50.5 -118.5t-119.5 -49.5zM1378 80q16 -38 1 -59
t-56 -21h-160q-15 0 -26.5 4.5t-18 8t-15.5 18.5t-11 20t-13 29l-71 172h-607l-73 -172q-10 -24 -15 -34.5t-14.5 -23.5t-22.5 -17.5t-32 -4.5h-150q-40 0 -55 21t2 59l563 1194q32 69 96 69h19q66 0 98 -69zM487 451h437l-215 516z" />
    <glyph glyph-name="Aring" unicode="&#xc5;" horiz-adv-x="1417" 
d="M711 1462q-99 0 -169.5 69t-70.5 167t70.5 167.5t169.5 69.5t170 -69.5t71 -167.5t-71 -167t-170 -69zM711 1786q-34 0 -60 -26t-26 -62q0 -35 26 -61.5t60 -26.5q35 0 60.5 26.5t25.5 61.5q0 37 -25.5 62.5t-60.5 25.5zM1378 80q16 -38 1 -59t-56 -21h-160
q-15 0 -26.5 4.5t-18 8t-15.5 18.5t-11 20t-13 29l-71 172h-607l-73 -172q-10 -24 -15 -34.5t-14.5 -23.5t-22.5 -17.5t-32 -4.5h-150q-40 0 -55 21t2 59l563 1194q32 69 96 69h19q66 0 98 -69zM487 451h437l-215 516z" />
    <glyph glyph-name="AE" unicode="&#xc6;" horiz-adv-x="1996" 
d="M1839 229q39 0 60.5 -19.5t21.5 -57.5v-72q0 -38 -22 -59t-60 -21h-790q-38 0 -59 22t-21 60v170h-570l-114 -172q-27 -43 -49 -61.5t-58 -18.5h-127q-42 0 -59.5 21.5t4.5 58.5l803 1175q26 36 64 56t77 20h897q80 0 80 -78v-71q0 -38 -21 -59t-59 -21h-592v-324h445
q79 0 79 -78v-61q0 -38 -20.5 -59t-58.5 -21h-445v-330h594zM530 451h439v661z" />
    <glyph glyph-name="Ccedilla" unicode="&#xc7;" horiz-adv-x="1382" 
d="M1298 299q29 -25 31 -55t-26 -56q-181 -190 -449 -211l-18 -71q120 6 193 -48t73 -155q0 -108 -82 -176t-213 -68t-242 62q-68 38 -28 98l8 12q19 32 42 36.5t48 -11.5q73 -41 145 -41q59 0 93 24t34 66q0 60 -58.5 82.5t-152.5 3.5q-27 -8 -41 -1t-6 34q17 59 43 158
q-266 33 -440 224t-174 460q0 194 94.5 352.5t258.5 248t362 89.5q151 0 283 -55.5t227 -155.5q28 -28 26 -58t-31 -53l-73 -63q-55 -43 -113 6q-135 129 -317 129q-185 0 -310 -125t-125 -315t125 -315.5t310 -125.5t317 129q58 52 113 6z" />
    <glyph glyph-name="Egrave" unicode="&#xc8;" horiz-adv-x="1187" 
d="M879 1497q-19 -28 -41.5 -31.5t-63.5 13.5l-334 151q-46 20 -56 40.5t13 62.5l45 75q22 35 43 40.5t70 -21.5l315 -199q34 -21 41 -43t-14 -57zM242 0q-38 0 -60 22t-22 60v1169q0 38 22 59t60 21h786q39 0 60.5 -20t21.5 -58v-71q0 -38 -22 -59t-60 -21h-592v-324h445
q39 0 60.5 -20t21.5 -58v-61q0 -38 -22 -59t-60 -21h-445v-330h596q80 0 80 -77v-72q0 -38 -21 -59t-59 -21h-790z" />
    <glyph glyph-name="Eacute" unicode="&#xc9;" horiz-adv-x="1187" 
d="M408 1497l-21 31q-20 35 -12.5 57t41.5 43l315 199q47 27 69 21.5t42 -40.5l45 -75q23 -42 13.5 -62.5t-54.5 -40.5l-336 -151q-40 -17 -62.5 -13.5t-39.5 31.5zM242 0q-38 0 -60 22t-22 60v1169q0 38 22 59t60 21h786q39 0 60.5 -20t21.5 -58v-71q0 -38 -22 -59t-60 -21
h-592v-324h445q39 0 60.5 -20t21.5 -58v-61q0 -38 -22 -59t-60 -21h-445v-330h596q80 0 80 -77v-72q0 -38 -21 -59t-59 -21h-790z" />
    <glyph glyph-name="Ecircumflex" unicode="&#xca;" horiz-adv-x="1187" 
d="M301 1497l-20 31q-36 60 36 104l275 166q29 15 46 14.5t44 -14.5l274 -166q73 -45 37 -104l-20 -31q-19 -31 -44.5 -34.5t-68.5 18.5l-223 116l-223 -116q-43 -22 -68.5 -18.5t-44.5 34.5zM1032 229q80 0 80 -77v-72q0 -38 -21 -59t-59 -21h-790q-38 0 -60 22t-22 60
v1169q0 38 22 59t60 21h786q39 0 60.5 -20t21.5 -58v-71q0 -38 -22 -59t-60 -21h-592v-324h445q39 0 60.5 -20t21.5 -58v-61q0 -38 -22 -59t-60 -21h-445v-330h596z" />
    <glyph glyph-name="Edieresis" unicode="&#xcb;" horiz-adv-x="1187" 
d="M410 1483q-69 0 -119.5 50t-50.5 118q0 69 50.5 119.5t119.5 50.5t119.5 -50.5t50.5 -119.5q0 -68 -51 -118t-119 -50zM858 1483q-68 0 -118 50.5t-50 117.5q0 69 50 119.5t118 50.5q69 0 119.5 -50.5t50.5 -119.5t-50.5 -118.5t-119.5 -49.5zM242 0q-38 0 -60 22t-22 60
v1169q0 38 22 59t60 21h786q39 0 60.5 -20t21.5 -58v-71q0 -38 -22 -59t-60 -21h-592v-324h445q39 0 60.5 -20t21.5 -58v-61q0 -38 -22 -59t-60 -21h-445v-330h596q80 0 80 -77v-72q0 -38 -21 -59t-59 -21h-790z" />
    <glyph glyph-name="Igrave" unicode="&#xcc;" horiz-adv-x="595" 
d="M559 1499q-19 -28 -41 -31.5t-63 13.5l-334 151q-46 20 -56 40.5t13 62.5l45 75q22 35 43 40.5t70 -21.5l315 -199q34 -21 41 -43t-14 -57zM240 0q-38 0 -59 22t-21 60v1169q0 38 21 59t59 21h118q78 0 78 -80v-1169q0 -39 -20 -60.5t-58 -21.5h-118z" />
    <glyph glyph-name="Iacute" unicode="&#xcd;" horiz-adv-x="595" 
d="M55 1497l-20 31q-20 35 -13 57t41 43l316 199q47 27 68.5 21.5t41.5 -40.5l46 -75q23 -42 13.5 -62.5t-54.5 -40.5l-336 -151q-40 -17 -63 -13.5t-40 31.5zM240 0q-38 0 -59 22t-21 60v1169q0 38 21 59t59 21h118q78 0 78 -80v-1169q0 -39 -20 -60.5t-58 -21.5h-118z" />
    <glyph glyph-name="Icircumflex" unicode="&#xce;" horiz-adv-x="595" 
d="M618 1632q73 -45 37 -104l-20 -31q-19 -31 -44.5 -34.5t-68.5 18.5l-223 116l-223 -116q-43 -22 -69.5 -18.5t-45.5 34.5l-18 31q-20 35 -10 58t47 46l274 166q29 15 46 14.5t44 -14.5zM358 1331q78 0 78 -80v-1169q0 -39 -20 -60.5t-58 -21.5h-118q-38 0 -59 22t-21 60
v1169q0 38 21 59t59 21h118z" />
    <glyph glyph-name="Idieresis" unicode="&#xcf;" horiz-adv-x="595" 
d="M72 1483q-69 0 -119.5 50t-50.5 118q0 69 50.5 119.5t119.5 50.5t119.5 -50.5t50.5 -119.5q0 -68 -51 -118t-119 -50zM520 1483q-68 0 -118 50.5t-50 117.5q0 69 50 119.5t118 50.5q69 0 119.5 -50.5t50.5 -119.5t-50.5 -118.5t-119.5 -49.5zM240 0q-38 0 -59 22t-21 60
v1169q0 38 21 59t59 21h118q78 0 78 -80v-1169q0 -39 -20 -60.5t-58 -21.5h-118z" />
    <glyph glyph-name="Eth" unicode="&#xd0;" horiz-adv-x="1527" 
d="M748 1331q318 0 508 -182t190 -481q0 -302 -190 -485t-508 -183h-484q-38 0 -60 22t-22 60v489h-59q-38 0 -60 21t-22 59v29q0 38 22 59t60 21h59v491q0 38 22 59t60 21h484zM739 229q192 0 308 118.5t116 318.5q0 201 -116 318.5t-308 117.5h-280v-342h276q38 0 59 -21
t21 -59v-29q0 -38 -21 -59t-59 -21h-276v-342h280z" />
    <glyph glyph-name="Ntilde" unicode="&#xd1;" horiz-adv-x="1482" 
d="M420 1464q-72 0 -72 64q0 126 65 199t162 73q53 0 106 -21t88.5 -45.5t76.5 -45.5t74 -21q27 0 44 19t17 51q0 65 74 65h41q73 0 73 -65q0 -126 -65.5 -198.5t-161.5 -72.5q-58 0 -113 20.5t-89 45t-72 45t-66 20.5q-61 0 -67 -69q-3 -34 -20 -49t-54 -15h-41zM1243 1331
q38 0 59 -21t21 -59v-1175q0 -42 -26.5 -64t-65.5 -22h-17q-34 0 -61.5 18t-58.5 55l-660 787v-768q0 -39 -20 -60.5t-58 -21.5h-116q-38 0 -59 22t-21 60v1173q0 43 26 64.5t66 21.5h16q60 0 121 -73l660 -785v768q0 80 77 80h117z" />
    <glyph glyph-name="Ograve" unicode="&#xd2;" horiz-adv-x="1601" 
d="M1044 1497q-19 -28 -41 -31.5t-63 13.5l-334 151q-46 20 -56 40.5t13 62.5l45 75q22 35 43 40.5t70 -21.5l315 -199q34 -21 41 -43t-14 -57zM801 -25q-151 0 -285.5 53t-230.5 144t-151.5 219.5t-55.5 274.5q0 194 94.5 352.5t260.5 248t368 89.5q152 0 286.5 -52.5
t230 -144t151 -219.5t55.5 -274q0 -145 -55.5 -273.5t-151 -220t-230 -144.5t-286.5 -53zM801 225q123 0 224 56.5t159.5 157.5t58.5 227q0 192 -127 316t-315 124t-314.5 -124t-126.5 -316q0 -191 127 -316t314 -125z" />
    <glyph glyph-name="Oacute" unicode="&#xd3;" horiz-adv-x="1601" 
d="M573 1497l-20 31q-20 35 -12.5 57t41.5 43l315 199q47 27 69 21.5t42 -40.5l45 -75q23 -42 13.5 -62.5t-54.5 -40.5l-336 -151q-40 -17 -63 -13.5t-40 31.5zM801 -25q-151 0 -285.5 53t-230.5 144t-151.5 219.5t-55.5 274.5q0 194 94.5 352.5t260.5 248t368 89.5
q152 0 286.5 -52.5t230 -144t151 -219.5t55.5 -274q0 -145 -55.5 -273.5t-151 -220t-230 -144.5t-286.5 -53zM801 225q123 0 224 56.5t159.5 157.5t58.5 227q0 192 -127 316t-315 124t-314.5 -124t-126.5 -316q0 -191 127 -316t314 -125z" />
    <glyph glyph-name="Ocircumflex" unicode="&#xd4;" horiz-adv-x="1601" 
d="M467 1497l-21 31q-36 59 37 104l275 166q29 15 46 14.5t44 -14.5l274 -166q73 -45 37 -104l-20 -31q-19 -31 -44.5 -34.5t-68.5 18.5l-223 116l-223 -116q-43 -22 -68.5 -18.5t-44.5 34.5zM801 1356q152 0 286.5 -52.5t230 -144t151 -219.5t55.5 -274
q0 -145 -55.5 -273.5t-151 -220t-230 -144.5t-286.5 -53q-151 0 -285.5 53t-230.5 144t-151.5 219.5t-55.5 274.5q0 194 94.5 352.5t260.5 248t368 89.5zM801 225q123 0 224 56.5t159.5 157.5t58.5 227q0 192 -127 316t-315 124t-314.5 -124t-126.5 -316q0 -191 127 -316
t314 -125z" />
    <glyph glyph-name="Otilde" unicode="&#xd5;" horiz-adv-x="1601" 
d="M469 1464q-72 0 -72 64q0 126 65 199t163 73q53 0 106 -21t88 -45.5t76 -45.5t74 -21q27 0 44 19t17 51q0 65 74 65h41q74 0 74 -65q0 -126 -65.5 -198.5t-162.5 -72.5q-58 0 -113 20.5t-89 45t-72 45t-66 20.5q-61 0 -67 -69q-3 -34 -20 -49t-54 -15h-41zM801 -25
q-151 0 -285.5 53t-230.5 144t-151.5 219.5t-55.5 274.5q0 194 94.5 352.5t260.5 248t368 89.5q152 0 286.5 -52.5t230 -144t151 -219.5t55.5 -274q0 -145 -55.5 -273.5t-151 -220t-230 -144.5t-286.5 -53zM801 225q123 0 224 56.5t159.5 157.5t58.5 227q0 192 -127 316
t-315 124t-314.5 -124t-126.5 -316q0 -191 127 -316t314 -125z" />
    <glyph glyph-name="Odieresis" unicode="&#xd6;" horiz-adv-x="1601" 
d="M575 1483q-69 0 -119 50t-50 118q0 69 50 119.5t119 50.5t119.5 -50.5t50.5 -119.5q0 -68 -51 -118t-119 -50zM1024 1483q-68 0 -118 50.5t-50 117.5q0 69 50 119.5t118 50.5q69 0 119.5 -50.5t50.5 -119.5t-50.5 -118.5t-119.5 -49.5zM801 -25q-151 0 -285.5 53
t-230.5 144t-151.5 219.5t-55.5 274.5q0 194 94.5 352.5t260.5 248t368 89.5q152 0 286.5 -52.5t230 -144t151 -219.5t55.5 -274q0 -145 -55.5 -273.5t-151 -220t-230 -144.5t-286.5 -53zM801 225q123 0 224 56.5t159.5 157.5t58.5 227q0 192 -127 316t-315 124t-314.5 -124
t-126.5 -316q0 -191 127 -316t314 -125z" />
    <glyph glyph-name="multiply" unicode="&#xd7;" horiz-adv-x="1163" 
d="M745 676l297 -297q55 -59 0 -111l-55 -55q-55 -55 -110 0l-299 297l-297 -297q-55 -55 -111 0l-49 49q-55 56 0 111l299 297l-299 297q-55 55 0 110l57 56q53 56 109 0l299 -297l297 294q55 58 110 0l49 -49q57 -54 0 -108z" />
    <glyph glyph-name="Oslash" unicode="&#xd8;" horiz-adv-x="1601" 
d="M1286 1188q112 -96 175 -230.5t63 -291.5q0 -145 -55.5 -273.5t-151 -220t-230 -144.5t-286.5 -53q-151 0 -287 54l-41 -64q-52 -78 -129 -78h-100q-39 0 -54 26t7 60l116 174q-111 96 -173 230t-62 289q0 194 94.5 352.5t260.5 248t368 89.5q144 0 280 -49l56 84
q51 77 131 77h100q38 0 53 -26t-6 -60zM360 666q0 -167 103 -291l473 712q-68 19 -135 19q-188 0 -314.5 -124t-126.5 -316zM801 225q123 0 224 56.5t159.5 157.5t58.5 227q0 174 -108 295l-476 -715q79 -21 142 -21z" />
    <glyph glyph-name="Ugrave" unicode="&#xd9;" horiz-adv-x="1484" 
d="M985 1497q-19 -28 -41 -31.5t-63 13.5l-334 151q-46 20 -56 40.5t13 62.5l45 75q22 35 43 40.5t70 -21.5l315 -199q34 -21 41 -43t-14 -57zM745 -25q-271 0 -437.5 164.5t-166.5 433.5v678q0 38 21 59t59 21h119q78 0 78 -80v-688q0 -153 90 -246.5t237 -93.5
q146 0 236 94t90 246v688q0 38 21 59t59 21h113q38 0 58.5 -21t20.5 -59v-678q0 -269 -164.5 -433.5t-433.5 -164.5z" />
    <glyph glyph-name="Uacute" unicode="&#xda;" horiz-adv-x="1484" 
d="M514 1497l-20 31q-20 35 -13 57t41 43l316 199q47 27 68.5 21.5t41.5 -40.5l45 -75q23 -42 13.5 -62.5t-54.5 -40.5l-336 -151q-40 -17 -62.5 -13.5t-39.5 31.5zM745 -25q-271 0 -437.5 164.5t-166.5 433.5v678q0 38 21 59t59 21h119q78 0 78 -80v-688q0 -153 90 -246.5
t237 -93.5q146 0 236 94t90 246v688q0 38 21 59t59 21h113q38 0 58.5 -21t20.5 -59v-678q0 -269 -164.5 -433.5t-433.5 -164.5z" />
    <glyph glyph-name="Ucircumflex" unicode="&#xdb;" horiz-adv-x="1484" 
d="M408 1497l-21 31q-36 59 37 104l274 166q29 15 46 14.5t44 -14.5l275 -166q73 -45 37 -104l-21 -31q-19 -31 -44 -34.5t-68 18.5l-224 116l-223 -116q-43 -22 -68 -18.5t-44 34.5zM1264 1331q38 0 58.5 -21t20.5 -59v-678q0 -269 -164.5 -433.5t-433.5 -164.5
q-271 0 -437.5 164.5t-166.5 433.5v678q0 38 21 59t59 21h119q78 0 78 -80v-688q0 -153 90 -246.5t237 -93.5q146 0 236 94t90 246v688q0 38 21 59t59 21h113z" />
    <glyph glyph-name="Udieresis" unicode="&#xdc;" horiz-adv-x="1484" 
d="M516 1483q-69 0 -119.5 50t-50.5 118q0 69 50.5 119.5t119.5 50.5t119.5 -50.5t50.5 -119.5q0 -68 -51 -118t-119 -50zM965 1483q-67 0 -117.5 50.5t-50.5 117.5q0 69 50 119.5t118 50.5q69 0 119.5 -50.5t50.5 -119.5t-50.5 -118.5t-119.5 -49.5zM745 -25
q-271 0 -437.5 164.5t-166.5 433.5v678q0 38 21 59t59 21h119q78 0 78 -80v-688q0 -153 90 -246.5t237 -93.5q146 0 236 94t90 246v688q0 38 21 59t59 21h113q38 0 58.5 -21t20.5 -59v-678q0 -269 -164.5 -433.5t-433.5 -164.5z" />
    <glyph glyph-name="Yacute" unicode="&#xdd;" horiz-adv-x="1327" 
d="M440 1497l-20 31q-20 35 -12.5 57t41.5 43l315 199q47 27 68.5 21.5t41.5 -40.5l46 -75q23 -42 13.5 -62.5t-54.5 -40.5l-336 -151q-40 -17 -63 -13.5t-40 31.5zM1212 1331q39 0 56.5 -19.5t-0.5 -54.5l-463 -763v-412q0 -39 -20 -60.5t-58 -21.5h-119q-38 0 -59 22
t-21 60v410l-473 765q-20 34 -2 54t58 20h129q37 0 64 -18.5t52 -59.5l314 -524l305 524q44 78 117 78h120z" />
    <glyph glyph-name="Thorn" unicode="&#xde;" horiz-adv-x="1288" 
d="M240 0q-38 0 -59 22t-21 60v1169q0 38 21 59t59 21h118q78 0 78 -80v-151h279q242 0 373 -113t131 -315q0 -201 -131 -315t-373 -111h-279v-164q0 -39 -20 -60.5t-58 -21.5h-118zM436 461h293q96 0 151.5 54t55.5 151t-57 150.5t-150 53.5h-293v-409z" />
    <glyph glyph-name="germandbls" unicode="&#xdf;" horiz-adv-x="1265" 
d="M750 -27q-131 0 -205 39q-36 18 -48 45.5t5 63.5l28 59q35 65 105 37q40 -18 92 -18q93 0 152 60t59 161q0 108 -70 171.5t-184 63.5h-76q-26 0 -40.5 15t-14.5 41v65q0 55 55 55h29q84 0 137 51.5t53 129.5q0 80 -56.5 130t-145.5 50q-95 0 -155 -66t-60 -172v-874
q0 -37 -20 -58.5t-56 -21.5h-119q-37 0 -57.5 21.5t-20.5 58.5v846q0 226 134.5 358.5t353.5 132.5q202 0 331 -109t129 -278q0 -177 -141 -274q120 -41 186 -138t66 -229q0 -186 -126.5 -301t-319.5 -115z" />
    <glyph glyph-name="agrave" unicode="&#xe0;" horiz-adv-x="1150" 
d="M375 1358q-63 32 -27 90l49 90q34 52 92 10l316 -205q62 -43 29 -92l-27 -47q-25 -37 -88 -8zM561 1051q79 0 147.5 -15.5t127 -49t100 -83t65 -121.5t23.5 -161v-541q0 -38 -19.5 -59t-56.5 -21h-65q-37 0 -57.5 21.5t-20.5 58.5v35q-145 -142 -338 -142
q-180 0 -290.5 91t-110.5 239q0 157 120.5 252.5t317.5 95.5q133 0 266 -55v55q0 89 -60.5 141t-166.5 52q-144 0 -262 -80q-63 -38 -103 29l-18 32q-43 73 22 113q168 113 379 113zM526 160q101 0 175.5 54t74.5 128v76q-120 59 -235 59q-97 0 -156 -45t-59 -119
q0 -69 54.5 -111t145.5 -42z" />
    <glyph glyph-name="aacute" unicode="&#xe1;" horiz-adv-x="1150" 
d="M350 1204l-26 47q-33 49 28 92l316 205q58 42 92 -10l49 -90q36 -58 -27 -90l-344 -162q-63 -29 -88 8zM561 1051q79 0 147.5 -15.5t127 -49t100 -83t65 -121.5t23.5 -161v-541q0 -38 -19.5 -59t-56.5 -21h-65q-37 0 -57.5 21.5t-20.5 58.5v35q-145 -142 -338 -142
q-180 0 -290.5 91t-110.5 239q0 157 120.5 252.5t317.5 95.5q133 0 266 -55v55q0 89 -60.5 141t-166.5 52q-144 0 -262 -80q-63 -38 -103 29l-18 32q-43 73 22 113q168 113 379 113zM526 160q101 0 175.5 54t74.5 128v76q-120 59 -235 59q-97 0 -156 -45t-59 -119
q0 -69 54.5 -111t145.5 -42z" />
    <glyph glyph-name="acircumflex" unicode="&#xe2;" horiz-adv-x="1150" 
d="M258 1217l-22 34q-41 58 30 103l264 157q26 15 45.5 15t45.5 -15l264 -157q71 -45 30 -103l-22 -34q-20 -31 -42.5 -35t-62.5 16l-213 113l-213 -113q-40 -20 -62 -16t-42 35zM561 1051q79 0 147.5 -15.5t127 -49t100 -83t65 -121.5t23.5 -161v-541q0 -38 -19.5 -59
t-56.5 -21h-65q-37 0 -57.5 21.5t-20.5 58.5v35q-145 -142 -338 -142q-180 0 -290.5 91t-110.5 239q0 157 120.5 252.5t317.5 95.5q133 0 266 -55v55q0 89 -60.5 141t-166.5 52q-144 0 -262 -80q-63 -38 -103 29l-18 32q-43 73 22 113q168 113 379 113zM526 160
q101 0 175.5 54t74.5 128v76q-120 59 -235 59q-97 0 -156 -45t-59 -119q0 -69 54.5 -111t145.5 -42z" />
    <glyph glyph-name="atilde" unicode="&#xe3;" horiz-adv-x="1150" 
d="M256 1182q-70 0 -70 53q0 117 57.5 184.5t147.5 67.5q60 0 124 -29.5t121 -58.5t99 -29q60 0 60 64q0 29 16 41t51 12h39q35 0 51.5 -12t16.5 -41q0 -117 -56 -184.5t-145 -67.5q-61 0 -127.5 29t-124 58t-96.5 29q-58 0 -58 -63q0 -53 -69 -53h-37zM561 1051
q79 0 147.5 -15.5t127 -49t100 -83t65 -121.5t23.5 -161v-541q0 -38 -19.5 -59t-56.5 -21h-65q-37 0 -57.5 21.5t-20.5 58.5v35q-145 -142 -338 -142q-180 0 -290.5 91t-110.5 239q0 157 120.5 252.5t317.5 95.5q133 0 266 -55v55q0 89 -60.5 141t-166.5 52q-144 0 -262 -80
q-63 -38 -103 29l-18 32q-43 73 22 113q168 113 379 113zM526 160q101 0 175.5 54t74.5 128v76q-120 59 -235 59q-97 0 -156 -45t-59 -119q0 -69 54.5 -111t145.5 -42z" />
    <glyph glyph-name="adieresis" unicode="&#xe4;" horiz-adv-x="1150" 
d="M358 1206q-70 0 -121 51t-51 121q0 72 50.5 122t121.5 50q72 0 122 -50t50 -122q0 -71 -50 -121.5t-122 -50.5zM803 1206q-72 0 -123 50.5t-51 121.5q0 72 51 122t123 50q71 0 121.5 -50t50.5 -122q0 -70 -50.5 -121t-121.5 -51zM561 1051q79 0 147.5 -15.5t127 -49
t100 -83t65 -121.5t23.5 -161v-541q0 -38 -19.5 -59t-56.5 -21h-65q-37 0 -57.5 21.5t-20.5 58.5v35q-145 -142 -338 -142q-180 0 -290.5 91t-110.5 239q0 157 120.5 252.5t317.5 95.5q133 0 266 -55v55q0 89 -60.5 141t-166.5 52q-144 0 -262 -80q-63 -38 -103 29l-18 32
q-43 73 22 113q168 113 379 113zM526 160q101 0 175.5 54t74.5 128v76q-120 59 -235 59q-97 0 -156 -45t-59 -119q0 -69 54.5 -111t145.5 -42z" />
    <glyph glyph-name="aring" unicode="&#xe5;" horiz-adv-x="1150" 
d="M580 1182q-104 0 -175 69t-71 168t71 168.5t175 69.5q102 0 173.5 -69.5t71.5 -168.5t-71.5 -168t-173.5 -69zM580 1503q-36 0 -60 -25t-24 -59t24 -58t60 -24t59 24t23 58q0 35 -23 59.5t-59 24.5zM561 1051q79 0 147.5 -15.5t127 -49t100 -83t65 -121.5t23.5 -161v-541
q0 -38 -19.5 -59t-56.5 -21h-65q-37 0 -57.5 21.5t-20.5 58.5v35q-145 -142 -338 -142q-180 0 -290.5 91t-110.5 239q0 157 120.5 252.5t317.5 95.5q133 0 266 -55v55q0 89 -60.5 141t-166.5 52q-144 0 -262 -80q-63 -38 -103 29l-18 32q-43 73 22 113q168 113 379 113z
M526 160q101 0 175.5 54t74.5 128v76q-120 59 -235 59q-97 0 -156 -45t-59 -119q0 -69 54.5 -111t145.5 -42z" />
    <glyph glyph-name="ae" unicode="&#xe6;" horiz-adv-x="1896" 
d="M467 -27q-180 0 -290.5 91t-110.5 239q0 157 120.5 252.5t317.5 95.5q125 0 268 -59v59q-1 90 -63 141.5t-168 51.5q-144 0 -262 -80q-63 -38 -103 29l-18 32q-42 71 24 117q168 109 373 109q256 0 375 -158q70 75 167.5 116.5t209.5 41.5q230 0 374 -144
q72 -70 111 -167.5t39 -204.5q0 -44 -19.5 -64t-64.5 -20h-709q12 -127 101 -199t213 -72q142 0 260 92q29 23 50.5 24t47.5 -24l49 -49q45 -45 0 -94q-74 -75 -194.5 -115.5t-237.5 -40.5q-132 0 -247.5 53t-188.5 148q-70 -92 -184 -146.5t-240 -54.5zM1040 618h525
q-15 97 -74 156q-70 76 -188 76q-107 0 -177.5 -63t-85.5 -169zM526 160q99 0 174.5 67.5t75.5 153.5v37q-120 59 -235 59q-96 0 -154.5 -45t-58.5 -119q0 -69 54.5 -111t143.5 -42z" />
    <glyph glyph-name="ccedilla" unicode="&#xe7;" horiz-adv-x="1097" 
d="M954 299l72 -72q47 -47 0 -94q-139 -139 -344 -158l-20 -84q121 6 193.5 -47.5t72.5 -154.5q0 -108 -82 -176t-213 -68q-133 0 -242 61q-69 39 -29 99l9 12q19 32 42 36.5t48 -11.5q73 -41 145 -41q59 0 93 24t34 66q0 60 -58.5 82.5t-152.5 3.5q-27 -8 -41 -1t-6 34
q20 77 47 172q-200 34 -325 180.5t-125 349.5q0 232 157 385.5t396 153.5q240 0 401 -158q48 -48 0 -96l-72 -72q-46 -43 -98 2q-95 88 -223 88q-127 0 -209 -86t-82 -217t80.5 -217t210.5 -86q125 0 223 88q52 48 98 2z" />
    <glyph glyph-name="egrave" unicode="&#xe8;" horiz-adv-x="1198" 
d="M416 1358q-63 32 -27 90l49 90q34 52 92 10l316 -205q61 -43 28 -92l-26 -47q-25 -37 -88 -8zM340 451q12 -126 101 -198.5t212 -72.5q142 0 260 92q29 23 51 24t48 -24l49 -49q45 -45 0 -94q-74 -75 -194.5 -115.5t-237.5 -40.5q-154 0 -280 65.5t-201.5 189.5
t-75.5 284q0 232 152.5 385.5t383.5 153.5q114 0 210.5 -38t164.5 -106q72 -70 111 -167.5t39 -204.5q0 -44 -19.5 -64t-64.5 -20h-709zM604 850q-105 0 -176 -63t-86 -169h524q-16 99 -73 156q-70 76 -189 76z" />
    <glyph glyph-name="eacute" unicode="&#xe9;" horiz-adv-x="1198" 
d="M391 1204l-26 47q-33 49 28 92l316 205q58 42 92 -10l49 -90q36 -58 -27 -90l-344 -162q-63 -29 -88 8zM340 451q12 -126 101 -198.5t212 -72.5q142 0 260 92q29 23 51 24t48 -24l49 -49q45 -45 0 -94q-74 -75 -194.5 -115.5t-237.5 -40.5q-154 0 -280 65.5t-201.5 189.5
t-75.5 284q0 232 152.5 385.5t383.5 153.5q114 0 210.5 -38t164.5 -106q72 -70 111 -167.5t39 -204.5q0 -44 -19.5 -64t-64.5 -20h-709zM604 850q-105 0 -176 -63t-86 -169h524q-16 99 -73 156q-70 76 -189 76z" />
    <glyph glyph-name="ecircumflex" unicode="&#xea;" horiz-adv-x="1198" 
d="M299 1217l-23 34q-41 58 31 103l264 157q26 15 45.5 15t45.5 -15l264 -157q71 -45 30 -103l-22 -34q-20 -31 -42.5 -35t-62.5 16l-213 113l-213 -113q-40 -20 -62 -16t-42 35zM340 451q12 -126 101 -198.5t212 -72.5q142 0 260 92q29 23 51 24t48 -24l49 -49
q45 -45 0 -94q-74 -75 -194.5 -115.5t-237.5 -40.5q-154 0 -280 65.5t-201.5 189.5t-75.5 284q0 232 152.5 385.5t383.5 153.5q114 0 210.5 -38t164.5 -106q72 -70 111 -167.5t39 -204.5q0 -44 -19.5 -64t-64.5 -20h-709zM604 850q-105 0 -176 -63t-86 -169h524
q-16 99 -73 156q-70 76 -189 76z" />
    <glyph glyph-name="edieresis" unicode="&#xeb;" horiz-adv-x="1198" 
d="M399 1206q-71 0 -121.5 51t-50.5 121q0 72 50.5 122t121.5 50q72 0 122 -50t50 -122q0 -71 -50 -121.5t-122 -50.5zM844 1206q-72 0 -123 50.5t-51 121.5q0 72 51 122t123 50q71 0 121.5 -50t50.5 -122q0 -70 -51 -121t-121 -51zM340 451q12 -126 101 -198.5t212 -72.5
q142 0 260 92q29 23 51 24t48 -24l49 -49q45 -45 0 -94q-74 -75 -194.5 -115.5t-237.5 -40.5q-154 0 -280 65.5t-201.5 189.5t-75.5 284q0 232 152.5 385.5t383.5 153.5q114 0 210.5 -38t164.5 -106q72 -70 111 -167.5t39 -204.5q0 -44 -19.5 -64t-64.5 -20h-709zM604 850
q-105 0 -176 -63t-86 -169h524q-16 99 -73 156q-70 76 -189 76z" />
    <glyph glyph-name="igrave" unicode="&#xec;" horiz-adv-x="546" 
d="M500 1204q-25 -37 -88 -8l-344 162q-63 32 -27 90l49 90q34 52 92 10l316 -205q61 -43 28 -92zM215 0q-37 0 -57.5 21.5t-20.5 58.5v876q0 37 20.5 57.5t57.5 20.5h119q37 0 56.5 -20.5t19.5 -57.5v-876q0 -37 -20 -58.5t-56 -21.5h-119z" />
    <glyph glyph-name="iacute" unicode="&#xed;" horiz-adv-x="546" 
d="M43 1204l-27 47q-33 49 29 92l315 205q59 43 93 -10l49 -90q36 -58 -27 -90l-344 -162q-63 -29 -88 8zM215 0q-37 0 -57.5 21.5t-20.5 58.5v876q0 37 20.5 57.5t57.5 20.5h119q37 0 56.5 -20.5t19.5 -57.5v-876q0 -37 -20 -58.5t-56 -21.5h-119z" />
    <glyph glyph-name="icircumflex" unicode="&#xee;" horiz-adv-x="546" 
d="M549 1354q62 -44 26 -103l-20 -34q-19 -31 -38 -35t-56 16l-191 113l-192 -113q-37 -20 -56 -16t-38 35l-21 34q-35 58 27 103l239 157q23 15 40 15t40 -15zM334 1034q37 0 56.5 -20.5t19.5 -57.5v-876q0 -37 -20 -58.5t-56 -21.5h-119q-37 0 -57.5 21.5t-20.5 58.5v876
q0 37 20.5 57.5t57.5 20.5h119z" />
    <glyph glyph-name="idieresis" unicode="&#xef;" horiz-adv-x="546" 
d="M51 1206q-72 0 -123 50.5t-51 121.5q0 72 51 122t123 50t122 -50t50 -122q0 -71 -50 -121.5t-122 -50.5zM496 1206q-72 0 -123 50.5t-51 121.5q0 72 51 122t123 50q71 0 121.5 -50t50.5 -122q0 -70 -51 -121t-121 -51zM215 0q-37 0 -57.5 21.5t-20.5 58.5v876
q0 37 20.5 57.5t57.5 20.5h119q37 0 56.5 -20.5t19.5 -57.5v-876q0 -37 -20 -58.5t-56 -21.5h-119z" />
    <glyph glyph-name="eth" unicode="&#xf0;" horiz-adv-x="1153" 
d="M776 1145q156 -186 231 -347.5t74 -324.5q-2 -216 -145 -358t-361 -142q-219 0 -361 137t-142 345t137 342.5t336 134.5q66 0 123 -14q-43 60 -121 145l-162 -59q-66 -25 -88 40l-8 19q-22 64 41 88l98 35l-74 71q-58 50 -4 97l84 69q19 18 37 20.5t30.5 -4.5t26.5 -22
q63 -63 138 -145l168 61q64 22 88 -41l6 -18q12 -31 1 -54t-42 -34zM578 188q110 0 180.5 76t70.5 191t-69.5 189.5t-181.5 74.5t-183 -74.5t-71 -189.5t71 -191t183 -76z" />
    <glyph glyph-name="ntilde" unicode="&#xf1;" horiz-adv-x="1243" 
d="M326 1182q-70 0 -70 53q0 117 57.5 184.5t147.5 67.5q60 0 124 -29.5t121 -58.5t99 -29q59 0 59 64q0 29 16.5 41t51.5 12h39q35 0 51 -12t16 -41q0 -117 -56 -184.5t-144 -67.5q-61 0 -128 29t-124.5 58t-96.5 29q-57 0 -57 -63q0 -53 -70 -53h-36zM696 1051
q190 0 306 -121t116 -318v-532q0 -37 -20 -58.5t-56 -21.5h-118q-37 0 -57.5 21.5t-20.5 58.5v512q0 102 -58 163.5t-157 61.5q-100 0 -161.5 -62t-61.5 -163v-512q0 -37 -20 -58.5t-56 -21.5h-119q-37 0 -57.5 21.5t-20.5 58.5v876q0 37 20.5 57.5t57.5 20.5h78
q37 0 57.5 -20.5t20.5 -57.5v-69q114 164 327 164z" />
    <glyph glyph-name="ograve" unicode="&#xf2;" horiz-adv-x="1259" 
d="M864 1204q-25 -37 -88 -8l-344 162q-62 32 -26 90l49 90q34 52 92 10l315 -205q62 -43 29 -92zM631 -27q-242 0 -401.5 154t-159.5 385t159.5 385t401.5 154t400.5 -154t158.5 -385t-158.5 -385t-400.5 -154zM631 211q126 0 207.5 85t81.5 216t-81.5 217t-207.5 86
t-208.5 -86t-82.5 -217t82 -216t209 -85z" />
    <glyph glyph-name="oacute" unicode="&#xf3;" horiz-adv-x="1259" 
d="M408 1204l-27 47q-33 49 29 92l315 205q58 42 92 -10l49 -90q36 -58 -26 -90l-344 -162q-63 -29 -88 8zM631 -27q-242 0 -401.5 154t-159.5 385t159.5 385t401.5 154t400.5 -154t158.5 -385t-158.5 -385t-400.5 -154zM631 211q126 0 207.5 85t81.5 216t-81.5 217
t-207.5 86t-208.5 -86t-82.5 -217t82 -216t209 -85z" />
    <glyph glyph-name="ocircumflex" unicode="&#xf4;" horiz-adv-x="1259" 
d="M315 1217l-22 34q-41 58 31 103l264 157q26 15 45 15t45 -15l264 -157q72 -45 31 -103l-23 -34q-20 -31 -42 -35t-62 16l-213 113l-213 -113q-40 -20 -62.5 -16t-42.5 35zM631 1051q242 0 400.5 -154t158.5 -385t-158.5 -385t-400.5 -154t-401.5 154t-159.5 385
t159.5 385t401.5 154zM631 211q126 0 207.5 85t81.5 216t-81.5 217t-207.5 86t-208.5 -86t-82.5 -217t82 -216t209 -85z" />
    <glyph glyph-name="otilde" unicode="&#xf5;" horiz-adv-x="1259" 
d="M313 1182q-69 0 -69 53q0 117 57.5 184.5t147.5 67.5q60 0 124 -29.5t121 -58.5t99 -29q59 0 59 64q0 29 16.5 41t51.5 12h38q35 0 51.5 -12t16.5 -41q0 -117 -56 -184.5t-145 -67.5q-61 0 -127.5 29t-124 58t-96.5 29q-57 0 -57 -63q0 -53 -70 -53h-37zM631 -27
q-242 0 -401.5 154t-159.5 385t159.5 385t401.5 154t400.5 -154t158.5 -385t-158.5 -385t-400.5 -154zM631 211q126 0 207.5 85t81.5 216t-81.5 217t-207.5 86t-208.5 -86t-82.5 -217t82 -216t209 -85z" />
    <glyph glyph-name="odieresis" unicode="&#xf6;" horiz-adv-x="1259" 
d="M416 1206q-70 0 -121 51t-51 121q0 72 50.5 122t121.5 50q72 0 122 -50t50 -122q0 -71 -50 -121.5t-122 -50.5zM860 1206q-72 0 -123 50.5t-51 121.5q0 72 51 122t123 50q71 0 121.5 -50t50.5 -122q0 -70 -51 -121t-121 -51zM631 -27q-242 0 -401.5 154t-159.5 385
t159.5 385t401.5 154t400.5 -154t158.5 -385t-158.5 -385t-400.5 -154zM631 211q126 0 207.5 85t81.5 216t-81.5 217t-207.5 86t-208.5 -86t-82.5 -217t82 -216t209 -85z" />
    <glyph glyph-name="divide" unicode="&#xf7;" horiz-adv-x="1134" 
d="M580 838q-69 0 -117.5 47t-48.5 116q0 68 48.5 116t117.5 48q67 0 115 -48t48 -116q0 -69 -47.5 -116t-115.5 -47zM168 512q-78 0 -78 78v47q0 37 20 57.5t58 20.5h801q37 0 57.5 -20.5t20.5 -57.5v-47q0 -38 -20.5 -58t-57.5 -20h-801zM580 57q-69 0 -117.5 48
t-48.5 116q0 69 48.5 117.5t117.5 48.5q68 0 115.5 -48.5t47.5 -117.5q0 -68 -48 -116t-115 -48z" />
    <glyph glyph-name="oslash" unicode="&#xf8;" horiz-adv-x="1259" 
d="M1034 895q74 -73 115 -171.5t41 -211.5q0 -231 -158.5 -385t-400.5 -154q-118 0 -211 37l-21 -30q-28 -40 -54.5 -60t-61.5 -20h-115q-40 0 -51.5 23t14.5 63l98 141q-159 153 -159 385q0 231 159.5 385t401.5 154q120 0 213 -37l41 57q56 80 119 80h124q38 0 46 -22.5
t-17 -57.5zM340 512q0 -97 43 -164l317 459q-27 8 -69 8q-126 0 -208.5 -86t-82.5 -217zM631 211q126 0 207.5 85t81.5 216q0 90 -39 160l-316 -455q30 -6 66 -6z" />
    <glyph glyph-name="ugrave" unicode="&#xf9;" horiz-adv-x="1218" 
d="M397 1358q-62 32 -26 90l49 90q34 52 92 10l315 -205q62 -43 29 -92l-27 -47q-25 -37 -88 -8zM1006 1034q37 0 57 -20.5t20 -57.5v-876q0 -37 -20.5 -58.5t-56.5 -21.5h-74q-37 0 -57.5 21.5t-20.5 58.5v55q-106 -162 -313 -162q-187 0 -301.5 116.5t-114.5 305.5v561
q0 37 19.5 57.5t56.5 20.5h118q37 0 57.5 -20.5t20.5 -57.5v-530q0 -98 55 -157.5t148 -59.5q97 0 154 61t57 162v524q0 37 19.5 57.5t56.5 20.5h119z" />
    <glyph glyph-name="uacute" unicode="&#xfa;" horiz-adv-x="1218" 
d="M373 1204l-27 47q-33 49 29 92l315 205q58 42 92 -10l49 -90q36 -58 -26 -90l-344 -162q-63 -29 -88 8zM1006 1034q37 0 57 -20.5t20 -57.5v-876q0 -37 -20.5 -58.5t-56.5 -21.5h-74q-37 0 -57.5 21.5t-20.5 58.5v55q-106 -162 -313 -162q-187 0 -301.5 116.5
t-114.5 305.5v561q0 37 19.5 57.5t56.5 20.5h118q37 0 57.5 -20.5t20.5 -57.5v-530q0 -98 55 -157.5t148 -59.5q97 0 154 61t57 162v524q0 37 19.5 57.5t56.5 20.5h119z" />
    <glyph glyph-name="ucircumflex" unicode="&#xfb;" horiz-adv-x="1218" 
d="M283 1217l-23 34q-41 58 31 103l264 157q26 15 45 15t45 -15l264 -157q72 -45 31 -103l-22 -34q-20 -31 -42.5 -35t-62.5 16l-213 113l-213 -113q-40 -20 -62 -16t-42 35zM1006 1034q37 0 57 -20.5t20 -57.5v-876q0 -37 -20.5 -58.5t-56.5 -21.5h-74q-37 0 -57.5 21.5
t-20.5 58.5v55q-106 -162 -313 -162q-187 0 -301.5 116.5t-114.5 305.5v561q0 37 19.5 57.5t56.5 20.5h118q37 0 57.5 -20.5t20.5 -57.5v-530q0 -98 55 -157.5t148 -59.5q97 0 154 61t57 162v524q0 37 19.5 57.5t56.5 20.5h119z" />
    <glyph glyph-name="udieresis" unicode="&#xfc;" horiz-adv-x="1218" 
d="M381 1206q-71 0 -121.5 51t-50.5 121q0 72 50.5 122t121.5 50q72 0 122 -50t50 -122q0 -71 -50 -121.5t-122 -50.5zM825 1206q-72 0 -123 50.5t-51 121.5q0 72 51 122t123 50q71 0 121.5 -50t50.5 -122q0 -70 -50.5 -121t-121.5 -51zM1006 1034q37 0 57 -20.5t20 -57.5
v-876q0 -37 -20.5 -58.5t-56.5 -21.5h-74q-37 0 -57.5 21.5t-20.5 58.5v55q-106 -162 -313 -162q-187 0 -301.5 116.5t-114.5 305.5v561q0 37 19.5 57.5t56.5 20.5h118q37 0 57.5 -20.5t20.5 -57.5v-530q0 -98 55 -157.5t148 -59.5q97 0 154 61t57 162v524q0 37 19.5 57.5
t56.5 20.5h119z" />
    <glyph glyph-name="yacute" unicode="&#xfd;" horiz-adv-x="1107" 
d="M340 1204l-27 47q-33 49 29 92l315 205q59 43 93 -10l49 -90q36 -58 -27 -90l-344 -162q-63 -29 -88 8zM1016 1034q37 0 54.5 -22.5t2.5 -55.5l-471 -1083q-62 -145 -147.5 -203.5t-200.5 -58.5q-88 0 -156 33q-57 29 -41 80l23 79q19 60 90 35q35 -14 72 -14
q41 0 71 19.5t56 76.5l69 154l-397 882q-15 33 2.5 55.5t54.5 22.5h133q68 0 97 -78l243 -616l244 616q29 78 94 78h107z" />
    <glyph glyph-name="thorn" unicode="&#xfe;" horiz-adv-x="1302" 
d="M717 1051q147 0 265 -71.5t183.5 -195t65.5 -272.5t-65 -272t-183.5 -195t-265.5 -72q-171 0 -305 103v-389q0 -37 -20.5 -56.5t-57.5 -19.5h-119q-76 0 -76 76v1673q0 34 18.5 52.5t57.5 27.5l111 20q40 9 61 -12.5t21 -63.5v-438q134 105 309 105zM676 211
q127 0 206 86.5t79 214.5q0 129 -79 216t-206 87q-122 0 -202.5 -81t-80.5 -222q0 -140 80.5 -220.5t202.5 -80.5z" />
    <glyph glyph-name="ydieresis" unicode="&#xff;" horiz-adv-x="1107" 
d="M348 1206q-70 0 -121 51t-51 121q0 72 50.5 122t121.5 50q72 0 122 -50t50 -122q0 -71 -50 -121.5t-122 -50.5zM793 1206q-72 0 -123.5 50.5t-51.5 121.5q0 72 51.5 122t123.5 50q71 0 121.5 -50t50.5 -122q0 -70 -50.5 -121t-121.5 -51zM1016 1034q37 0 54.5 -22.5
t2.5 -55.5l-471 -1083q-62 -145 -147.5 -203.5t-200.5 -58.5q-88 0 -156 33q-57 29 -41 80l23 79q19 60 90 35q35 -14 72 -14q41 0 71 19.5t56 76.5l69 154l-397 882q-15 33 2.5 55.5t54.5 22.5h133q68 0 97 -78l243 -616l244 616q29 78 94 78h107z" />
    <glyph glyph-name="Amacron" unicode="&#x100;" horiz-adv-x="1417" 
d="M457 1554q-80 0 -80 78v37q0 78 80 78h506q77 0 77 -78v-37q0 -78 -77 -78h-506zM1378 80q16 -38 1 -59t-56 -21h-160q-15 0 -26.5 4.5t-18 8t-15.5 18.5t-11 20t-13 29l-71 172h-607l-73 -172q-10 -24 -15 -34.5t-14.5 -23.5t-22.5 -17.5t-32 -4.5h-150q-40 0 -55 21
t2 59l563 1194q32 69 96 69h19q66 0 98 -69zM487 451h437l-215 516z" />
    <glyph glyph-name="amacron" unicode="&#x101;" horiz-adv-x="1150" 
d="M336 1268q-78 0 -78 78v28q0 78 78 78h487q80 0 80 -78v-28q0 -78 -80 -78h-487zM561 1051q79 0 147.5 -15.5t127 -49t100 -83t65 -121.5t23.5 -161v-541q0 -38 -19.5 -59t-56.5 -21h-65q-37 0 -57.5 21.5t-20.5 58.5v35q-145 -142 -338 -142q-180 0 -290.5 91
t-110.5 239q0 157 120.5 252.5t317.5 95.5q133 0 266 -55v55q0 89 -60.5 141t-166.5 52q-144 0 -262 -80q-63 -38 -103 29l-18 32q-43 73 22 113q168 113 379 113zM526 160q101 0 175.5 54t74.5 128v76q-120 59 -235 59q-97 0 -156 -45t-59 -119q0 -69 54.5 -111t145.5 -42z
" />
    <glyph glyph-name="Abreve" unicode="&#x102;" horiz-adv-x="1417" 
d="M709 1464q-143 0 -240.5 90t-97.5 226q0 30 17.5 45.5t47.5 15.5h56q31 0 50 -15t19 -46q0 -68 41 -107t109 -39t108.5 39t40.5 107q0 31 19.5 46t50.5 15h51q66 0 66 -61q0 -136 -97.5 -226t-240.5 -90zM1378 80q16 -38 1 -59t-56 -21h-160q-15 0 -26.5 4.5t-18 8
t-15.5 18.5t-11 20t-13 29l-71 172h-607l-73 -172q-10 -24 -15 -34.5t-14.5 -23.5t-22.5 -17.5t-32 -4.5h-150q-40 0 -55 21t2 59l563 1194q32 69 96 69h19q66 0 98 -69zM487 451h437l-215 516z" />
    <glyph glyph-name="abreve" unicode="&#x103;" horiz-adv-x="1150" 
d="M582 1182q-77 0 -141 27t-104.5 71t-64.5 95.5t-30 105.5q-2 31 14 50t51 19h49q36 0 52 -19t24 -50q34 -138 150 -138q65 0 99.5 37t49.5 101q13 69 76 69h47q37 0 53 -19t13 -50q-5 -54 -29 -105.5t-64.5 -95.5t-104.5 -71t-140 -27zM561 1051q79 0 147.5 -15.5
t127 -49t100 -83t65 -121.5t23.5 -161v-541q0 -38 -19.5 -59t-56.5 -21h-65q-37 0 -57.5 21.5t-20.5 58.5v35q-145 -142 -338 -142q-180 0 -290.5 91t-110.5 239q0 157 120.5 252.5t317.5 95.5q133 0 266 -55v55q0 89 -60.5 141t-166.5 52q-144 0 -262 -80q-63 -38 -103 29
l-18 32q-43 73 22 113q168 113 379 113zM526 160q101 0 175.5 54t74.5 128v76q-120 59 -235 59q-97 0 -156 -45t-59 -119q0 -69 54.5 -111t145.5 -42z" />
    <glyph glyph-name="Aogonek" unicode="&#x104;" horiz-adv-x="1417" 
d="M1450 -340q26 -61 -45 -92q-65 -33 -137.5 -33.5t-130 26.5t-95.5 83t-38 129q0 117 139 229q-24 5 -36 22t-28 56l-71 172h-607l-73 -172q-10 -24 -15 -34.5t-14.5 -23.5t-22.5 -17.5t-32 -4.5h-150q-40 0 -55 21t2 59l563 1194q32 69 96 69h19q66 0 98 -69l561 -1194
q16 -37 1.5 -57.5t-52.5 -22.5q-57 -36 -94 -90t-37 -105q0 -69 45.5 -92t112.5 -2q26 11 50 4.5t38 -39.5zM487 451h437l-215 516z" />
    <glyph glyph-name="aogonek" unicode="&#x105;" horiz-adv-x="1150" 
d="M1081 -340q26 -61 -45 -92q-65 -33 -137.5 -33.5t-130 26.5t-95.5 83t-38 129q0 130 180 260q-10 23 -10 47v35q-145 -142 -338 -142q-180 0 -290.5 91t-110.5 239q0 157 120.5 252.5t317.5 95.5q133 0 266 -55v55q0 89 -60.5 141t-166.5 52q-144 0 -262 -80
q-63 -38 -103 29l-18 32q-43 73 22 113q168 113 379 113q79 0 147.5 -15.5t127 -49t100 -83t65 -121.5t23.5 -161v-541q0 -74 -66 -80q-57 -36 -94 -90t-37 -105q0 -69 45.5 -92t112.5 -2q26 11 50 4.5t38 -39.5zM526 160q101 0 175.5 54t74.5 128v76q-120 59 -235 59
q-97 0 -156 -45t-59 -119q0 -69 54.5 -111t145.5 -42z" />
    <glyph glyph-name="Cacute" unicode="&#x106;" horiz-adv-x="1382" 
d="M565 1497l-20 31q-20 35 -13 57t41 43l316 199q47 27 68.5 21.5t41.5 -40.5l45 -75q23 -42 14 -62.5t-54 -40.5l-336 -151q-40 -17 -63 -13.5t-40 31.5zM791 -25q-148 0 -279.5 53t-227 144t-151 220t-55.5 274q0 194 94.5 352.5t258.5 248t362 89.5q151 0 283 -55.5
t227 -155.5q28 -28 26 -58t-31 -53l-73 -63q-55 -43 -113 6q-135 129 -317 129q-185 0 -310 -125t-125 -315t125 -315.5t310 -125.5t317 129q58 52 113 6l73 -61q29 -25 31 -55t-26 -56q-95 -101 -227 -157t-285 -56z" />
    <glyph glyph-name="cacute" unicode="&#x107;" horiz-adv-x="1097" 
d="M391 1204l-26 47q-33 49 28 92l316 205q58 42 92 -10l49 -90q36 -58 -27 -90l-344 -162q-63 -29 -88 8zM625 -27q-157 0 -284 70.5t-198 193.5t-71 275q0 232 157 385.5t396 153.5q240 0 401 -158q48 -48 0 -96l-72 -72q-46 -43 -98 2q-95 88 -223 88q-127 0 -209 -86
t-82 -217t80.5 -217t210.5 -86q125 0 223 88q52 48 98 2l72 -72q47 -47 0 -94q-160 -160 -401 -160z" />
    <glyph glyph-name="Cdotaccent" unicode="&#x10a;" horiz-adv-x="1382" 
d="M793 1483q-69 0 -122 52.5t-53 121.5q0 71 52.5 123.5t122.5 52.5q72 0 124 -52t52 -124q0 -70 -53 -122t-123 -52zM791 -25q-148 0 -279.5 53t-227 144t-151 220t-55.5 274q0 194 94.5 352.5t258.5 248t362 89.5q151 0 283 -55.5t227 -155.5q28 -28 26 -58t-31 -53
l-73 -63q-55 -43 -113 6q-135 129 -317 129q-185 0 -310 -125t-125 -315t125 -315.5t310 -125.5t317 129q58 52 113 6l73 -61q29 -25 31 -55t-26 -56q-95 -101 -227 -157t-285 -56z" />
    <glyph glyph-name="cdotaccent" unicode="&#x10b;" horiz-adv-x="1097" 
d="M623 1206q-74 0 -125.5 51.5t-51.5 124.5q0 72 52 124.5t125 52.5q72 0 124 -52.5t52 -124.5q0 -73 -52 -124.5t-124 -51.5zM625 -27q-157 0 -284 70.5t-198 193.5t-71 275q0 232 157 385.5t396 153.5q240 0 401 -158q48 -48 0 -96l-72 -72q-46 -43 -98 2q-95 88 -223 88
q-127 0 -209 -86t-82 -217t80.5 -217t210.5 -86q125 0 223 88q52 48 98 2l72 -72q47 -47 0 -94q-160 -160 -401 -160z" />
    <glyph glyph-name="Ccaron" unicode="&#x10c;" horiz-adv-x="1382" 
d="M475 1645q-38 23 -47 45t10 57l19 33q19 29 44 32.5t68 -18.5l226 -115l223 115q43 22 68 18.5t44 -32.5l19 -33q19 -35 10 -57t-47 -45l-274 -166q-27 -16 -44 -16.5t-44 16.5zM1298 299q29 -25 31 -55t-26 -56q-95 -101 -227 -157t-285 -56q-148 0 -279.5 53t-227 144
t-151 220t-55.5 274q0 194 94.5 352.5t258.5 248t362 89.5q151 0 283 -55.5t227 -155.5q28 -28 26 -58t-31 -53l-73 -63q-55 -43 -113 6q-135 129 -317 129q-185 0 -310 -125t-125 -315t125 -315.5t310 -125.5t317 129q58 52 113 6z" />
    <glyph glyph-name="ccaron" unicode="&#x10d;" horiz-adv-x="1097" 
d="M309 1356q-26 16 -38.5 29.5t-12 31.5t17.5 41l25 33q22 30 43.5 34.5t61.5 -16.5l212 -112l213 112q40 21 61.5 16.5t43.5 -34.5l25 -33q17 -23 17.5 -41t-12 -31.5t-38.5 -29.5l-264 -160q-26 -15 -45.5 -15t-45.5 15zM954 299l72 -72q47 -47 0 -94
q-160 -160 -401 -160q-157 0 -284 70.5t-198 193.5t-71 275q0 232 157 385.5t396 153.5q240 0 401 -158q48 -48 0 -96l-72 -72q-46 -43 -98 2q-95 88 -223 88q-127 0 -209 -86t-82 -217t80.5 -217t210.5 -86q125 0 223 88q52 48 98 2z" />
    <glyph glyph-name="Dcaron" unicode="&#x10e;" horiz-adv-x="1505" 
d="M340 1645q-38 23 -47 45t10 57l19 33q19 29 44 32.5t68 -18.5l225 -115l224 115q43 22 68 18.5t44 -32.5l19 -33q19 -35 10 -57t-47 -45l-275 -166q-27 -16 -44 -16.5t-44 16.5zM725 1331q318 0 508 -182t190 -481q0 -302 -190 -485t-508 -183h-483q-38 0 -60 22t-22 60
v1169q0 38 22 59t60 21h483zM717 229q192 0 308 118.5t116 318.5q0 201 -116 318.5t-308 117.5h-281v-873h281z" />
    <glyph glyph-name="dcaron" unicode="&#x10f;" horiz-adv-x="1413" 
d="M1081 1460q40 7 61 -14t21 -62v-1304q0 -37 -20.5 -58.5t-57.5 -21.5h-81q-36 0 -56 21.5t-20 58.5v43q-137 -150 -342 -150q-148 0 -266.5 71.5t-184 195t-65.5 272.5q0 150 65.5 273t184 194.5t266.5 71.5q166 0 305 -101v410q0 34 18.5 52.5t57.5 27.5zM1499 1460
q37 0 49.5 -18.5t1.5 -48.5l-98 -295q-20 -58 -70 -58h-49q-57 0 -47 66l51 295q4 36 20 47.5t48 11.5h94zM625 211q122 0 202 80.5t80 220.5q0 142 -80 222.5t-202 80.5q-127 0 -206 -87t-79 -216q0 -128 79 -214.5t206 -86.5z" />
    <glyph glyph-name="Dcroat" unicode="&#x110;" horiz-adv-x="1527" 
d="M748 1331q318 0 508 -182t190 -481q0 -302 -190 -485t-508 -183h-484q-38 0 -60 22t-22 60v489h-59q-38 0 -60 21t-22 59v29q0 38 22 59t60 21h59v491q0 38 22 59t60 21h484zM739 229q192 0 308 118.5t116 318.5q0 201 -116 318.5t-308 117.5h-280v-342h276q38 0 59 -21
t21 -59v-29q0 -38 -21 -59t-59 -21h-276v-342h280z" />
    <glyph glyph-name="dcroat" unicode="&#x111;" horiz-adv-x="1302" 
d="M1243 1290q78 0 78 -63v-10q0 -64 -78 -64h-80v-1073q0 -37 -20.5 -58.5t-57.5 -21.5h-77q-37 0 -57.5 21.5t-20.5 58.5v45q-138 -152 -344 -152q-148 0 -266.5 71.5t-184 195t-65.5 272.5q0 150 65.5 273t184 194.5t266.5 71.5q166 0 305 -101v203h-246q-80 0 -80 64v10
q0 63 80 63h246v70q0 34 18.5 52.5t57.5 27.5l114 20q40 7 61 -14t21 -62v-94h80zM627 211q121 0 200.5 80.5t79.5 220.5q0 141 -80 222t-200 81q-127 0 -206 -87t-79 -216q0 -128 79 -214.5t206 -86.5z" />
    <glyph glyph-name="Emacron" unicode="&#x112;" horiz-adv-x="1187" 
d="M383 1554q-80 0 -80 78v37q0 78 80 78h506q78 0 78 -78v-37q0 -78 -78 -78h-506zM242 0q-38 0 -60 22t-22 60v1169q0 38 22 59t60 21h786q39 0 60.5 -20t21.5 -58v-71q0 -38 -22 -59t-60 -21h-592v-324h445q39 0 60.5 -20t21.5 -58v-61q0 -38 -22 -59t-60 -21h-445v-330
h596q80 0 80 -77v-72q0 -38 -21 -59t-59 -21h-790z" />
    <glyph glyph-name="emacron" unicode="&#x113;" horiz-adv-x="1198" 
d="M377 1268q-78 0 -78 78v28q0 78 78 78h487q80 0 80 -78v-28q0 -78 -80 -78h-487zM340 451q12 -126 101 -198.5t212 -72.5q142 0 260 92q29 23 51 24t48 -24l49 -49q45 -45 0 -94q-74 -75 -194.5 -115.5t-237.5 -40.5q-154 0 -280 65.5t-201.5 189.5t-75.5 284
q0 232 152.5 385.5t383.5 153.5q114 0 210.5 -38t164.5 -106q72 -70 111 -167.5t39 -204.5q0 -44 -19.5 -64t-64.5 -20h-709zM604 850q-105 0 -176 -63t-86 -169h524q-16 99 -73 156q-70 76 -189 76z" />
    <glyph glyph-name="Edotaccent" unicode="&#x116;" horiz-adv-x="1187" 
d="M635 1483q-69 0 -121.5 52.5t-52.5 121.5q0 71 52.5 123.5t121.5 52.5q72 0 124 -52t52 -124q0 -70 -53 -122t-123 -52zM242 0q-38 0 -60 22t-22 60v1169q0 38 22 59t60 21h786q39 0 60.5 -20t21.5 -58v-71q0 -38 -22 -59t-60 -21h-592v-324h445q39 0 60.5 -20t21.5 -58
v-61q0 -38 -22 -59t-60 -21h-445v-330h596q80 0 80 -77v-72q0 -38 -21 -59t-59 -21h-790z" />
    <glyph glyph-name="edotaccent" unicode="&#x117;" horiz-adv-x="1198" 
d="M621 1206q-74 0 -125.5 51.5t-51.5 124.5q0 72 52 124.5t125 52.5q72 0 124 -52.5t52 -124.5q0 -73 -52 -124.5t-124 -51.5zM340 451q12 -126 101 -198.5t212 -72.5q142 0 260 92q29 23 51 24t48 -24l49 -49q45 -45 0 -94q-74 -75 -194.5 -115.5t-237.5 -40.5
q-154 0 -280 65.5t-201.5 189.5t-75.5 284q0 232 152.5 385.5t383.5 153.5q114 0 210.5 -38t164.5 -106q72 -70 111 -167.5t39 -204.5q0 -44 -19.5 -64t-64.5 -20h-709zM604 850q-105 0 -176 -63t-86 -169h524q-16 99 -73 156q-70 76 -189 76z" />
    <glyph glyph-name="Eogonek" unicode="&#x118;" horiz-adv-x="1187" 
d="M1110 -340q26 -61 -45 -92q-65 -33 -137.5 -33.5t-130 26.5t-95.5 83t-38 129q0 119 137 227h-559q-38 0 -60 22t-22 60v1169q0 38 22 59t60 21h786q39 0 60.5 -20t21.5 -58v-71q0 -38 -22 -59t-60 -21h-592v-324h445q39 0 60.5 -20t21.5 -58v-61q0 -38 -22 -59t-60 -21
h-445v-330h596q80 0 80 -77v-72q0 -38 -21 -59t-59 -21h-45q-57 -36 -94 -90t-37 -105q0 -69 45.5 -92t112.5 -2q26 11 50 4.5t38 -39.5z" />
    <glyph glyph-name="eogonek" unicode="&#x119;" horiz-adv-x="1198" 
d="M340 451q12 -126 101 -198.5t212 -72.5q142 0 260 92q29 23 51 24t48 -24l49 -49q45 -45 0 -94q-87 -87 -238 -129q-49 -38 -79.5 -86t-30.5 -94q0 -69 45 -92t112 -2q26 11 50 4.5t38 -39.5l9 -17q26 -61 -45 -92q-65 -33 -137.5 -33.5t-130.5 26.5t-96 83t-38 129
q0 93 90 186q-150 4 -271.5 70.5t-194 189t-72.5 279.5q0 232 152.5 385.5t383.5 153.5q114 0 210.5 -38t164.5 -106q72 -70 111 -167.5t39 -204.5q0 -44 -19.5 -64t-64.5 -20h-709zM604 850q-105 0 -176 -63t-86 -169h524q-16 99 -73 156q-70 76 -189 76z" />
    <glyph glyph-name="Ecaron" unicode="&#x11a;" horiz-adv-x="1187" 
d="M317 1645q-37 23 -46.5 45t10.5 57l18 33q19 29 44.5 32.5t68.5 -18.5l225 -115l223 115q43 22 68.5 18.5t44.5 -32.5l18 -33q19 -35 10 -57t-47 -45l-274 -166q-27 -16 -44 -16.5t-44 16.5zM1032 229q80 0 80 -77v-72q0 -38 -21 -59t-59 -21h-790q-38 0 -60 22t-22 60
v1169q0 38 22 59t60 21h786q39 0 60.5 -20t21.5 -58v-71q0 -38 -22 -59t-60 -21h-592v-324h445q39 0 60.5 -20t21.5 -58v-61q0 -38 -22 -59t-60 -21h-445v-330h596z" />
    <glyph glyph-name="ecaron" unicode="&#x11b;" horiz-adv-x="1198" 
d="M309 1356q-26 16 -38.5 29.5t-12 31.5t17.5 41l25 33q22 30 43.5 34.5t61.5 -16.5l212 -112l213 112q40 21 61.5 16.5t43.5 -34.5l25 -33q17 -23 17.5 -41t-12 -31.5t-38.5 -29.5l-264 -160q-26 -15 -45.5 -15t-45.5 15zM340 451q12 -126 101 -198.5t212 -72.5
q142 0 260 92q29 23 51 24t48 -24l49 -49q45 -45 0 -94q-74 -75 -194.5 -115.5t-237.5 -40.5q-154 0 -280 65.5t-201.5 189.5t-75.5 284q0 232 152.5 385.5t383.5 153.5q114 0 210.5 -38t164.5 -106q72 -70 111 -167.5t39 -204.5q0 -44 -19.5 -64t-64.5 -20h-709zM604 850
q-105 0 -176 -63t-86 -169h524q-16 99 -73 156q-70 76 -189 76z" />
    <glyph glyph-name="Gbreve" unicode="&#x11e;" horiz-adv-x="1421" 
d="M760 1464q-143 0 -240.5 90t-97.5 226q0 30 17.5 45.5t47.5 15.5h56q31 0 50 -15t19 -46q0 -68 41 -107t109 -39t108.5 39t40.5 107q0 31 19.5 46t50.5 15h51q66 0 66 -61q0 -136 -97.5 -226t-240.5 -90zM778 -25q-146 0 -275.5 53.5t-223 145t-147.5 220t-54 272.5
q0 145 54.5 273t147.5 219.5t224 144.5t278 53q248 0 441 -150q31 -25 31 -56.5t-29 -57.5l-64 -60q-53 -48 -121 -2q-121 80 -252 80q-183 0 -307.5 -127.5t-124.5 -316.5q0 -196 126.5 -323.5t312.5 -127.5q64 0 124.5 16t82 27t69.5 37v246h-248q-80 0 -80 77v54
q0 37 21 57.5t59 20.5h418q38 0 59 -21.5t21 -58.5v-447q0 -37 -19 -63t-59 -51q-44 -26 -74 -41.5t-92.5 -41t-138 -38.5t-160.5 -13z" />
    <glyph glyph-name="gbreve" unicode="&#x11f;" horiz-adv-x="1259" 
d="M621 1182q-77 0 -141 27t-104.5 71t-64.5 95.5t-30 105.5q-2 31 14 50t51 19h49q36 0 52 -19t24 -50q34 -138 150 -138q65 0 99.5 37t49.5 101q13 69 76 69h47q36 0 52 -19t13 -50q-5 -54 -29 -105.5t-64.5 -95.5t-104 -71t-139.5 -27zM1049 1034q36 0 55.5 -20.5
t19.5 -57.5v-843q0 -101 -28 -184t-77.5 -141.5t-118.5 -98.5t-149.5 -59t-172.5 -19q-293 0 -469 192q-53 57 2 109l39 45q51 51 106 -2q128 -139 324 -139q126 0 209 65t83 189v123q-133 -107 -309 -107q-211 0 -351 137.5t-140 343.5q0 207 140.5 345.5t352.5 138.5
q197 0 334 -127v32q0 37 20.5 57.5t57.5 20.5h72zM616 295q121 0 197 76.5t76 195.5q0 120 -77 197.5t-198 77.5q-120 0 -196 -77.5t-76 -197.5q0 -119 76 -195.5t198 -76.5z" />
    <glyph glyph-name="Gdotaccent" unicode="&#x120;" horiz-adv-x="1421" 
d="M758 1483q-69 0 -121.5 52.5t-52.5 121.5q0 71 52 123.5t122 52.5q72 0 124 -52t52 -124q0 -70 -53 -122t-123 -52zM778 -25q-146 0 -275.5 53.5t-223 145t-147.5 220t-54 272.5q0 145 54.5 273t147.5 219.5t224 144.5t278 53q248 0 441 -150q31 -25 31 -56.5t-29 -57.5
l-64 -60q-53 -48 -121 -2q-121 80 -252 80q-183 0 -307.5 -127.5t-124.5 -316.5q0 -196 126.5 -323.5t312.5 -127.5q64 0 124.5 16t82 27t69.5 37v246h-248q-80 0 -80 77v54q0 37 21 57.5t59 20.5h418q38 0 59 -21.5t21 -58.5v-447q0 -37 -19 -63t-59 -51q-44 -26 -74 -41.5
t-92.5 -41t-138 -38.5t-160.5 -13z" />
    <glyph glyph-name="gdotaccent" unicode="&#x121;" horiz-adv-x="1259" 
d="M621 1206q-74 0 -125.5 51.5t-51.5 124.5q0 72 52 124.5t125 52.5q72 0 124 -52.5t52 -124.5q0 -73 -52 -124.5t-124 -51.5zM1049 1034q36 0 55.5 -20.5t19.5 -57.5v-843q0 -101 -28 -184t-77.5 -141.5t-118.5 -98.5t-149.5 -59t-172.5 -19q-293 0 -469 192q-53 57 2 109
l39 45q51 51 106 -2q128 -139 324 -139q126 0 209 65t83 189v123q-133 -107 -309 -107q-211 0 -351 137.5t-140 343.5q0 207 140.5 345.5t352.5 138.5q197 0 334 -127v32q0 37 20.5 57.5t57.5 20.5h72zM616 295q121 0 197 76.5t76 195.5q0 120 -77 197.5t-198 77.5
q-120 0 -196 -77.5t-76 -197.5q0 -119 76 -195.5t198 -76.5z" />
    <glyph glyph-name="uni0122" unicode="&#x122;" horiz-adv-x="1421" 
d="M778 -25q-146 0 -275.5 53.5t-223 145t-147.5 220t-54 272.5q0 145 54.5 273t147.5 219.5t224 144.5t278 53q248 0 441 -150q31 -25 31 -56.5t-29 -57.5l-64 -60q-53 -48 -121 -2q-121 80 -252 80q-183 0 -307.5 -127.5t-124.5 -316.5q0 -196 126.5 -323.5t312.5 -127.5
q64 0 124.5 16t82 27t69.5 37v246h-248q-80 0 -80 77v54q0 37 21 57.5t59 20.5h418q38 0 59 -21.5t21 -58.5v-447q0 -37 -19 -63t-59 -51q-44 -26 -74 -41.5t-92.5 -41t-138 -38.5t-160.5 -13zM672 -528q-65 0 -56 71l37 269q6 40 25 53.5t57 13.5h94q40 0 54 -20.5t2 -53.5
l-92 -266q-13 -38 -30.5 -52.5t-45.5 -14.5h-45z" />
    <glyph glyph-name="uni0123" unicode="&#x123;" horiz-adv-x="1259" 
d="M575 1180q-40 0 -53.5 19t-1.5 52l94 277q13 38 30.5 51.5t45.5 13.5h43q68 0 58 -69l-39 -277q-7 -42 -25 -54.5t-57 -12.5h-95zM1049 1034q36 0 55.5 -20.5t19.5 -57.5v-843q0 -101 -28 -184t-77.5 -141.5t-118.5 -98.5t-149.5 -59t-172.5 -19q-293 0 -469 192
q-53 57 2 109l39 45q51 51 106 -2q128 -139 324 -139q126 0 209 65t83 189v123q-133 -107 -309 -107q-211 0 -351 137.5t-140 343.5q0 207 140.5 345.5t352.5 138.5q197 0 334 -127v32q0 37 20.5 57.5t57.5 20.5h72zM616 295q121 0 197 76.5t76 195.5q0 120 -77 197.5
t-198 77.5q-120 0 -196 -77.5t-76 -197.5q0 -119 76 -195.5t198 -76.5z" />
    <glyph glyph-name="Hbar" unicode="&#x126;" horiz-adv-x="1482" 
d="M1368 1126q68 0 68 -67v-25q0 -67 -68 -67h-43v-885q0 -38 -21 -60t-59 -22h-119q-38 0 -57.5 21.5t-19.5 60.5v471h-613v-471q0 -39 -20 -60.5t-58 -21.5h-118q-38 0 -59 22t-21 60v885h-43q-68 0 -68 67v25q0 67 68 67h43v125q0 38 21 59t59 21h118q78 0 78 -80v-125
h613v125q0 80 77 80h119q38 0 59 -21t21 -59v-125h43zM1049 782v185h-613v-185h613z" />
    <glyph glyph-name="hbar" unicode="&#x127;" horiz-adv-x="1243" 
d="M696 1051q190 0 306 -121t116 -318v-532q0 -37 -20 -58.5t-56 -21.5h-118q-37 0 -57.5 21.5t-20.5 58.5v512q0 102 -58 163.5t-157 61.5q-100 0 -161.5 -62t-61.5 -163v-512q0 -37 -20 -58.5t-56 -21.5h-117q-37 0 -57.5 21.5t-20.5 58.5v1073h-74q-79 0 -79 64v10
q0 63 79 63h74v70q0 34 19 52.5t59 27.5l111 20q40 9 61 -12.5t21 -63.5v-94h254q79 0 79 -63v-10q0 -64 -79 -64h-254v-215q113 113 288 113z" />
    <glyph glyph-name="Itilde" unicode="&#x128;" horiz-adv-x="595" 
d="M-10 1464q-68 0 -68 64q0 126 60.5 199t150.5 73q50 0 99 -21t81.5 -45.5t71 -45.5t68.5 -21q26 0 41.5 19t15.5 51q0 65 70 65h36q68 0 68 -65q0 -126 -60 -198.5t-151 -72.5q-53 0 -103.5 20.5t-82 45t-67 45t-62.5 20.5t-44 -18t-18 -51q-3 -34 -19 -49t-48 -15h-39z
M240 0q-38 0 -59 22t-21 60v1169q0 38 21 59t59 21h118q78 0 78 -80v-1169q0 -39 -20 -60.5t-58 -21.5h-118z" />
    <glyph glyph-name="itilde" unicode="&#x129;" horiz-adv-x="546" 
d="M-29 1182q-63 0 -63 53q0 117 53 184.5t137 67.5q44 0 91.5 -18.5t81 -40t74.5 -40t73 -18.5q55 0 55 64q0 53 64 53h34q66 0 66 -53q0 -117 -53 -184.5t-135 -67.5q-57 0 -119 29t-116 58t-89 29q-53 0 -53 -63q0 -53 -66 -53h-35zM215 0q-37 0 -57.5 21.5t-20.5 58.5
v876q0 37 20.5 57.5t57.5 20.5h119q37 0 56.5 -20.5t19.5 -57.5v-876q0 -37 -20 -58.5t-56 -21.5h-119z" />
    <glyph glyph-name="Imacron" unicode="&#x12a;" horiz-adv-x="595" 
d="M45 1554q-80 0 -80 78v37q0 78 80 78h506q78 0 78 -78v-37q0 -78 -78 -78h-506zM240 0q-38 0 -59 22t-21 60v1169q0 38 21 59t59 21h118q78 0 78 -80v-1169q0 -39 -20 -60.5t-58 -21.5h-118z" />
    <glyph glyph-name="imacron" unicode="&#x12b;" horiz-adv-x="546" 
d="M39 1268q-76 0 -76 78v28q0 78 76 78h469q76 0 76 -78v-28q0 -78 -76 -78h-469zM215 0q-37 0 -57.5 21.5t-20.5 58.5v876q0 37 20.5 57.5t57.5 20.5h119q37 0 56.5 -20.5t19.5 -57.5v-876q0 -37 -20 -58.5t-56 -21.5h-119z" />
    <glyph glyph-name="Iogonek" unicode="&#x12e;" horiz-adv-x="595" 
d="M477 -340q26 -61 -45 -92q-65 -33 -137.5 -33.5t-130 26.5t-95.5 83t-38 129q0 126 155 243q-26 20 -26 66v1169q0 38 21 59t59 21h118q78 0 78 -80v-1169q0 -39 -20 -60.5t-58 -21.5h-4q-57 -36 -94 -90t-37 -105q0 -69 45.5 -92t112.5 -2q26 11 50 4.5t38 -39.5z" />
    <glyph glyph-name="iogonek" unicode="&#x12f;" horiz-adv-x="546" 
d="M274 1206q-74 0 -125 51t-51 125q0 72 51.5 124.5t124.5 52.5q72 0 124.5 -52.5t52.5 -124.5q0 -73 -52.5 -124.5t-124.5 -51.5zM455 -340q26 -61 -45 -92q-65 -33 -137.5 -33.5t-130.5 26.5t-96 83t-38 129q0 122 156 243q-27 20 -27 64v876q0 37 20.5 57.5t57.5 20.5
h119q37 0 56.5 -20.5t19.5 -57.5v-876q0 -37 -20 -58.5t-56 -21.5h-2q-57 -36 -94 -90t-37 -105q0 -69 45 -92t112 -2q26 11 50 4.5t38 -39.5z" />
    <glyph glyph-name="Idotaccent" unicode="&#x130;" horiz-adv-x="595" 
d="M297 1483q-69 0 -121.5 52.5t-52.5 121.5q0 71 52.5 123.5t121.5 52.5q72 0 124 -52t52 -124q0 -70 -53 -122t-123 -52zM240 0q-38 0 -59 22t-21 60v1169q0 38 21 59t59 21h118q78 0 78 -80v-1169q0 -39 -20 -60.5t-58 -21.5h-118z" />
    <glyph glyph-name="dotlessi" unicode="&#x131;" horiz-adv-x="546" 
d="M215 0q-37 0 -57.5 21.5t-20.5 58.5v876q0 37 20.5 57.5t57.5 20.5h119q37 0 56.5 -20.5t19.5 -57.5v-876q0 -37 -20 -58.5t-56 -21.5h-119z" />
    <glyph glyph-name="IJ" unicode="&#x132;" horiz-adv-x="1548" 
d="M240 0q-38 0 -59 22t-21 60v1169q0 38 21 59t59 21h118q78 0 78 -80v-1169q0 -39 -20 -60.5t-58 -21.5h-118zM934 -25q-121 0 -221.5 44.5t-171.5 121.5q-52 55 2 109l69 69q51 51 107 -2q90 -94 199 -94q95 0 152.5 61.5t57.5 172.5v794q0 80 78 80h119q38 0 59 -21
t21 -59v-792q0 -236 -127 -360t-344 -124z" />
    <glyph glyph-name="ij" unicode="&#x133;" horiz-adv-x="1069" 
d="M274 1206q-74 0 -125 51t-51 125q0 72 51.5 124.5t124.5 52.5q72 0 124.5 -52.5t52.5 -124.5q0 -73 -52.5 -124.5t-124.5 -51.5zM799 1204q-73 0 -124.5 52t-51.5 124q0 74 51.5 125t124.5 51q72 0 124 -51.5t52 -124.5q0 -72 -52 -124t-124 -52zM215 0q-37 0 -57.5 21.5
t-20.5 58.5v876q0 37 20.5 57.5t57.5 20.5h119q37 0 56.5 -20.5t19.5 -57.5v-876q0 -37 -20 -58.5t-56 -21.5h-119zM653 -377q-33 -18 -63 -10t-47 41l-43 80q-36 69 35 110q80 44 103.5 97t23.5 186v829q0 37 20 57.5t57 20.5h119q37 0 56.5 -20.5t19.5 -57.5v-833
q0 -214 -55.5 -314.5t-225.5 -185.5z" />
    <glyph glyph-name="uni0136" unicode="&#x136;" horiz-adv-x="1292" 
d="M1235 82q24 -35 12.5 -58.5t-49.5 -23.5h-168q-38 0 -62.5 17.5t-54.5 60.5l-358 489l-119 -125v-360q0 -39 -20 -60.5t-58 -21.5h-118q-38 0 -59 22t-21 60v1169q0 38 21 59t59 21h118q78 0 78 -80v-501l465 505q26 30 38.5 42.5t34 23t46.5 10.5h170q38 0 51.5 -24
t-12.5 -56l-473 -518zM741 -121q40 0 54 -20.5t2 -53.5l-92 -266q-13 -38 -30.5 -52.5t-45.5 -14.5h-45q-65 0 -56 71l37 269q6 40 25 53.5t57 13.5h94z" />
    <glyph glyph-name="uni0137" unicode="&#x137;" horiz-adv-x="1116" 
d="M1079 80q26 -34 12 -57t-51 -23h-161q-37 0 -63.5 18t-53.5 58l-256 346l-98 -107v-235q0 -37 -20 -58.5t-56 -21.5h-117q-37 0 -57.5 21.5t-20.5 58.5v1280q0 34 19 52.5t59 27.5l111 20q40 9 61 -12.5t21 -63.5v-821l348 395q35 42 59 59t59 17h152q37 0 51 -23
t-12 -57l-356 -391zM657 -121q40 0 54 -20.5t2 -53.5l-92 -266q-13 -38 -30.5 -52.5t-45.5 -14.5h-45q-65 0 -56 71l37 269q6 40 25 53.5t57 13.5h94z" />
    <glyph glyph-name="kgreenlandic" unicode="&#x138;" horiz-adv-x="1114" 
d="M1077 80q26 -34 12 -57t-51 -23h-161q-37 0 -63.5 18t-53.5 58l-256 346l-98 -107v-235q0 -37 -20 -58.5t-56 -21.5h-117q-37 0 -57.5 21.5t-20.5 58.5v876q0 37 20.5 57.5t57.5 20.5h117q37 0 56.5 -20.5t19.5 -57.5v-393l348 395q35 42 59 59t59 17h152q37 0 51 -23
t-12 -57l-356 -391z" />
    <glyph glyph-name="Lacute" unicode="&#x139;" horiz-adv-x="1050" 
d="M43 1497l-20 31q-21 35 -13.5 56.5t41.5 43.5l316 199q47 27 68.5 21.5t41.5 -40.5l45 -75q23 -42 13.5 -62.5t-54.5 -40.5l-336 -151q-40 -17 -62.5 -13.5t-39.5 31.5zM240 0q-38 0 -59 21t-21 59v1171q0 38 21 59t59 21h118q78 0 78 -80v-1022h504q39 0 60.5 -19.5
t21.5 -57.5v-72q0 -38 -22 -59t-60 -21h-700z" />
    <glyph glyph-name="lacute" unicode="&#x13a;" horiz-adv-x="550" 
d="M4 1565l-20 30q-22 35 -14.5 57.5t42.5 43.5l316 198q47 27 68.5 22t41.5 -40l45 -76q23 -42 13.5 -62t-54.5 -40l-336 -152q-40 -17 -62.5 -13t-39.5 32zM217 0q-37 0 -57.5 21.5t-20.5 58.5v1280q0 34 19 52.5t59 27.5l113 22q40 9 61 -13.5t21 -64.5v-1304
q0 -37 -20 -58.5t-56 -21.5h-119z" />
    <glyph glyph-name="uni013B" unicode="&#x13b;" horiz-adv-x="1050" 
d="M240 0q-38 0 -59 21t-21 59v1171q0 38 21 59t59 21h118q78 0 78 -80v-1022h504q39 0 60.5 -19.5t21.5 -57.5v-72q0 -38 -22 -59t-60 -21h-700zM477 -528q-64 0 -55 71l37 269q6 40 25 53.5t57 13.5h94q40 0 53.5 -20.5t1.5 -53.5l-92 -266q-13 -38 -30.5 -52.5
t-45.5 -14.5h-45z" />
    <glyph glyph-name="uni013C" unicode="&#x13c;" horiz-adv-x="550" 
d="M217 0q-37 0 -57.5 21.5t-20.5 58.5v1280q0 34 19 52.5t59 27.5l113 22q40 9 61 -13.5t21 -64.5v-1304q0 -37 -20 -58.5t-56 -21.5h-119zM168 -528q-64 0 -55 71l37 269q6 40 24.5 53.5t56.5 13.5h95q40 0 53.5 -20.5t1.5 -53.5l-92 -266q-13 -38 -30.5 -52.5
t-45.5 -14.5h-45z" />
    <glyph glyph-name="Lcaron" unicode="&#x13d;" horiz-adv-x="1050" 
d="M240 0q-38 0 -59 21t-21 59v1171q0 38 21 59t59 21h118q78 0 78 -80v-1022h504q39 0 60.5 -19.5t21.5 -57.5v-72q0 -38 -22 -59t-60 -21h-700zM653 903q-65 0 -55 70l41 291q6 41 25.5 54t56.5 13h94q40 0 53 -20t2 -54l-98 -288q-13 -38 -30.5 -52t-45.5 -14h-43z" />
    <glyph glyph-name="lcaron" unicode="&#x13e;" horiz-adv-x="645" 
d="M217 0q-37 0 -57.5 21.5t-20.5 58.5v1280q0 65 78 80l113 22q40 7 61 -14.5t21 -63.5v-1304q0 -37 -20 -58.5t-56 -21.5h-119zM557 1034q-65 0 -55 70l41 291q6 41 25.5 54t56.5 13h94q40 0 53 -19.5t2 -53.5l-98 -289q-13 -38 -30.5 -52t-45.5 -14h-43z" />
    <glyph glyph-name="Ldot" unicode="&#x13f;" horiz-adv-x="1050" 
d="M240 0q-38 0 -59 21t-21 59v1171q0 38 21 59t59 21h118q78 0 78 -80v-1022h504q39 0 60.5 -19.5t21.5 -57.5v-72q0 -38 -22 -59t-60 -21h-700zM797 561q-65 0 -111.5 46.5t-46.5 111.5q0 66 46.5 112t111.5 46q66 0 111.5 -46t45.5 -112q0 -63 -46.5 -110.5t-110.5 -47.5
z" />
    <glyph glyph-name="ldot" unicode="&#x140;" horiz-adv-x="765" 
d="M217 0q-37 0 -57.5 21.5t-20.5 58.5v1280q0 65 78 80l113 22q40 7 61 -14.5t21 -63.5v-1304q0 -37 -20 -58.5t-56 -21.5h-119zM641 555q-67 0 -115.5 48.5t-48.5 115.5q0 69 48 117.5t116 48.5q69 0 117.5 -48.5t48.5 -117.5q0 -68 -48.5 -116t-117.5 -48z" />
    <glyph glyph-name="Lslash" unicode="&#x141;" horiz-adv-x="1099" 
d="M991 229q80 0 80 -77v-72q0 -38 -21 -59t-59 -21h-702q-78 0 -78 80v346l-68 -31q-43 -19 -68.5 -2.5t-25.5 60.5v61q0 45 18.5 69.5t65.5 47.5l78 37v583q0 80 78 80h119q38 0 58.5 -21t20.5 -59v-454l215 100q43 19 69 3t26 -60v-62q0 -45 -18.5 -69t-65.5 -47
l-226 -105v-328h504z" />
    <glyph glyph-name="lslash" unicode="&#x142;" horiz-adv-x="735" 
d="M590 932q47 23 70.5 6.5t23.5 -64.5v-43q0 -39 -15 -57.5t-55 -38.5l-112 -59v-596q0 -37 -20.5 -58.5t-57.5 -21.5h-119q-36 0 -56 21.5t-20 58.5v452l-82 -43q-47 -23 -70.5 -6.5t-23.5 64.5v43q0 39 15 57.5t57 38.5l104 55v619q0 64 76 80l115 22q40 9 61 -13.5
t21 -64.5v-499z" />
    <glyph glyph-name="Nacute" unicode="&#x143;" horiz-adv-x="1482" 
d="M524 1497l-20 31q-20 35 -13 57t41 43l316 199q47 27 68.5 21.5t41.5 -40.5l46 -75q23 -42 13.5 -62.5t-54.5 -40.5l-336 -151q-40 -17 -63 -13.5t-40 31.5zM1243 1331q38 0 59 -21t21 -59v-1175q0 -42 -26.5 -64t-65.5 -22h-17q-34 0 -61.5 18t-58.5 55l-660 787v-768
q0 -39 -20 -60.5t-58 -21.5h-116q-38 0 -59 22t-21 60v1173q0 43 26 64.5t66 21.5h16q60 0 121 -73l660 -785v768q0 80 77 80h117z" />
    <glyph glyph-name="nacute" unicode="&#x144;" horiz-adv-x="1243" 
d="M420 1204l-27 47q-33 49 29 92l315 205q58 42 92 -10l50 -90q36 -58 -27 -90l-344 -162q-63 -29 -88 8zM696 1051q190 0 306 -121t116 -318v-532q0 -37 -20 -58.5t-56 -21.5h-118q-37 0 -57.5 21.5t-20.5 58.5v512q0 102 -58 163.5t-157 61.5q-100 0 -161.5 -62
t-61.5 -163v-512q0 -37 -20 -58.5t-56 -21.5h-119q-37 0 -57.5 21.5t-20.5 58.5v876q0 37 20.5 57.5t57.5 20.5h78q37 0 57.5 -20.5t20.5 -57.5v-69q114 164 327 164z" />
    <glyph glyph-name="uni0145" unicode="&#x145;" horiz-adv-x="1482" 
d="M1243 1331q38 0 59 -21t21 -59v-1175q0 -42 -26.5 -64t-65.5 -22h-17q-34 0 -61.5 18t-58.5 55l-660 787v-768q0 -39 -20 -60.5t-58 -21.5h-116q-38 0 -59 22t-21 60v1173q0 43 26 64.5t66 21.5h16q60 0 121 -73l660 -785v768q0 80 77 80h117zM793 -121q40 0 53.5 -20.5
t1.5 -53.5l-92 -266q-13 -38 -30.5 -52.5t-45.5 -14.5h-45q-64 0 -55 71l36 269q6 40 25 53.5t57 13.5h95z" />
    <glyph glyph-name="uni0146" unicode="&#x146;" horiz-adv-x="1243" 
d="M696 1051q190 0 306 -121t116 -318v-532q0 -37 -20 -58.5t-56 -21.5h-118q-37 0 -57.5 21.5t-20.5 58.5v512q0 102 -58 163.5t-157 61.5q-100 0 -161.5 -62t-61.5 -163v-512q0 -37 -20 -58.5t-56 -21.5h-119q-37 0 -57.5 21.5t-20.5 58.5v876q0 37 20.5 57.5t57.5 20.5
h78q37 0 57.5 -20.5t20.5 -57.5v-69q114 164 327 164zM668 -121q40 0 53.5 -20.5t1.5 -53.5l-92 -266q-13 -38 -30.5 -52.5t-45.5 -14.5h-45q-64 0 -55 71l37 269q6 40 24.5 53.5t56.5 13.5h95z" />
    <glyph glyph-name="Ncaron" unicode="&#x147;" horiz-adv-x="1482" 
d="M434 1645q-38 23 -47 45t10 57l19 33q19 29 44 32.5t68 -18.5l226 -115l223 115q43 22 68.5 18.5t44.5 -32.5l18 -33q19 -35 10 -57t-47 -45l-274 -166q-27 -16 -44 -16.5t-44 16.5zM1243 1331q38 0 59 -21t21 -59v-1175q0 -42 -26.5 -64t-65.5 -22h-17q-34 0 -61.5 18
t-58.5 55l-660 787v-768q0 -39 -20 -60.5t-58 -21.5h-116q-38 0 -59 22t-21 60v1173q0 43 26 64.5t66 21.5h16q60 0 121 -73l660 -785v768q0 80 77 80h117z" />
    <glyph glyph-name="ncaron" unicode="&#x148;" horiz-adv-x="1243" 
d="M338 1356q-26 16 -38.5 29.5t-12 31.5t17.5 41l25 33q23 30 43 34.5t61 -16.5l213 -112l213 112q40 21 61.5 16.5t43.5 -34.5l24 -33q17 -23 17.5 -41t-12 -31.5t-38.5 -29.5l-264 -160q-26 -15 -45 -15t-45 15zM696 1051q190 0 306 -121t116 -318v-532q0 -37 -20 -58.5
t-56 -21.5h-118q-37 0 -57.5 21.5t-20.5 58.5v512q0 102 -58 163.5t-157 61.5q-100 0 -161.5 -62t-61.5 -163v-512q0 -37 -20 -58.5t-56 -21.5h-119q-37 0 -57.5 21.5t-20.5 58.5v876q0 37 20.5 57.5t57.5 20.5h78q37 0 57.5 -20.5t20.5 -57.5v-69q114 164 327 164z" />
    <glyph glyph-name="Eng" unicode="&#x14a;" horiz-adv-x="1484" 
d="M885 -477q-105 0 -208.5 40t-160.5 120q-49 64 2 112l64 66q28 27 57.5 23t54.5 -36q33 -45 83 -71.5t106 -26.5q86 0 137 57.5t51 145.5v139l-637 758v-768q0 -39 -20 -60.5t-58 -21.5h-116q-38 0 -59 22t-21 60v1173q0 43 26 64.5t66 21.5h16q60 0 121 -73l660 -787
v770q0 80 77 80h117q38 0 59 -21t21 -59v-1306q0 -189 -126.5 -305.5t-311.5 -116.5z" />
    <glyph glyph-name="eng" unicode="&#x14b;" horiz-adv-x="1243" 
d="M696 1051q190 0 306 -121t116 -318v-440q0 -213 -57.5 -316t-224.5 -184q-71 -32 -105 31l-47 86q-35 65 33 105q55 31 81 61.5t37 80t11 142.5v414q0 102 -58 163.5t-157 61.5q-100 0 -161.5 -62t-61.5 -163v-514q0 -37 -19.5 -57.5t-56.5 -20.5h-119q-37 0 -57.5 20.5
t-20.5 57.5v880q0 37 20.5 56.5t57.5 19.5h78q37 0 57.5 -19.5t20.5 -56.5v-71q114 164 327 164z" />
    <glyph glyph-name="Omacron" unicode="&#x14c;" horiz-adv-x="1601" 
d="M549 1554q-80 0 -80 78v37q0 78 80 78h506q78 0 78 -78v-37q0 -78 -78 -78h-506zM801 -25q-151 0 -285.5 53t-230.5 144t-151.5 219.5t-55.5 274.5q0 194 94.5 352.5t260.5 248t368 89.5q152 0 286.5 -52.5t230 -144t151 -219.5t55.5 -274q0 -145 -55.5 -273.5t-151 -220
t-230 -144.5t-286.5 -53zM801 225q123 0 224 56.5t159.5 157.5t58.5 227q0 192 -127 316t-315 124t-314.5 -124t-126.5 -316q0 -191 127 -316t314 -125z" />
    <glyph glyph-name="omacron" unicode="&#x14d;" horiz-adv-x="1259" 
d="M393 1268q-78 0 -78 78v28q0 78 78 78h488q80 0 80 -78v-28q0 -78 -80 -78h-488zM631 -27q-242 0 -401.5 154t-159.5 385t159.5 385t401.5 154t400.5 -154t158.5 -385t-158.5 -385t-400.5 -154zM631 211q126 0 207.5 85t81.5 216t-81.5 217t-207.5 86t-208.5 -86
t-82.5 -217t82 -216t209 -85z" />
    <glyph glyph-name="Ohungarumlaut" unicode="&#x150;" horiz-adv-x="1601" 
d="M559 1464q-41 0 -49.5 17.5t12.5 54.5l119 217q22 42 44 57t56 15h123q68 0 31 -53l-184 -250q-23 -31 -44 -44.5t-53 -13.5h-55zM928 1464q-41 0 -49.5 17.5t12.5 54.5l119 217q22 42 44 57t56 15h123q68 0 31 -53l-185 -250q-23 -32 -43.5 -45t-52.5 -13h-55zM801 -25
q-151 0 -285.5 53t-230.5 144t-151.5 219.5t-55.5 274.5q0 194 94.5 352.5t260.5 248t368 89.5q152 0 286.5 -52.5t230 -144t151 -219.5t55.5 -274q0 -145 -55.5 -273.5t-151 -220t-230 -144.5t-286.5 -53zM801 225q123 0 224 56.5t159.5 157.5t58.5 227q0 192 -127 316
t-315 124t-314.5 -124t-126.5 -316q0 -191 127 -316t314 -125z" />
    <glyph glyph-name="ohungarumlaut" unicode="&#x151;" horiz-adv-x="1259" 
d="M412 1182q-35 0 -46.5 19.5t1.5 51.5l98 254q14 39 37 53.5t59 14.5h78q35 0 49.5 -19t-2.5 -51l-151 -266q-35 -57 -99 -57h-24zM782 1182q-35 0 -46.5 19.5t1.5 51.5l99 254q14 39 37 53.5t59 14.5h78q35 0 49.5 -19t-2.5 -51l-152 -266q-35 -57 -98 -57h-25zM631 -27
q-242 0 -401.5 154t-159.5 385t159.5 385t401.5 154t400.5 -154t158.5 -385t-158.5 -385t-400.5 -154zM631 211q126 0 207.5 85t81.5 216t-81.5 217t-207.5 86t-208.5 -86t-82.5 -217t82 -216t209 -85z" />
    <glyph glyph-name="OE" unicode="&#x152;" horiz-adv-x="2271" 
d="M793 -25q-148 0 -280 53t-227 144t-150.5 219.5t-55.5 274.5q0 194 94 352.5t257.5 248t361.5 89.5q146 0 269 -54t212 -151v102q0 38 21.5 58t60.5 20h755q39 0 60.5 -20t21.5 -58v-71q0 -38 -22 -59t-60 -21h-591v-324h444q39 0 60.5 -20t21.5 -58v-61q0 -38 -22 -59
t-60 -21h-444v-330h596q79 0 79 -77v-72q0 -38 -20.5 -59t-58.5 -21h-760q-38 0 -60 21t-22 59v100q-89 -97 -212 -151t-269 -54zM803 225q187 0 313.5 125t126.5 316q0 192 -126 316t-314 124t-315.5 -124.5t-127.5 -315.5q0 -190 127.5 -315.5t315.5 -125.5z" />
    <glyph glyph-name="oe" unicode="&#x153;" horiz-adv-x="2048" 
d="M631 -27q-242 0 -401.5 154t-159.5 385t159.5 385t401.5 154q133 0 242.5 -54.5t181.5 -156.5q69 103 173 157t232 54q229 0 373 -144q72 -71 112 -169.5t40 -205.5q0 -43 -18.5 -62t-63.5 -19h-713q12 -127 101 -199t212 -72q148 0 264 96q27 21 48 21.5t45 -21.5
l53 -55q44 -46 0 -90q-75 -78 -194.5 -118t-237.5 -40q-132 0 -243 54t-183 159q-72 -104 -181 -158.5t-243 -54.5zM1192 618h524q-12 97 -71 156q-73 76 -191 76q-105 0 -176 -63t-86 -169zM631 211q126 0 207.5 85t81.5 216t-81.5 217t-207.5 86t-208.5 -86t-82.5 -217
t82 -216t209 -85z" />
    <glyph glyph-name="Racute" unicode="&#x154;" horiz-adv-x="1306" 
d="M401 1497l-20 31q-20 35 -12.5 57t41.5 43l315 199q47 27 69 21.5t42 -40.5l45 -75q23 -42 13.5 -62.5t-54.5 -40.5l-336 -151q-40 -17 -63 -13.5t-40 31.5zM940 549l260 -467q20 -40 5 -61t-54 -21h-150q-36 0 -52.5 14.5t-41.5 59.5l-245 442h-226v-434
q0 -39 -20 -60.5t-58 -21.5h-118q-38 0 -59 22t-21 60v1169q0 38 22 59t60 21h473q244 0 374 -109t130 -304q0 -137 -73.5 -232t-205.5 -137zM436 1102v-389h291q95 0 152 52t57 140q0 89 -57 143t-152 54h-291z" />
    <glyph glyph-name="racute" unicode="&#x155;" horiz-adv-x="823" 
d="M244 1204l-27 47q-33 49 29 92l315 205q58 42 92 -10l49 -90q36 -58 -26 -90l-344 -162q-63 -29 -88 8zM772 1032q28 -9 41.5 -27t3.5 -55l-26 -102q-18 -65 -82 -47q-46 16 -91 16q-99 0 -154.5 -68.5t-55.5 -181.5v-487q0 -37 -20 -58.5t-56 -21.5h-119
q-37 0 -57.5 21.5t-20.5 58.5v876q0 37 20.5 57.5t57.5 20.5h78q37 0 57.5 -20.5t20.5 -57.5v-63q106 158 274 158q64 0 129 -19z" />
    <glyph glyph-name="uni0156" unicode="&#x156;" horiz-adv-x="1306" 
d="M940 549l260 -467q20 -40 5 -61t-54 -21h-150q-36 0 -52.5 14.5t-41.5 59.5l-245 442h-226v-434q0 -39 -20 -60.5t-58 -21.5h-118q-38 0 -59 22t-21 60v1169q0 38 22 59t60 21h473q244 0 374 -109t130 -304q0 -137 -73.5 -232t-205.5 -137zM436 1102v-389h291
q95 0 152 52t57 140q0 89 -57 143t-152 54h-291zM715 -121q40 0 53.5 -20.5t1.5 -53.5l-92 -266q-13 -38 -30.5 -52.5t-45.5 -14.5h-45q-64 0 -55 71l37 269q6 40 25 53.5t57 13.5h94z" />
    <glyph glyph-name="uni0157" unicode="&#x157;" horiz-adv-x="823" 
d="M772 1032q28 -9 41.5 -27t3.5 -55l-26 -102q-18 -65 -82 -47q-46 16 -91 16q-99 0 -154.5 -68.5t-55.5 -181.5v-487q0 -37 -20 -58.5t-56 -21.5h-119q-37 0 -57.5 21.5t-20.5 58.5v876q0 37 20.5 57.5t57.5 20.5h78q37 0 57.5 -20.5t20.5 -57.5v-63q106 158 274 158
q64 0 129 -19zM319 -121q40 0 54 -20.5t2 -53.5l-92 -266q-13 -38 -30.5 -52.5t-45.5 -14.5h-45q-65 0 -56 71l37 269q6 40 25 53.5t57 13.5h94z" />
    <glyph glyph-name="Rcaron" unicode="&#x158;" horiz-adv-x="1306" 
d="M311 1645q-38 23 -47 45t10 57l19 33q19 29 44.5 32.5t68.5 -18.5l225 -115l223 115q43 22 68.5 18.5t44.5 -32.5l18 -33q19 -35 10 -57t-47 -45l-274 -166q-27 -16 -44 -16.5t-44 16.5zM940 549l260 -467q20 -40 5 -61t-54 -21h-150q-36 0 -52.5 14.5t-41.5 59.5
l-245 442h-226v-434q0 -39 -20 -60.5t-58 -21.5h-118q-38 0 -59 22t-21 60v1169q0 38 22 59t60 21h473q244 0 374 -109t130 -304q0 -137 -73.5 -232t-205.5 -137zM436 1102v-389h291q95 0 152 52t57 140q0 89 -57 143t-152 54h-291z" />
    <glyph glyph-name="rcaron" unicode="&#x159;" horiz-adv-x="823" 
d="M426 1196l-264 160q-26 16 -38.5 29.5t-12 31.5t17.5 41l25 33q23 30 43 34.5t61 -16.5l213 -112l213 112q41 21 61 16.5t43 -34.5l25 -33q17 -23 17.5 -41t-12 -31.5t-38.5 -29.5l-264 -160q-26 -15 -45 -15t-45 15zM772 1032q28 -9 41.5 -27t3.5 -55l-26 -102
q-18 -65 -82 -47q-46 16 -91 16q-99 0 -154.5 -68.5t-55.5 -181.5v-487q0 -37 -20 -58.5t-56 -21.5h-119q-37 0 -57.5 21.5t-20.5 58.5v876q0 37 20.5 57.5t57.5 20.5h78q37 0 57.5 -20.5t20.5 -57.5v-63q106 158 274 158q64 0 129 -19z" />
    <glyph glyph-name="Sacute" unicode="&#x15a;" horiz-adv-x="1189" 
d="M375 1497l-21 31q-20 35 -12.5 57t41.5 43l315 199q47 27 69 21.5t42 -40.5l45 -75q23 -42 13.5 -62.5t-54.5 -40.5l-336 -151q-40 -17 -62.5 -13.5t-39.5 31.5zM608 -25q-157 0 -294 54t-224 151q-64 64 -8 119l47 55q62 65 119 11q61 -69 158 -110.5t186 -41.5
q109 0 174 43t65 113q0 32 -13 58t-30.5 42t-54.5 32.5t-64 25.5t-81 25.5t-86 27.5q-60 19 -107 38.5t-102.5 54t-92.5 73.5t-62 98t-25 129q0 169 135 276t350 107q133 0 244.5 -42t191.5 -116q70 -59 15 -117l-48 -55q-57 -61 -116 -10q-130 114 -283 114q-91 0 -149 -39
t-58 -102q0 -29 13.5 -53.5t31.5 -41t52 -33t59.5 -26t69.5 -24.5q174 -59 211 -74q177 -74 240 -188q42 -77 42 -178q0 -122 -68 -213t-181.5 -137t-256.5 -46z" />
    <glyph glyph-name="sacute" unicode="&#x15b;" horiz-adv-x="968" 
d="M264 1204l-26 47q-33 49 28 92l316 205q58 42 92 -10l49 -90q36 -58 -27 -90l-344 -162q-63 -29 -88 8zM492 -27q-119 0 -230 43t-176 113q-60 57 -4 115l35 39q53 58 114 6q120 -105 258 -105q66 0 106 27.5t40 71.5q0 22 -9.5 40t-21 30t-37 26t-41 21t-49.5 20
q-13 5 -20 8q-46 16 -73 25.5t-68.5 27.5t-66 34t-54.5 40.5t-46 50.5t-27 62t-11 77q0 139 106 222.5t283 83.5q100 0 194.5 -32.5t153.5 -88.5q30 -26 32 -51.5t-28 -65.5l-29 -37q-50 -57 -112 -10q-99 80 -211 80q-59 0 -94 -23.5t-35 -62.5q0 -11 3 -20.5t10.5 -18.5
t14 -16t21 -15t24.5 -13.5t30 -13.5t32 -13t37.5 -14.5t38.5 -14.5q60 -24 100 -43.5t84 -49.5t69.5 -62t42.5 -78t17 -101q0 -145 -110.5 -229.5t-292.5 -84.5z" />
    <glyph glyph-name="Scedilla" unicode="&#x15e;" horiz-adv-x="1189" 
d="M1114 371q0 -167 -122 -271.5t-314 -122.5l-19 -71q121 6 194 -48t73 -155q0 -108 -82 -176t-213 -68t-242 62q-68 38 -29 98l9 12q19 32 42 36.5t48 -11.5q73 -41 145 -41q59 0 93 24t34 66q0 60 -58.5 82.5t-152.5 3.5q-27 -8 -41 -1t-6 34q5 16 43 156
q-131 15 -242.5 66.5t-183.5 133.5q-64 64 -8 119l47 55q62 65 119 11q61 -69 158 -110.5t186 -41.5q109 0 174 43t65 113q0 32 -13 58t-30.5 42t-54.5 32.5t-64 25.5t-81 25.5t-86 27.5q-60 19 -107 38.5t-102.5 54t-92.5 73.5t-62 98t-25 129q0 169 135 276t350 107
q133 0 244.5 -42t191.5 -116q70 -59 15 -117l-48 -55q-57 -61 -116 -10q-130 114 -283 114q-91 0 -149 -39t-58 -102q0 -29 13.5 -53.5t31.5 -41t52 -33t59.5 -26t69.5 -24.5q174 -59 211 -74q177 -74 240 -188q42 -77 42 -178z" />
    <glyph glyph-name="scedilla" unicode="&#x15f;" horiz-adv-x="968" 
d="M895 287q0 -132 -94.5 -215t-251.5 -97l-19 -69q121 6 194 -48t73 -155q0 -108 -82 -176t-213 -68t-242 62q-68 38 -29 98l9 12q19 32 42 36.5t48 -11.5q73 -41 145 -41q59 0 93 24t34 66q0 60 -58.5 82.5t-152.5 3.5q-27 -8 -41 -1t-6 34q17 59 43 158q-92 15 -171 54
t-130 93q-60 57 -4 115l35 39q53 58 114 6q120 -105 258 -105q66 0 106 27.5t40 71.5q0 22 -9.5 40t-21 30t-37 26t-41 21t-49.5 20q-13 5 -20 8q-46 16 -73 25.5t-68.5 27.5t-66 34t-54.5 40.5t-46 50.5t-27 62t-11 77q0 139 106 222.5t283 83.5q100 0 194.5 -32.5
t153.5 -88.5q30 -26 32 -51.5t-28 -65.5l-29 -37q-50 -57 -112 -10q-99 80 -211 80q-59 0 -94 -23.5t-35 -62.5q0 -11 3 -20.5t10.5 -18.5t14 -16t21 -15t24.5 -13.5t30 -13.5t32 -13t37.5 -14.5t38.5 -14.5q60 -24 100 -43.5t84 -49.5t69.5 -62t42.5 -78t17 -101z" />
    <glyph glyph-name="Scaron" unicode="&#x160;" horiz-adv-x="1189" 
d="M285 1645q-38 23 -47 45t10 57l18 33q19 29 44.5 32.5t68.5 -18.5l225 -115l223 115q43 22 68.5 18.5t44.5 -32.5l18 -33q20 -35 10.5 -57t-46.5 -45l-275 -166q-27 -16 -44 -16.5t-44 16.5zM621 811q174 -59 211 -74q177 -74 240 -188q42 -77 42 -178q0 -122 -68 -213
t-181.5 -137t-256.5 -46q-157 0 -294 54t-224 151q-64 64 -8 119l47 55q62 65 119 11q61 -69 158 -110.5t186 -41.5q109 0 174 43t65 113q0 32 -13 58t-30.5 42t-54.5 32.5t-64 25.5t-81 25.5t-86 27.5q-60 19 -107 38.5t-102.5 54t-92.5 73.5t-62 98t-25 129q0 169 135 276
t350 107q133 0 244.5 -42t191.5 -116q70 -59 15 -117l-48 -55q-57 -61 -116 -10q-130 114 -283 114q-91 0 -149 -39t-58 -102q0 -29 13.5 -53.5t31.5 -41t52 -33t59.5 -26t69.5 -24.5z" />
    <glyph glyph-name="scaron" unicode="&#x161;" horiz-adv-x="968" 
d="M182 1356q-39 23 -47.5 44t15.5 58l24 33q22 30 43.5 34.5t61.5 -16.5l213 -112l213 112q41 21 61 16.5t43 -34.5l25 -33q17 -23 17.5 -41t-12 -31.5t-38.5 -29.5l-264 -160q-26 -15 -45.5 -15t-45.5 15zM582 621q60 -24 100 -43.5t84 -49.5t69.5 -62t42.5 -78t17 -101
q0 -145 -110.5 -229.5t-292.5 -84.5q-119 0 -230 43t-176 113q-60 57 -4 115l35 39q53 58 114 6q120 -105 258 -105q66 0 106 27.5t40 71.5q0 22 -9.5 40t-21 30t-37 26t-41 21t-49.5 20q-13 5 -20 8q-46 16 -73 25.5t-68.5 27.5t-66 34t-54.5 40.5t-46 50.5t-27 62t-11 77
q0 139 106 222.5t283 83.5q100 0 194.5 -32.5t153.5 -88.5q30 -26 32 -51.5t-28 -65.5l-29 -37q-50 -57 -112 -10q-99 80 -211 80q-59 0 -94 -23.5t-35 -62.5q0 -11 3 -20.5t10.5 -18.5t14 -16t21 -15t24.5 -13.5t30 -13.5t32 -13t37.5 -14.5t38.5 -14.5z" />
    <glyph glyph-name="uni0162" unicode="&#x162;" horiz-adv-x="1175" 
d="M1069 1331q39 0 60.5 -20t21.5 -58v-71q0 -38 -22 -59t-60 -21h-342v-1020q0 -71 -61 -80l-25 -96q120 6 193 -48t73 -155q0 -108 -82 -176t-213 -68q-130 0 -241 62q-68 38 -29 98l8 12q19 32 42 36.5t48 -11.5q73 -41 146 -41q59 0 93 24t34 66q0 60 -58.5 82.5
t-152.5 3.5q-27 -8 -41 -1t-6 34q11 37 49 178q-53 15 -53 80v1020h-345q-38 0 -58.5 21t-20.5 59v71q0 78 79 78h963z" />
    <glyph glyph-name="uni0163" unicode="&#x163;" horiz-adv-x="829" 
d="M561 -94q120 6 193 -48t73 -155q0 -108 -82 -176t-213 -68q-130 0 -241 62q-68 38 -29 98l8 12q19 32 42 36.5t48 -11.5q73 -41 146 -41q59 0 93 24t34 66q0 60 -58.5 82.5t-152.5 3.5q-27 -8 -41 -1t-6 34l47 170q-104 36 -164.5 122.5t-60.5 225.5v487h-101
q-37 0 -58.5 20.5t-21.5 57.5v51q0 36 21.5 56t58.5 20h101v258q0 65 77 80l111 23q40 9 61 -13.5t21 -64.5v-283h227q37 0 58.5 -20t21.5 -56v-51q0 -37 -21.5 -57.5t-58.5 -20.5h-227v-462q0 -158 135 -158q38 0 94 31q22 16 39.5 14t28 -12t20.5 -29l37 -86
q25 -48 -35 -88q-86 -60 -208 -66z" />
    <glyph glyph-name="Tcaron" unicode="&#x164;" horiz-adv-x="1175" 
d="M270 1645q-38 23 -47 45t10 57l19 33q19 29 44.5 32.5t68.5 -18.5l225 -115l223 115q43 22 68.5 18.5t44.5 -32.5l18 -33q19 -35 10 -57t-47 -45l-274 -166q-27 -16 -44 -16.5t-44 16.5zM1069 1331q39 0 60.5 -20t21.5 -58v-71q0 -38 -22 -59t-60 -21h-342v-1020
q0 -38 -21 -60t-59 -22h-119q-38 0 -57.5 21.5t-19.5 60.5v1020h-345q-38 0 -58.5 21t-20.5 59v71q0 78 79 78h963z" />
    <glyph glyph-name="tcaron" unicode="&#x165;" horiz-adv-x="829" 
d="M801 1569q40 0 53 -20t2 -54l-96 -289q-13 -38 -30.5 -51.5t-45.5 -13.5h-45q-65 0 -55 69l41 291q6 41 26.5 54.5t57.5 13.5h92zM784 213l37 -86q25 -48 -35 -88q-92 -66 -229 -66q-156 0 -258 94t-102 275v487h-101q-37 0 -58.5 20.5t-21.5 57.5v51q0 36 21.5 56
t58.5 20h101v258q0 65 77 80l111 23q40 9 61 -13.5t21 -64.5v-283h227q37 0 58.5 -20t21.5 -56v-51q0 -37 -21.5 -57.5t-58.5 -20.5h-227v-462q0 -158 135 -158q38 0 94 31q22 16 39.5 14t28 -12t20.5 -29z" />
    <glyph glyph-name="Tbar" unicode="&#x166;" horiz-adv-x="1175" 
d="M1069 1331q39 0 60.5 -20t21.5 -58v-71q0 -38 -22 -59t-60 -21h-342v-414h158q38 0 59 -21t21 -59v-28q0 -38 -21 -59t-59 -21h-158v-418q0 -38 -21 -60t-59 -22h-119q-38 0 -57.5 21.5t-19.5 60.5v418h-158q-38 0 -60 21t-22 59v28q0 38 22 59t60 21h158v414h-345
q-38 0 -58.5 21t-20.5 59v71q0 78 79 78h963z" />
    <glyph glyph-name="tbar" unicode="&#x167;" horiz-adv-x="829" 
d="M821 127q25 -48 -35 -88q-92 -66 -229 -66q-156 0 -258 94t-102 275v127h-101q-76 0 -76 72v12q0 70 76 70h101v206h-101q-37 0 -58.5 20.5t-21.5 57.5v51q0 36 21.5 56t58.5 20h101v258q0 65 77 80l111 23q40 9 61 -13.5t21 -64.5v-283h227q37 0 58.5 -20t21.5 -56v-51
q0 -37 -21.5 -57.5t-58.5 -20.5h-227v-206h166q76 0 76 -70v-12q0 -72 -76 -72h-166v-102q0 -158 135 -158q38 0 94 31q22 16 39.5 14t28 -12t20.5 -29z" />
    <glyph glyph-name="Utilde" unicode="&#x168;" horiz-adv-x="1484" 
d="M410 1464q-72 0 -72 64q0 126 65 199t162 73q53 0 106 -21t88 -45.5t76 -45.5t74 -21q27 0 44.5 19t17.5 51q0 65 73 65h41q74 0 74 -65q0 -126 -65.5 -198.5t-161.5 -72.5q-58 0 -113 20.5t-89 45t-72 45t-66 20.5q-62 0 -68 -69q-3 -34 -20 -49t-53 -15h-41zM745 -25
q-271 0 -437.5 164.5t-166.5 433.5v678q0 38 21 59t59 21h119q78 0 78 -80v-688q0 -153 90 -246.5t237 -93.5q146 0 236 94t90 246v688q0 38 21 59t59 21h113q38 0 58.5 -21t20.5 -59v-678q0 -269 -164.5 -433.5t-433.5 -164.5z" />
    <glyph glyph-name="utilde" unicode="&#x169;" horiz-adv-x="1218" 
d="M279 1182q-70 0 -70 53q0 117 57.5 184.5t147.5 67.5q60 0 124 -29.5t121 -58.5t99 -29q59 0 59 64q0 29 16.5 41t51.5 12h39q35 0 51 -12t16 -41q0 -117 -56 -184.5t-144 -67.5q-61 0 -128 29t-124.5 58t-96.5 29q-57 0 -57 -63q0 -53 -70 -53h-36zM1006 1034
q37 0 57 -20.5t20 -57.5v-876q0 -37 -20.5 -58.5t-56.5 -21.5h-74q-37 0 -57.5 21.5t-20.5 58.5v55q-106 -162 -313 -162q-187 0 -301.5 116.5t-114.5 305.5v561q0 37 19.5 57.5t56.5 20.5h118q37 0 57.5 -20.5t20.5 -57.5v-530q0 -98 55 -157.5t148 -59.5q97 0 154 61
t57 162v524q0 37 19.5 57.5t56.5 20.5h119z" />
    <glyph glyph-name="Umacron" unicode="&#x16a;" horiz-adv-x="1484" 
d="M489 1554q-79 0 -79 78v37q0 78 79 78h506q78 0 78 -78v-37q0 -78 -78 -78h-506zM745 -25q-271 0 -437.5 164.5t-166.5 433.5v678q0 38 21 59t59 21h119q78 0 78 -80v-688q0 -153 90 -246.5t237 -93.5q146 0 236 94t90 246v688q0 38 21 59t59 21h113q38 0 58.5 -21
t20.5 -59v-678q0 -269 -164.5 -433.5t-433.5 -164.5z" />
    <glyph glyph-name="umacron" unicode="&#x16b;" horiz-adv-x="1218" 
d="M358 1268q-77 0 -77 78v28q0 78 77 78h488q80 0 80 -78v-28q0 -78 -80 -78h-488zM1006 1034q37 0 57 -20.5t20 -57.5v-876q0 -37 -20.5 -58.5t-56.5 -21.5h-74q-37 0 -57.5 21.5t-20.5 58.5v55q-106 -162 -313 -162q-187 0 -301.5 116.5t-114.5 305.5v561q0 37 19.5 57.5
t56.5 20.5h118q37 0 57.5 -20.5t20.5 -57.5v-530q0 -98 55 -157.5t148 -59.5q97 0 154 61t57 162v524q0 37 19.5 57.5t56.5 20.5h119z" />
    <glyph glyph-name="Uring" unicode="&#x16e;" horiz-adv-x="1484" 
d="M743 1462q-99 0 -169 69t-70 167t70.5 167.5t168.5 69.5q99 0 170.5 -69.5t71.5 -167.5t-71.5 -167t-170.5 -69zM743 1610q35 0 60.5 26.5t25.5 61.5q0 37 -25.5 62.5t-60.5 25.5q-34 0 -60 -26t-26 -62q0 -35 26 -61.5t60 -26.5zM745 -25q-271 0 -437.5 164.5
t-166.5 433.5v678q0 38 21 59t59 21h119q78 0 78 -80v-688q0 -153 90 -246.5t237 -93.5q146 0 236 94t90 246v688q0 38 21 59t59 21h113q38 0 58.5 -21t20.5 -59v-678q0 -269 -164.5 -433.5t-433.5 -164.5z" />
    <glyph glyph-name="uring" unicode="&#x16f;" horiz-adv-x="1218" 
d="M604 1182q-104 0 -175 69t-71 168t71 168.5t175 69.5q102 0 174 -69.5t72 -168.5q0 -98 -71.5 -167.5t-174.5 -69.5zM604 1503q-36 0 -60 -25t-24 -59t24 -58t60 -24t59 24t23 58q0 35 -23 59.5t-59 24.5zM1006 1034q37 0 57 -20.5t20 -57.5v-876q0 -37 -20.5 -58.5
t-56.5 -21.5h-74q-37 0 -57.5 21.5t-20.5 58.5v55q-106 -162 -313 -162q-187 0 -301.5 116.5t-114.5 305.5v561q0 37 19.5 57.5t56.5 20.5h118q37 0 57.5 -20.5t20.5 -57.5v-530q0 -98 55 -157.5t148 -59.5q97 0 154 61t57 162v524q0 37 19.5 57.5t56.5 20.5h119z" />
    <glyph glyph-name="Uhungarumlaut" unicode="&#x170;" horiz-adv-x="1484" 
d="M500 1464q-41 0 -49.5 17.5t12.5 54.5l119 217q22 42 44 57t56 15h123q68 0 31 -53l-185 -250q-23 -32 -43.5 -45t-52.5 -13h-55zM868 1464q-41 0 -49.5 17.5t12.5 54.5l119 217q22 42 44.5 57t56.5 15h123q67 0 30 -53l-184 -250q-23 -32 -43.5 -45t-52.5 -13h-56z
M745 -25q-271 0 -437.5 164.5t-166.5 433.5v678q0 38 21 59t59 21h119q78 0 78 -80v-688q0 -153 90 -246.5t237 -93.5q146 0 236 94t90 246v688q0 38 21 59t59 21h113q38 0 58.5 -21t20.5 -59v-678q0 -269 -164.5 -433.5t-433.5 -164.5z" />
    <glyph glyph-name="uhungarumlaut" unicode="&#x171;" horiz-adv-x="1218" 
d="M379 1182q-35 0 -46.5 19.5t1.5 51.5l98 254q14 39 37 53.5t59 14.5h78q35 0 49.5 -19t-2.5 -51l-151 -266q-35 -57 -99 -57h-24zM750 1182q-35 0 -46.5 19.5t1.5 51.5l98 254q14 39 37 53.5t59 14.5h78q35 0 49.5 -19t-2.5 -51l-152 -266q-35 -57 -98 -57h-24z
M1006 1034q37 0 57 -20.5t20 -57.5v-876q0 -37 -20.5 -58.5t-56.5 -21.5h-74q-37 0 -57.5 21.5t-20.5 58.5v55q-106 -162 -313 -162q-187 0 -301.5 116.5t-114.5 305.5v561q0 37 19.5 57.5t56.5 20.5h118q37 0 57.5 -20.5t20.5 -57.5v-530q0 -98 55 -157.5t148 -59.5
q97 0 154 61t57 162v524q0 37 19.5 57.5t56.5 20.5h119z" />
    <glyph glyph-name="Uogonek" unicode="&#x172;" horiz-adv-x="1484" 
d="M1264 1331q38 0 58.5 -21t20.5 -59v-678q0 -198 -91.5 -343t-254.5 -210q-86 -76 -86 -159q0 -69 45.5 -92t112.5 -2q26 11 50 4.5t38 -39.5l8 -17q26 -61 -45 -92q-65 -33 -137.5 -33.5t-130 26.5t-95.5 83t-38 129q0 76 55 147h-29q-271 0 -437.5 164.5t-166.5 433.5
v678q0 38 21 59t59 21h119q78 0 78 -80v-688q0 -153 90 -246.5t237 -93.5q146 0 236 94t90 246v688q0 38 21 59t59 21h113z" />
    <glyph glyph-name="uogonek" unicode="&#x173;" horiz-adv-x="1218" 
d="M1137 -340q26 -61 -45 -92q-65 -33 -137.5 -33.5t-130.5 26.5t-96 83t-38 129q0 129 176 258q-12 18 -12 49v55q-106 -162 -313 -162q-187 0 -301.5 116.5t-114.5 305.5v561q0 37 19.5 57.5t56.5 20.5h118q37 0 57.5 -20.5t20.5 -57.5v-530q0 -98 55 -157.5t148 -59.5
q97 0 154 61t57 162v524q0 37 19.5 57.5t56.5 20.5h119q37 0 57 -20.5t20 -57.5v-876q0 -35 -18.5 -56t-50.5 -24q-57 -36 -94 -90t-37 -105q0 -69 45 -92t112 -2q26 11 50 4.5t38 -39.5z" />
    <glyph glyph-name="Wcircumflex" unicode="&#x174;" horiz-adv-x="1966" 
d="M649 1497l-20 31q-36 59 37 104l274 166q29 15 46 14.5t44 -14.5l275 -166q72 -44 36 -104l-20 -31q-19 -31 -44.5 -34.5t-68.5 18.5l-223 116l-223 -116q-43 -22 -68.5 -18.5t-44.5 34.5zM1864 1331q40 0 58.5 -20.5t4.5 -57.5l-444 -1187q-15 -41 -37 -58.5t-57 -17.5
h-15q-34 0 -56.5 17.5t-37.5 58.5l-299 817l-295 -817q-15 -41 -37 -58.5t-57 -17.5h-14q-67 0 -95 76l-444 1187q-13 37 5.5 57.5t57.5 20.5h117q85 0 111 -78l270 -811l279 826q26 73 96 73h16q73 0 96 -73l285 -832l277 817q26 78 108 78h107z" />
    <glyph glyph-name="wcircumflex" unicode="&#x175;" horiz-adv-x="1599" 
d="M469 1217l-23 34q-41 58 31 103l264 157q26 15 45 15t45 -15l265 -157q71 -45 30 -103l-22 -34q-20 -31 -42.5 -35t-62.5 16l-213 113l-213 -113q-40 -20 -62 -16t-42 35zM1507 1034q36 0 53.5 -22t4.5 -56l-346 -890q-17 -41 -40 -58.5t-57 -17.5h-12q-68 0 -96 76
l-215 602l-217 -602q-28 -76 -97 -76h-12q-34 0 -56.5 17.5t-39.5 58.5l-342 890q-13 34 4 56t53 22h115q77 0 98 -78l184 -618l211 633q13 41 36 57t59 16h10q70 0 94 -73l211 -621l182 606q24 78 99 78h116z" />
    <glyph glyph-name="Ycircumflex" unicode="&#x176;" horiz-adv-x="1327" 
d="M334 1497l-21 31q-36 59 37 104l275 166q29 15 46 14.5t44 -14.5l274 -166q73 -45 37 -104l-20 -31q-19 -31 -44.5 -34.5t-68.5 18.5l-223 116l-224 -116q-43 -22 -68 -18.5t-44 34.5zM1212 1331q39 0 56.5 -19.5t-0.5 -54.5l-463 -763v-412q0 -39 -20 -60.5t-58 -21.5
h-119q-38 0 -59 22t-21 60v410l-473 765q-20 34 -2 54t58 20h129q37 0 64 -18.5t52 -59.5l314 -524l305 524q44 78 117 78h120z" />
    <glyph glyph-name="ycircumflex" unicode="&#x177;" horiz-adv-x="1107" 
d="M248 1217l-23 34q-41 58 31 103l264 157q26 15 45 15t45 -15l264 -157q72 -45 31 -103l-22 -34q-20 -31 -42.5 -35t-62.5 16l-213 113l-213 -113q-40 -20 -62 -16t-42 35zM1016 1034q37 0 54.5 -22.5t2.5 -55.5l-471 -1083q-62 -145 -147.5 -203.5t-200.5 -58.5
q-88 0 -156 33q-57 29 -41 80l23 79q19 60 90 35q35 -14 72 -14q41 0 71 19.5t56 76.5l69 154l-397 882q-15 33 2.5 55.5t54.5 22.5h133q68 0 97 -78l243 -616l244 616q29 78 94 78h107z" />
    <glyph glyph-name="Ydieresis" unicode="&#x178;" horiz-adv-x="1327" 
d="M442 1483q-69 0 -119.5 50t-50.5 118q0 69 50.5 119.5t119.5 50.5t119.5 -50.5t50.5 -119.5q0 -68 -51 -118t-119 -50zM891 1483q-67 0 -117.5 50.5t-50.5 117.5q0 69 50 119.5t118 50.5q69 0 119.5 -50.5t50.5 -119.5t-50.5 -118.5t-119.5 -49.5zM1212 1331
q39 0 56.5 -19.5t-0.5 -54.5l-463 -763v-412q0 -39 -20 -60.5t-58 -21.5h-119q-38 0 -59 22t-21 60v410l-473 765q-20 34 -2 54t58 20h129q37 0 64 -18.5t52 -59.5l314 -524l305 524q44 78 117 78h120z" />
    <glyph glyph-name="Zacute" unicode="&#x179;" horiz-adv-x="1206" 
d="M389 1497l-20 31q-20 35 -13 57t41 43l316 199q47 27 68.5 21.5t41.5 -40.5l45 -75q23 -42 13.5 -62.5t-54.5 -40.5l-335 -151q-40 -17 -63 -13.5t-40 31.5zM1077 225q38 0 59 -21t21 -59v-65q0 -38 -21 -59t-59 -21h-942q-36 0 -56 19t-20 53v69q0 18 8.5 37t16.5 30
t25 30l659 870h-596q-39 0 -60.5 20t-21.5 58v67q0 38 21.5 58t60.5 20h870q78 0 78 -71v-68q0 -12 -2.5 -22.5t-9 -21.5t-10 -17t-14 -19.5t-13.5 -17.5l-653 -869h659z" />
    <glyph glyph-name="zacute" unicode="&#x17a;" horiz-adv-x="1001" 
d="M276 1204l-26 47q-33 49 29 92l315 205q58 42 92 -10l49 -90q36 -58 -26 -90l-344 -162q-64 -30 -89 8zM139 0q-37 0 -58.5 21.5t-21.5 58.5v72q0 20 10 39.5t21 33t41 45.5l471 561h-446q-38 0 -59 20.5t-21 57.5v49q0 36 21.5 56t58.5 20h686q37 0 58.5 -20.5
t21.5 -57.5v-71q0 -28 -16 -52.5t-56 -70.5l-457 -559h481q37 0 57.5 -19.5t20.5 -56.5v-49q0 -37 -20 -57.5t-58 -20.5h-735z" />
    <glyph glyph-name="Zdotaccent" unicode="&#x17b;" horiz-adv-x="1206" 
d="M616 1483q-69 0 -121.5 52.5t-52.5 121.5q0 71 52 123.5t122 52.5q72 0 124.5 -52t52.5 -124q0 -70 -53.5 -122t-123.5 -52zM1077 225q38 0 59 -21t21 -59v-65q0 -38 -21 -59t-59 -21h-942q-36 0 -56 19t-20 53v69q0 18 8.5 37t16.5 30t25 30l659 870h-596
q-39 0 -60.5 20t-21.5 58v67q0 38 21.5 58t60.5 20h870q78 0 78 -71v-68q0 -12 -2.5 -22.5t-9 -21.5t-10 -17t-14 -19.5t-13.5 -17.5l-653 -869h659z" />
    <glyph glyph-name="zdotaccent" unicode="&#x17c;" horiz-adv-x="1001" 
d="M508 1206q-74 0 -125 51t-51 125q0 72 51.5 124.5t124.5 52.5q72 0 124 -52.5t52 -124.5q0 -73 -52 -124.5t-124 -51.5zM139 0q-37 0 -58.5 21.5t-21.5 58.5v72q0 20 10 39.5t21 33t41 45.5l471 561h-446q-38 0 -59 20.5t-21 57.5v49q0 36 21.5 56t58.5 20h686
q37 0 58.5 -20.5t21.5 -57.5v-71q0 -28 -16 -52.5t-56 -70.5l-457 -559h481q37 0 57.5 -19.5t20.5 -56.5v-49q0 -37 -20 -57.5t-58 -20.5h-735z" />
    <glyph glyph-name="Zcaron" unicode="&#x17d;" horiz-adv-x="1206" 
d="M299 1645q-38 23 -47 45t10 57l19 33q19 29 44 32.5t68 -18.5l225 -115l224 115q43 22 68 18.5t44 -32.5l19 -33q19 -35 10 -57t-47 -45l-274 -166q-27 -16 -44.5 -16.5t-44.5 16.5zM1077 225q38 0 59 -21t21 -59v-65q0 -38 -21 -59t-59 -21h-942q-36 0 -56 19t-20 53v69
q0 18 8.5 37t16.5 30t25 30l659 870h-596q-39 0 -60.5 20t-21.5 58v67q0 38 21.5 58t60.5 20h870q78 0 78 -71v-68q0 -12 -2.5 -22.5t-9 -21.5t-10 -17t-14 -19.5t-13.5 -17.5l-653 -869h659z" />
    <glyph glyph-name="zcaron" unicode="&#x17e;" horiz-adv-x="1001" 
d="M195 1356q-26 16 -38.5 29.5t-12 31.5t17.5 41l24 33q22 30 43.5 34.5t61.5 -16.5l213 -112l213 112q41 21 61 16.5t43 -34.5l25 -33q17 -23 17.5 -41t-12 -31.5t-38.5 -29.5l-264 -160q-26 -15 -45 -15t-45 15zM874 203q37 0 57.5 -19.5t20.5 -56.5v-49q0 -37 -20 -57.5
t-58 -20.5h-735q-37 0 -58.5 21.5t-21.5 58.5v72q0 20 10 39.5t21 33t41 45.5l471 561h-446q-38 0 -59 20.5t-21 57.5v49q0 36 21.5 56t58.5 20h686q37 0 58.5 -20.5t21.5 -57.5v-71q0 -28 -16 -52.5t-56 -70.5l-457 -559h481z" />
    <glyph glyph-name="uni01EA" unicode="&#x1ea;" horiz-adv-x="1601" 
d="M1049 14q-43 -37 -70 -82t-27 -88q0 -69 45.5 -92t112.5 -2q26 11 50 4.5t38 -39.5l8 -16q26 -61 -45 -92q-65 -33 -137.5 -33.5t-130 26.5t-95.5 83t-38 129q0 84 69 163h-28q-151 0 -285.5 53t-230.5 144t-151.5 219.5t-55.5 274.5q0 194 94.5 352.5t260.5 248
t368 89.5q152 0 286.5 -52.5t230 -144t151 -219.5t55.5 -274q0 -230 -130.5 -406t-344.5 -246zM360 666q0 -191 127 -316t314 -125q123 0 224 56.5t159.5 157.5t58.5 227q0 192 -127 316t-315 124t-314.5 -124t-126.5 -316z" />
    <glyph glyph-name="uni01EB" unicode="&#x1eb;" horiz-adv-x="1259" 
d="M795 -6q-45 -36 -73 -82.5t-28 -89.5q0 -69 45.5 -92t112.5 -2q26 11 50 4.5t38 -39.5l8 -17q26 -61 -45 -92q-65 -33 -137.5 -33.5t-130 26.5t-95.5 83t-38 129q0 96 90 186q-227 12 -374.5 164t-147.5 373q0 231 159.5 385t401.5 154t400.5 -154t158.5 -385
q0 -188 -108.5 -329t-286.5 -189zM340 512q0 -131 82 -216t209 -85q126 0 207.5 85t81.5 216t-81.5 217t-207.5 86t-208.5 -86t-82.5 -217z" />
    <glyph glyph-name="AEacute" unicode="&#x1fc;" horiz-adv-x="1996" 
d="M1178 1497l-21 31q-20 35 -12.5 57t41.5 43l315 199q47 27 69 21.5t42 -40.5l45 -75q23 -42 13.5 -62.5t-54.5 -40.5l-336 -151q-40 -17 -62.5 -13.5t-39.5 31.5zM1839 229q39 0 60.5 -19.5t21.5 -57.5v-72q0 -38 -22 -59t-60 -21h-790q-38 0 -59 22t-21 60v170h-570
l-114 -172q-27 -43 -49 -61.5t-58 -18.5h-127q-42 0 -59.5 21.5t4.5 58.5l803 1175q26 36 64 56t77 20h897q80 0 80 -78v-71q0 -38 -21 -59t-59 -21h-592v-324h445q79 0 79 -78v-61q0 -38 -20.5 -59t-58.5 -21h-445v-330h594zM530 451h439v661z" />
    <glyph glyph-name="aeacute" unicode="&#x1fd;" horiz-adv-x="1896" 
d="M698 1204l-26 47q-33 49 28 92l316 205q58 42 92 -10l49 -90q36 -58 -27 -90l-344 -162q-63 -29 -88 8zM467 -27q-180 0 -290.5 91t-110.5 239q0 157 120.5 252.5t317.5 95.5q125 0 268 -59v59q-1 90 -63 141.5t-168 51.5q-144 0 -262 -80q-63 -38 -103 29l-18 32
q-42 71 24 117q168 109 373 109q256 0 375 -158q70 75 167.5 116.5t209.5 41.5q230 0 374 -144q72 -70 111 -167.5t39 -204.5q0 -44 -19.5 -64t-64.5 -20h-709q12 -127 101 -199t213 -72q142 0 260 92q29 23 50.5 24t47.5 -24l49 -49q45 -45 0 -94q-74 -75 -194.5 -115.5
t-237.5 -40.5q-132 0 -247.5 53t-188.5 148q-70 -92 -184 -146.5t-240 -54.5zM1040 618h525q-15 97 -74 156q-70 76 -188 76q-107 0 -177.5 -63t-85.5 -169zM526 160q99 0 174.5 67.5t75.5 153.5v37q-120 59 -235 59q-96 0 -154.5 -45t-58.5 -119q0 -69 54.5 -111t143.5 -42
z" />
    <glyph glyph-name="Oslashacute" unicode="&#x1fe;" horiz-adv-x="1601" 
d="M596 1497l-21 31q-20 35 -12.5 57t41.5 43l316 199q47 27 68.5 21.5t41.5 -40.5l45 -75q23 -42 13.5 -62.5t-54.5 -40.5l-336 -151q-40 -17 -62.5 -13.5t-39.5 31.5zM1286 1188q112 -96 175 -230.5t63 -291.5q0 -145 -55.5 -273.5t-151 -220t-230 -144.5t-286.5 -53
q-151 0 -287 54l-41 -64q-52 -78 -129 -78h-100q-39 0 -54 26t7 60l116 174q-111 96 -173 230t-62 289q0 194 94.5 352.5t260.5 248t368 89.5q144 0 280 -49l56 84q51 77 131 77h100q38 0 53 -26t-6 -60zM360 666q0 -167 103 -291l473 712q-68 19 -135 19
q-188 0 -314.5 -124t-126.5 -316zM801 225q123 0 224 56.5t159.5 157.5t58.5 227q0 174 -108 295l-476 -715q79 -21 142 -21z" />
    <glyph glyph-name="oslashacute" unicode="&#x1ff;" horiz-adv-x="1259" 
d="M408 1204l-27 47q-33 49 29 92l315 205q58 42 92 -10l49 -90q36 -58 -26 -90l-344 -162q-63 -29 -88 8zM1034 895q74 -73 115 -171.5t41 -211.5q0 -231 -158.5 -385t-400.5 -154q-118 0 -211 37l-21 -30q-28 -40 -54.5 -60t-61.5 -20h-115q-40 0 -51.5 23t14.5 63l98 141
q-159 153 -159 385q0 231 159.5 385t401.5 154q120 0 213 -37l41 57q56 80 119 80h124q38 0 46 -22.5t-17 -57.5zM340 512q0 -97 43 -164l317 459q-27 8 -69 8q-126 0 -208.5 -86t-82.5 -217zM631 211q126 0 207.5 85t81.5 216q0 90 -39 160l-316 -455q30 -6 66 -6z" />
    <glyph glyph-name="uni0218" unicode="&#x218;" horiz-adv-x="1189" 
d="M608 -25q-157 0 -294 54t-224 151q-64 64 -8 119l47 55q62 65 119 11q61 -69 158 -110.5t186 -41.5q109 0 174 43t65 113q0 32 -13 58t-30.5 42t-54.5 32.5t-64 25.5t-81 25.5t-86 27.5q-60 19 -107 38.5t-102.5 54t-92.5 73.5t-62 98t-25 129q0 169 135 276t350 107
q133 0 244.5 -42t191.5 -116q70 -59 15 -117l-48 -55q-57 -61 -116 -10q-130 114 -283 114q-91 0 -149 -39t-58 -102q0 -29 13.5 -53.5t31.5 -41t52 -33t59.5 -26t69.5 -24.5q174 -59 211 -74q177 -74 240 -188q42 -77 42 -178q0 -122 -68 -213t-181.5 -137t-256.5 -46z
M494 -528q-65 0 -56 71l37 269q6 40 25 53.5t57 13.5h94q40 0 54 -20.5t2 -53.5l-93 -266q-13 -38 -30 -52.5t-45 -14.5h-45z" />
    <glyph glyph-name="uni0219" unicode="&#x219;" horiz-adv-x="968" 
d="M492 -27q-119 0 -230 43t-176 113q-60 57 -4 115l35 39q53 58 114 6q120 -105 258 -105q66 0 106 27.5t40 71.5q0 22 -9.5 40t-21 30t-37 26t-41 21t-49.5 20q-13 5 -20 8q-46 16 -73 25.5t-68.5 27.5t-66 34t-54.5 40.5t-46 50.5t-27 62t-11 77q0 139 106 222.5
t283 83.5q100 0 194.5 -32.5t153.5 -88.5q30 -26 32 -51.5t-28 -65.5l-29 -37q-50 -57 -112 -10q-99 80 -211 80q-59 0 -94 -23.5t-35 -62.5q0 -11 3 -20.5t10.5 -18.5t14 -16t21 -15t24.5 -13.5t30 -13.5t32 -13t37.5 -14.5t38.5 -14.5q60 -24 100 -43.5t84 -49.5t69.5 -62
t42.5 -78t17 -101q0 -145 -110.5 -229.5t-292.5 -84.5zM365 -528q-65 0 -56 71l37 269q6 40 25 53.5t57 13.5h94q40 0 54 -20.5t2 -53.5l-93 -266q-13 -38 -30 -52.5t-45 -14.5h-45z" />
    <glyph glyph-name="uni021A" unicode="&#x21a;" horiz-adv-x="1175" 
d="M528 0q-38 0 -57.5 21.5t-19.5 60.5v1020h-345q-38 0 -58.5 21t-20.5 59v71q0 78 79 78h963q39 0 60.5 -20t21.5 -58v-71q0 -38 -22 -59t-60 -21h-342v-1020q0 -38 -21 -60t-59 -22h-119zM473 -528q-64 0 -55 71l37 269q6 40 25 53.5t57 13.5h94q40 0 53.5 -20.5
t1.5 -53.5l-92 -266q-13 -38 -30.5 -52.5t-45.5 -14.5h-45z" />
    <glyph glyph-name="uni021B" unicode="&#x21b;" horiz-adv-x="829" 
d="M821 127q25 -48 -35 -88q-92 -66 -229 -66q-156 0 -258 94t-102 275v487h-101q-37 0 -58.5 20.5t-21.5 57.5v51q0 36 21.5 56t58.5 20h101v258q0 65 77 80l111 23q40 9 61 -13.5t21 -64.5v-283h227q37 0 58.5 -20t21.5 -56v-51q0 -37 -21.5 -57.5t-58.5 -20.5h-227v-462
q0 -158 135 -158q38 0 94 31q22 16 39.5 14t28 -12t20.5 -29zM553 -121q40 0 53.5 -20.5t1.5 -53.5l-92 -266q-13 -38 -30.5 -52.5t-45.5 -14.5h-45q-64 0 -55 71l37 269q6 40 25 53.5t57 13.5h94z" />
    <glyph glyph-name="uni0237" unicode="&#x237;" horiz-adv-x="548" 
d="M133 -377q-75 -37 -113 31l-43 80q-36 69 35 110q55 31 81.5 62t37 80t10.5 141v829q0 37 19.5 57.5t56.5 20.5h119q37 0 57.5 -20.5t20.5 -57.5v-833q0 -214 -56 -315t-225 -185z" />
    <glyph glyph-name="circumflex" unicode="&#x2c6;" horiz-adv-x="921" 
d="M762 1354q72 -45 31 -103l-23 -34q-20 -31 -42 -35t-62 16l-213 113l-213 -113q-40 -20 -62.5 -16t-42.5 35l-22 34q-41 58 30 103l265 157q26 15 45 15t45 -15z" />
    <glyph glyph-name="caron" unicode="&#x2c7;" horiz-adv-x="913" 
d="M795 1430q42 -60 -31 -103l-264 -160q-27 -14 -45 -14.5t-45 14.5l-265 160q-73 43 -30 103l22 34q21 30 43 34t62 -17l213 -113l213 113q40 21 61.5 17t42.5 -34z" />
    <glyph glyph-name="breve" unicode="&#x2d8;" horiz-adv-x="806" 
d="M406 1182q-77 0 -141 27t-104.5 71t-64.5 95.5t-30 105.5q-2 31 14 50t51 19h49q36 0 52 -19t24 -50q34 -138 150 -138q65 0 99.5 37t49.5 101q13 69 76 69h47q36 0 52 -19t13 -50q-5 -54 -29 -105.5t-64.5 -95.5t-104 -71t-139.5 -27z" />
    <glyph glyph-name="dotaccent" unicode="&#x2d9;" horiz-adv-x="458" 
d="M233 1206q-73 0 -124.5 51t-51.5 125q0 72 51.5 124.5t124.5 52.5q72 0 124.5 -52.5t52.5 -124.5q0 -73 -52.5 -124.5t-124.5 -51.5z" />
    <glyph glyph-name="ring" unicode="&#x2da;" horiz-adv-x="657" 
d="M330 1182q-104 0 -175 69t-71 168t71 168.5t175 69.5q102 0 173.5 -69.5t71.5 -168.5t-71.5 -168t-173.5 -69zM330 1337q36 0 59 24t23 58q0 35 -23 59.5t-59 24.5t-60 -25t-24 -59t24 -58t60 -24z" />
    <glyph glyph-name="ogonek" unicode="&#x2db;" horiz-adv-x="661" 
d="M500 -432q-65 -33 -137.5 -33.5t-130.5 26.5t-96 83t-38 129q0 138 195 270l160 -25q-68 -35 -115 -95t-47 -118q0 -69 45.5 -92t112.5 -2q26 11 50 4.5t38 -39.5l8 -16q26 -61 -45 -92z" />
    <glyph glyph-name="tilde" unicode="&#x2dc;" horiz-adv-x="929" 
d="M143 1182q-69 0 -69 53q0 117 57.5 184.5t147.5 67.5q60 0 124 -29.5t121 -58.5t99 -29q59 0 59 64q0 29 16.5 41t51.5 12h38q35 0 51.5 -12t16.5 -41q0 -117 -56 -184.5t-145 -67.5q-61 0 -127.5 29t-124 58t-96.5 29q-57 0 -57 -63q0 -53 -70 -53h-37z" />
    <glyph glyph-name="hungarumlaut" unicode="&#x2dd;" horiz-adv-x="851" 
d="M133 1182q-35 0 -46.5 19.5t1.5 51.5l98 254q14 39 37 53.5t60 14.5h77q35 0 50 -19t-2 -51l-152 -266q-35 -57 -98 -57h-25zM504 1182q-35 0 -46.5 19.5t1.5 51.5l98 254q14 39 37 53.5t59 14.5h78q35 0 49.5 -19t-2.5 -51l-151 -266q-35 -57 -99 -57h-24z" />
    <glyph glyph-name="gravecomb" unicode="&#x300;" 
d="M-125 1204q-25 -37 -88 -8l-344 162q-63 32 -27 90l49 90q34 53 93 10l315 -205q62 -43 29 -92z" />
    <glyph glyph-name="acutecomb" unicode="&#x301;" 
d="M-539 1204l-26 47q-33 49 28 92l316 205q58 42 92 -10l49 -90q36 -58 -26 -90l-345 -162q-63 -29 -88 8z" />
    <glyph glyph-name="uni0302" unicode="&#x302;" 
d="M-145 1354q71 -45 30 -103l-22 -34q-20 -31 -42.5 -35t-62.5 16l-213 113l-213 -113q-40 -20 -62 -16t-42 35l-23 34q-41 58 31 103l264 157q26 15 45 15t45 -15z" />
    <glyph glyph-name="tildecomb" unicode="&#x303;" 
d="M-791 1182q-69 0 -69 53q0 117 57.5 184.5t147.5 67.5q60 0 124 -29.5t121 -58.5t99 -29q59 0 59 64q0 29 16.5 41t51.5 12h39q35 0 51 -12t16 -41q0 -117 -56 -184.5t-145 -67.5q-61 0 -127.5 29t-124 58t-96.5 29q-57 0 -57 -63q0 -53 -70 -53h-37z" />
    <glyph glyph-name="uni0304" unicode="&#x304;" 
d="M-733 1268q-78 0 -78 78v28q0 78 78 78h487q80 0 80 -78v-28q0 -78 -80 -78h-487z" />
    <glyph glyph-name="uni0306" unicode="&#x306;" 
d="M-403 1182q-77 0 -141 27t-104.5 71t-64.5 95.5t-30 105.5q-2 31 14 50t51 19h49q36 0 52 -19t24 -50q34 -138 150 -138q65 0 99.5 37t49.5 101q13 69 76 69h47q36 0 52 -19t13 -50q-5 -54 -29 -105.5t-64.5 -95.5t-104 -71t-139.5 -27z" />
    <glyph glyph-name="uni0307" unicode="&#x307;" 
d="M-305 1206q-73 0 -124.5 51t-51.5 125q0 72 51.5 124.5t124.5 52.5q72 0 124 -52.5t52 -124.5q0 -73 -52 -124.5t-124 -51.5z" />
    <glyph glyph-name="uni0308" unicode="&#x308;" 
d="M-688 1206q-70 0 -121 51t-51 121q0 72 50.5 122t121.5 50q72 0 122 -50t50 -122q0 -71 -50 -121.5t-122 -50.5zM-244 1206q-72 0 -123 50.5t-51 121.5q0 72 51 122t123 50q71 0 121.5 -50t50.5 -122q0 -70 -51 -121t-121 -51z" />
    <glyph glyph-name="uni030A" unicode="&#x30a;" 
d="M-328 1182q-104 0 -174.5 69t-70.5 168t70.5 168.5t174.5 69.5q102 0 174 -69.5t72 -168.5q0 -98 -71.5 -167.5t-174.5 -69.5zM-328 1337q36 0 59 24t23 58q0 35 -23 59.5t-59 24.5t-60 -25t-24 -59t24 -58t60 -24z" />
    <glyph glyph-name="uni030B" unicode="&#x30b;" 
d="M-752 1182q-35 0 -46.5 19.5t1.5 51.5l99 254q14 39 37 53.5t59 14.5h78q35 0 49.5 -19t-2.5 -51l-152 -266q-35 -57 -98 -57h-25zM-381 1182q-35 0 -46.5 19.5t1.5 51.5l98 254q14 39 37 53.5t60 14.5h77q35 0 50 -19t-2 -51l-152 -266q-35 -57 -98 -57h-25z" />
    <glyph glyph-name="uni030C" unicode="&#x30c;" 
d="M-113 1458q24 -37 15.5 -58t-47.5 -44l-265 -160q-26 -15 -45 -15t-45 15l-264 160q-26 16 -38.5 29.5t-12 31.5t17.5 41l25 33q23 30 43 34.5t61 -16.5l213 -112l213 112q40 21 61.5 16.5t43.5 -34.5z" />
    <glyph glyph-name="uni0312" unicode="&#x312;" 
d="M-147 1595q67 0 57 -69l-39 -277q-7 -42 -25 -54.5t-57 -12.5h-94q-40 0 -53.5 19t-1.5 52l94 277q13 38 30.5 51.5t45.5 13.5h43z" />
    <glyph glyph-name="uni0326" unicode="&#x326;" 
d="M-311 -512q-66 0 -56 72l37 268q6 40 25 54t57 14h94q40 0 54 -20.5t2 -53.5l-92 -266q-13 -38 -30.5 -53t-45.5 -15h-45z" />
    <glyph glyph-name="uni0327" unicode="&#x327;" 
d="M-373 -106q121 6 194 -48t73 -155q0 -108 -82 -176t-213 -68q-133 0 -242 61q-69 39 -29 99l8 12q19 32 42.5 36.5t48.5 -11.5q73 -41 145 -41q59 0 93 24t34 66q0 60 -58.5 82.5t-152.5 3.5q-27 -8 -41 -1t-6 34q38 135 61 229v35l162 2v-37z" />
    <glyph glyph-name="uni0328" unicode="&#x328;" 
d="M-285 -432q-65 -33 -137.5 -33.5t-130 26.5t-95.5 83t-38 129q0 138 194 270l160 -25q-68 -35 -115 -95t-47 -118q0 -69 45.5 -92t112.5 -2q26 11 50 4.5t38 -39.5l8 -16q26 -61 -45 -92z" />
    <glyph glyph-name="uni0335" unicode="&#x335;" 
d="M-702 573q-38 0 -60 21t-22 59v29q0 38 22 59t60 21h591q38 0 59 -21t21 -59v-29q0 -38 -21 -59t-59 -21h-591z" />
    <glyph glyph-name="uni0336" unicode="&#x336;" 
d="M-1374 973q-68 0 -68 65v27q0 68 68 68h1251q68 0 68 -68v-27q0 -65 -68 -65h-1251z" />
    <glyph glyph-name="uni0337" unicode="&#x337;" 
d="M-594 489q-47 -23 -70.5 -6.5t-23.5 64.5v43q0 39 15 57.5t57 38.5l464 246q47 23 71 6.5t24 -64.5v-43q0 -39 -15 -57.5t-55 -38.5z" />
    <glyph glyph-name="uni0338" unicode="&#x338;" 
d="M-1106 55q-38 0 -46 21.5t17 56.5l758 1092q28 40 54.5 60t62.5 20h125q38 0 47 -22.5t-16 -57.5l-758 -1092q-55 -78 -119 -78h-125z" />
    <glyph glyph-name="Wgrave" unicode="&#x1e80;" horiz-adv-x="1966" 
d="M788 1630q-46 20 -56 40.5t13 62.5l46 75q15 24 27.5 33.5t33 7t51.5 -21.5l316 -199q34 -21 41 -43t-15 -57l-18 -31q-19 -28 -41.5 -31.5t-63.5 13.5zM1864 1331q40 0 58.5 -20.5t4.5 -57.5l-444 -1187q-15 -41 -37 -58.5t-57 -17.5h-15q-34 0 -56.5 17.5t-37.5 58.5
l-299 817l-295 -817q-15 -41 -37 -58.5t-57 -17.5h-14q-67 0 -95 76l-444 1187q-13 37 5.5 57.5t57.5 20.5h117q85 0 111 -78l270 -811l279 826q26 73 96 73h16q73 0 96 -73l285 -832l277 817q26 78 108 78h107z" />
    <glyph glyph-name="wgrave" unicode="&#x1e81;" horiz-adv-x="1599" 
d="M584 1358q-63 32 -27 90l49 90q34 52 92 10l316 -205q61 -43 28 -92l-26 -47q-25 -37 -88 -8zM1507 1034q36 0 53.5 -22t4.5 -56l-346 -890q-17 -41 -40 -58.5t-57 -17.5h-12q-68 0 -96 76l-215 602l-217 -602q-28 -76 -97 -76h-12q-34 0 -56.5 17.5t-39.5 58.5l-342 890
q-13 34 4 56t53 22h115q77 0 98 -78l184 -618l211 633q13 41 36 57t59 16h10q70 0 94 -73l211 -621l182 606q24 78 99 78h116z" />
    <glyph glyph-name="Wacute" unicode="&#x1e82;" horiz-adv-x="1966" 
d="M756 1497l-21 31q-20 35 -12.5 57t41.5 43l315 199q47 27 69 21.5t42 -40.5l45 -75q23 -42 13.5 -62.5t-54.5 -40.5l-336 -151q-40 -17 -62.5 -13.5t-39.5 31.5zM1864 1331q40 0 58.5 -20.5t4.5 -57.5l-444 -1187q-15 -41 -37 -58.5t-57 -17.5h-15q-34 0 -56.5 17.5
t-37.5 58.5l-299 817l-295 -817q-15 -41 -37 -58.5t-57 -17.5h-14q-67 0 -95 76l-444 1187q-13 37 5.5 57.5t57.5 20.5h117q85 0 111 -78l270 -811l279 826q26 73 96 73h16q73 0 96 -73l285 -832l277 817q26 78 108 78h107z" />
    <glyph glyph-name="wacute" unicode="&#x1e83;" horiz-adv-x="1599" 
d="M559 1204l-27 47q-33 49 29 92l316 205q58 42 92 -10l49 -90q36 -58 -27 -90l-344 -162q-63 -29 -88 8zM1507 1034q36 0 53.5 -22t4.5 -56l-346 -890q-17 -41 -40 -58.5t-57 -17.5h-12q-68 0 -96 76l-215 602l-217 -602q-28 -76 -97 -76h-12q-34 0 -56.5 17.5t-39.5 58.5
l-342 890q-13 34 4 56t53 22h115q77 0 98 -78l184 -618l211 633q13 41 36 57t59 16h10q70 0 94 -73l211 -621l182 606q24 78 99 78h116z" />
    <glyph glyph-name="Wdieresis" unicode="&#x1e84;" horiz-adv-x="1966" 
d="M758 1483q-69 0 -119.5 50t-50.5 118q0 69 50.5 119.5t119.5 50.5t119.5 -50.5t50.5 -119.5q0 -68 -51 -118t-119 -50zM1206 1483q-68 0 -118 50.5t-50 117.5q0 69 50 119.5t118 50.5q69 0 119.5 -50.5t50.5 -119.5t-50.5 -118.5t-119.5 -49.5zM1864 1331
q40 0 58.5 -20.5t4.5 -57.5l-444 -1187q-15 -41 -37 -58.5t-57 -17.5h-15q-34 0 -56.5 17.5t-37.5 58.5l-299 817l-295 -817q-15 -41 -37 -58.5t-57 -17.5h-14q-67 0 -95 76l-444 1187q-13 37 5.5 57.5t57.5 20.5h117q85 0 111 -78l270 -811l279 826q26 73 96 73h16
q73 0 96 -73l285 -832l277 817q26 78 108 78h107z" />
    <glyph glyph-name="wdieresis" unicode="&#x1e85;" horiz-adv-x="1599" 
d="M567 1206q-71 0 -121.5 51t-50.5 121q0 72 50.5 122t121.5 50q72 0 122 -50t50 -122q0 -71 -50 -121.5t-122 -50.5zM1012 1206q-72 0 -123 50.5t-51 121.5q0 72 51 122t123 50q71 0 121.5 -50t50.5 -122q0 -70 -51 -121t-121 -51zM1507 1034q36 0 53.5 -22t4.5 -56
l-346 -890q-17 -41 -40 -58.5t-57 -17.5h-12q-68 0 -96 76l-215 602l-217 -602q-28 -76 -97 -76h-12q-34 0 -56.5 17.5t-39.5 58.5l-342 890q-13 34 4 56t53 22h115q77 0 98 -78l184 -618l211 633q13 41 36 57t59 16h10q70 0 94 -73l211 -621l182 606q24 78 99 78h116z" />
    <glyph glyph-name="uni1E9E" unicode="&#x1e9e;" horiz-adv-x="1374" 
d="M827 -25q-141 0 -266 58q-72 40 -37 108l29 66q35 63 106 35q60 -29 121 -29q114 0 179 60.5t65 150.5q0 91 -67.5 150t-188.5 59h-43q-76 0 -76 72v49q0 57 45 108l168 197q-72 63 -186 63q-115 0 -184.5 -73t-69.5 -189v-778q0 -38 -21 -60t-59 -22h-119
q-38 0 -58 21.5t-20 60.5v754q0 230 151.5 375t391.5 145q128 0 248.5 -51.5t196.5 -139.5q49 -49 2 -108l-207 -252l14 -2q172 -27 266.5 -141t94.5 -269q0 -84 -32.5 -159.5t-91.5 -133t-150.5 -91.5t-201.5 -34z" />
    <glyph glyph-name="Ygrave" unicode="&#x1ef2;" horiz-adv-x="1327" 
d="M473 1630q-46 20 -56 40.5t13 62.5l45 75q22 35 43 40.5t70 -21.5l315 -199q34 -21 41 -43t-14 -57l-19 -31q-19 -28 -41 -31.5t-63 13.5zM1212 1331q39 0 56.5 -19.5t-0.5 -54.5l-463 -763v-412q0 -39 -20 -60.5t-58 -21.5h-119q-38 0 -59 22t-21 60v410l-473 765
q-20 34 -2 54t58 20h129q37 0 64 -18.5t52 -59.5l314 -524l305 524q44 78 117 78h120z" />
    <glyph glyph-name="ygrave" unicode="&#x1ef3;" horiz-adv-x="1107" 
d="M311 1358q-60 32 -26 90l51 90q30 52 92 10l313 -205q63 -41 31 -92l-29 -47q-24 -36 -88 -8zM1016 1034q37 0 54.5 -22.5t2.5 -55.5l-471 -1083q-62 -145 -147.5 -203.5t-200.5 -58.5q-88 0 -156 33q-57 29 -41 80l23 79q19 60 90 35q35 -14 72 -14q41 0 71 19.5
t56 76.5l69 154l-397 882q-15 33 2.5 55.5t54.5 22.5h133q68 0 97 -78l243 -616l244 616q29 78 94 78h107z" />
    <glyph glyph-name="uni1EF8" unicode="&#x1ef8;" horiz-adv-x="1327" 
d="M336 1464q-72 0 -72 64q0 126 65 199t163 73q53 0 106 -21t88 -45.5t76 -45.5t74 -21q27 0 44 19t17 51q0 65 74 65h41q73 0 73 -65q0 -126 -65.5 -198.5t-161.5 -72.5q-58 0 -113 20.5t-89 45t-72 45t-66 20.5q-61 0 -67 -69q-3 -34 -20 -49t-54 -15h-41zM1212 1331
q39 0 56.5 -19.5t-0.5 -54.5l-463 -763v-412q0 -39 -20 -60.5t-58 -21.5h-119q-38 0 -59 22t-21 60v410l-473 765q-20 34 -2 54t58 20h129q37 0 64 -18.5t52 -59.5l314 -524l305 524q44 78 117 78h120z" />
    <glyph glyph-name="uni1EF9" unicode="&#x1ef9;" horiz-adv-x="1107" 
d="M246 1182q-70 0 -70 53q0 117 57.5 184.5t147.5 67.5q60 0 124 -29.5t121 -58.5t99 -29q59 0 59 64q0 29 16.5 41t51.5 12h39q35 0 51 -12t16 -41q0 -117 -56 -184.5t-144 -67.5q-61 0 -127.5 29t-124 58t-96.5 29q-58 0 -58 -63q0 -53 -69 -53h-37zM1016 1034
q37 0 54.5 -22.5t2.5 -55.5l-471 -1083q-62 -145 -147.5 -203.5t-200.5 -58.5q-88 0 -156 33q-57 29 -41 80l23 79q19 60 90 35q35 -14 72 -14q41 0 71 19.5t56 76.5l69 154l-397 882q-15 33 2.5 55.5t54.5 22.5h133q68 0 97 -78l243 -616l244 616q29 78 94 78h107z" />
    <glyph glyph-name="endash" unicode="&#x2013;" horiz-adv-x="1216" 
d="M193 508q-37 0 -57.5 20.5t-20.5 57.5v57q0 38 20.5 58t57.5 20h829q78 0 78 -78v-57q0 -37 -20 -57.5t-58 -20.5h-829z" />
    <glyph glyph-name="emdash" unicode="&#x2014;" horiz-adv-x="1501" 
d="M193 508q-37 0 -57.5 20.5t-20.5 57.5v57q0 38 20.5 58t57.5 20h1116q77 0 77 -78v-57q0 -37 -20 -57.5t-57 -20.5h-1116z" />
    <glyph glyph-name="quoteleft" unicode="&#x2018;" horiz-adv-x="503" 
d="M281 1139q59 -12 97 -58t38 -106q0 -71 -50 -120.5t-120 -49.5q-75 0 -122.5 49.5t-47.5 128.5q-1 96 46.5 185t164.5 233q35 43 78 10l12 -8q38 -28 4 -74q-98 -130 -100 -190z" />
    <glyph glyph-name="quoteright" unicode="&#x2019;" horiz-adv-x="497" 
d="M434 1249q1 -96 -46.5 -186t-164.5 -232q-36 -45 -78 -12l-12 10q-37 26 -4 74q98 131 100 189q-59 12 -97 58t-38 107q0 69 50 118.5t120 49.5q75 0 122.5 -49t47.5 -127z" />
    <glyph glyph-name="quotesinglbase" unicode="&#x201a;" horiz-adv-x="512" 
d="M258 287q76 0 123 -49t49 -127q0 -97 -47.5 -186t-163.5 -234q-36 -41 -80 -10l-12 8q-38 27 -4 73q100 132 102 191q-59 12 -97 58.5t-38 107.5q0 69 49.5 118.5t118.5 49.5z" />
    <glyph glyph-name="quotedblleft" unicode="&#x201c;" horiz-adv-x="905" 
d="M281 1141q59 -12 97 -58.5t38 -107.5q0 -69 -50 -118.5t-120 -49.5q-75 0 -122.5 49t-47.5 127q-1 96 46.5 186t164.5 232q36 45 78 12l12 -10q37 -26 4 -74q-98 -131 -100 -188zM680 1141q59 -12 97 -58.5t38 -107.5q0 -69 -49.5 -118.5t-118.5 -49.5q-76 0 -123 49
t-49 127q0 96 48 186t163 232q37 43 80 12l12 -10q37 -26 4 -74q-98 -131 -102 -188z" />
    <glyph glyph-name="quotedblright" unicode="&#x201d;" horiz-adv-x="899" 
d="M264 1425q75 0 122.5 -49t47.5 -127q1 -96 -46.5 -186t-164.5 -232q-36 -45 -78 -12l-12 10q-37 26 -4 74q98 131 100 189q-59 12 -97 58t-38 107q0 69 50 118.5t120 49.5zM664 1425q76 0 123 -49t49 -127q0 -96 -48 -186t-163 -232q-37 -43 -80 -12l-13 10q-37 26 -4 74
q99 133 103 189q-59 12 -97 58t-38 107q0 69 49.5 118.5t118.5 49.5z" />
    <glyph glyph-name="quotedblbase" unicode="&#x201e;" horiz-adv-x="913" 
d="M258 287q76 0 123 -49t49 -127q0 -97 -47.5 -186t-163.5 -234q-36 -41 -80 -10l-12 8q-38 27 -4 73q100 132 102 191q-59 12 -97 58.5t-38 107.5q0 69 49.5 118.5t118.5 49.5zM657 287q76 0 123 -49t49 -127q0 -97 -47.5 -186t-163.5 -234q-36 -41 -79 -10l-13 8
q-38 27 -4 73q30 40 47 64.5t36 62.5t20 64q-59 12 -97.5 58.5t-38.5 107.5q0 69 49.5 118.5t118.5 49.5z" />
    <glyph glyph-name="dagger" unicode="&#x2020;" horiz-adv-x="1013" 
d="M883 961q37 0 57.5 -19.5t20.5 -56.5v-51q0 -37 -20.5 -57.5t-57.5 -20.5h-242v-1010q0 -37 -20.5 -57.5t-57.5 -20.5h-112q-37 0 -56.5 20.5t-19.5 57.5v1010h-244q-37 0 -56.5 20.5t-19.5 57.5v51q0 76 76 76h244v294q0 76 76 76h112q37 0 57.5 -19.5t20.5 -56.5v-294
h242z" />
    <glyph glyph-name="daggerdbl" unicode="&#x2021;" horiz-adv-x="1073" 
d="M913 756h-243v-500h243q76 0 76 -76v-51q0 -37 -19.5 -57.5t-56.5 -20.5h-243v-305q0 -37 -19.5 -57.5t-56.5 -20.5h-113q-37 0 -57.5 20.5t-20.5 57.5v305h-241q-37 0 -57.5 20.5t-20.5 57.5v51q0 37 20.5 56.5t57.5 19.5h241v500h-241q-37 0 -57.5 20.5t-20.5 57.5v51
q0 37 20.5 56.5t57.5 19.5h241v294q0 37 20.5 56.5t57.5 19.5h113q76 0 76 -76v-294h243q76 0 76 -76v-51q0 -37 -19.5 -57.5t-56.5 -20.5z" />
    <glyph glyph-name="bullet" unicode="&#x2022;" horiz-adv-x="790" 
d="M395 344q-106 0 -180 75t-74 181t74 180t180 74t181 -74t75 -180t-75 -181t-181 -75z" />
    <glyph glyph-name="ellipsis" unicode="&#x2026;" horiz-adv-x="1476" 
d="M260 -25q-72 0 -124 52.5t-52 124.5q0 73 52 124.5t124 51.5q74 0 125 -51t51 -125q0 -72 -51.5 -124.5t-124.5 -52.5zM739 -25q-72 0 -124 52.5t-52 124.5q0 73 52 124.5t124 51.5q73 0 124.5 -51t51.5 -125q0 -72 -51.5 -124.5t-124.5 -52.5zM1217 -25
q-72 0 -124.5 52.5t-52.5 124.5q0 73 52.5 124.5t124.5 51.5q73 0 124.5 -51t51.5 -125q0 -72 -51.5 -124.5t-124.5 -52.5z" />
    <glyph glyph-name="perthousand" unicode="&#x2030;" horiz-adv-x="2533" 
d="M399 565q-146 0 -237.5 109.5t-91.5 286.5t91.5 286t237.5 109t238 -109t92 -286t-92 -286.5t-238 -109.5zM377 0q-40 0 -55 22.5t8 57.5l876 1173q31 40 56.5 59t60.5 19h82q40 0 55.5 -22t-8.5 -56l-877 -1173q-31 -42 -55 -61t-59 -19h-84zM399 739q61 0 100.5 61.5
t39.5 160.5q0 100 -38.5 160.5t-101.5 60.5t-102 -60.5t-39 -160.5t39 -161t102 -61zM1378 -27q-145 0 -237 110t-92 288q0 177 91.5 286t237.5 109t238 -109t92 -286q0 -178 -92 -288t-238 -110zM2144 -27q-145 0 -237 110t-92 288q0 177 91.5 286t237.5 109t238 -109
t92 -286q0 -178 -92 -288t-238 -110zM1378 150q63 0 102.5 61t39.5 160t-39.5 160t-102.5 61t-101 -60.5t-38 -160.5t38 -160.5t101 -60.5zM2144 150q63 0 102.5 61t39.5 160t-39.5 160t-102.5 61t-101 -60.5t-38 -160.5t38 -160.5t101 -60.5z" />
    <glyph glyph-name="guilsinglleft" unicode="&#x2039;" horiz-adv-x="645" 
d="M317 614l201 -235q51 -58 -2 -109l-31 -26q-33 -24 -63.5 -20t-52.5 28l-279 313q-41 47 4 101l275 307q22 25 52.5 29.5t63.5 -21.5l31 -27q53 -48 2 -106z" />
    <glyph glyph-name="guilsinglright" unicode="&#x203a;" horiz-adv-x="643" 
d="M549 666q47 -52 4 -101l-279 -313q-22 -24 -52.5 -28t-63.5 20l-29 26q-54 48 -4 109l201 235l-201 234q-49 60 4 106l29 27q33 26 63.5 21.5t52.5 -29.5z" />
    <glyph glyph-name="fraction" unicode="&#x2044;" horiz-adv-x="1073" 
d="M23 0q-41 0 -57 22.5t7 57.5l879 1173q31 40 56.5 59t60.5 19h82q40 0 55 -22t-8 -56l-877 -1173q-30 -41 -56 -60.5t-61 -19.5h-81z" />
    <glyph glyph-name="Euro" unicode="&#x20ac;" horiz-adv-x="1550" 
d="M1436 299q29 -25 30 -55t-26 -56q-92 -101 -219 -157t-273 -56q-233 0 -411.5 133.5t-241.5 350.5h-182q-31 0 -46 15.5t-8 43.5l4 23q14 59 70 59h135q-2 23 -2 66q0 35 2 51h-123q-29 0 -44 15.5t-9 43.5l6 23q14 59 68 59h125q61 223 240.5 360.5t418.5 137.5
q144 0 271 -55.5t219 -155.5q27 -28 26 -58t-30 -53l-72 -63q-50 -45 -107 6q-132 129 -307 129q-124 0 -223 -66.5t-149 -181.5h432q30 0 44.5 -15t8.5 -44l-6 -23q-15 -59 -68 -59h-448q-2 -16 -2 -51q0 -26 4 -66h436q30 0 44.5 -15t8.5 -44l-6 -23q-15 -59 -68 -59h-374
q52 -108 149 -171t217 -63q175 0 307 129q57 54 107 6z" />
    <glyph glyph-name="trademark" unicode="&#x2122;" horiz-adv-x="1566" 
d="M571 1331q54 0 54 -51v-29q0 -51 -54 -51h-147v-481q0 -55 -55 -55h-56q-55 0 -55 55v481h-147q-54 0 -54 51v29q0 51 54 51h460zM1448 719q3 -27 -12.5 -41t-42.5 -14h-50q-51 0 -57 55l-35 289l-125 -289q-13 -30 -25.5 -42.5t-37.5 -12.5h-23q-25 0 -38.5 12.5
t-26.5 42.5l-123 289l-33 -289q-6 -55 -57 -55h-49q-28 0 -43.5 14t-12.5 41l68 559q5 28 17 40.5t38 12.5h31q48 0 68 -53l174 -397l172 397q12 28 27.5 40.5t39.5 12.5h31q26 0 38 -12.5t17 -40.5z" />
    <glyph glyph-name="minus" unicode="&#x2212;" horiz-adv-x="1247" 
d="M201 561q-78 0 -78 78v57q0 37 20 57.5t58 20.5h848q37 0 57 -20.5t20 -57.5v-57q0 -78 -77 -78h-848z" />
    <glyph glyph-name="approxequal" unicode="&#x2248;" horiz-adv-x="1284" 
d="M885 721q-65 0 -134 19t-118 42.5t-111 42.5t-116 19q-48 0 -71 -15t-36 -49q-12 -32 -28 -43.5t-52 -11.5h-37q-37 0 -51.5 12.5t-11.5 42.5q13 111 88 183.5t199 72.5q59 0 126.5 -19t118.5 -42.5t115.5 -42.5t118.5 -19q48 0 71 14.5t35 49.5q12 32 28 43.5t52 11.5
h37q37 0 51.5 -13t11.5 -42q-13 -111 -87.5 -183.5t-198.5 -72.5zM885 291q-65 0 -134 19t-118 42.5t-111 42.5t-116 19q-48 0 -71 -15t-36 -49q-12 -32 -28 -43.5t-52 -11.5h-37q-37 0 -51.5 12.5t-11.5 42.5q13 111 88 183.5t199 72.5q59 0 126.5 -19t118.5 -42.5
t115.5 -42.5t118.5 -19q48 0 71 14.5t35 49.5q12 32 28 43.5t52 11.5h37q37 0 51.5 -13t11.5 -42q-13 -111 -87.5 -183.5t-198.5 -72.5z" />
    <glyph glyph-name="notequal" unicode="&#x2260;" horiz-adv-x="1241" 
d="M1071 754h-283l-104 -176h387q37 0 57.5 -20t20.5 -58v-37q0 -37 -20.5 -57.5t-57.5 -20.5h-502l-127 -213q-23 -38 -46.5 -55t-59.5 -17h-64q-39 0 -52.5 25.5t7.5 60.5l119 199h-164q-38 0 -58 20.5t-20 57.5v37q0 78 78 78h277l104 176h-381q-78 0 -78 77v37
q0 37 20 57.5t58 20.5h496l127 213q25 39 48 55.5t60 16.5h64q37 0 50.5 -25.5t-7.5 -60.5l-119 -199h170q37 0 57.5 -20.5t20.5 -57.5v-37q0 -77 -78 -77z" />
    <glyph glyph-name="uniF8FF" unicode="&#xf8ff;" horiz-adv-x="4724" 
d="M1038 827q58 35 119 35h105v-162h-86v-98q0 -35 36 -35q28 0 50 15v-154q-36 -20 -113 -20q-95 0 -136.5 40t-41.5 130v466h203q0 -62 -40 -122t-98 -86zM1346 846q84 16 143 16h16v-444h-202v626h200q0 -67 -47 -122t-115 -70zM2697 827q58 35 119 35h102v-162h-86v-98
q0 -35 37 -35q27 0 49 15v-154q-36 -20 -110 -20q-95 0 -137.5 40.5t-42.5 129.5v466h202q0 -62 -39 -122t-98 -86zM205 418v624h203v-624h-203zM702 877q110 0 172 -50t62 -135v-274h-201v45h-6q-14 -20 -51.5 -37.5t-93.5 -17.5q-66 0 -105 34t-39 90q0 60 41 98t111 38
q92 0 135 -43h4v71q0 24 -12 38t-35 14q-47 0 -47 -60l-184 29q37 160 249 160zM1898 872q70 0 110 -46t40 -134v-274h-205v264q0 55 -39 55q-22 0 -32 -13t-21 -52v-254h-203v444h199v-133h6q17 143 145 143zM2337 872q122 0 190 -64.5t68 -168.5q0 -103 -67.5 -167
t-190.5 -64t-190.5 63.5t-67.5 167.5t69 168.5t189 64.5zM3822 872q170 0 170 -233q0 -115 -51.5 -173t-125.5 -58q-105 0 -141 88h-6v-226h-205v592h203v-133h6q21 143 150 143zM4520 649v-18h-307q0 -39 18.5 -66.5t50.5 -27.5q55 0 62 69l168 -16q-18 -95 -83 -138.5
t-155 -43.5q-120 0 -187 63.5t-67 167.5q0 103 70 168t190 65q107 0 173.5 -64.5t66.5 -158.5zM3193 508q13 125 61 354h203l-145 -424q-63 -176 -217 -176h-80v135h133q115 0 137 25l-2 6h-139q-83 0 -107 80l-110 354h204q6 -37 20 -110t24 -134t14 -110h4zM4225 655
q62 0 87.5 12t25.5 38q0 45 -49 45q-34 0 -55 -26t-21 -69h12zM3738 506q31 0 46 27.5t15 89.5q0 66 -12 95.5t-43 29.5q-46 0 -62 -68v-148q21 -26 56 -26zM2337 535q59 0 59 104q0 106 -59 106q-58 0 -58 -106q0 -104 58 -104zM686 469q30 0 45 23v104q-10 16 -39 16
q-25 0 -40 -19t-15 -52q0 -72 49 -72z" />
    <glyph glyph-name="uni00A40301" horiz-adv-x="1052" 
d="M514 1497l-20 31q-20 35 -13 57t41 43l316 199q47 27 68.5 21.5t41.5 -40.5l45 -75q23 -42 13.5 -62.5t-54.5 -40.5l-336 -151q-40 -17 -62.5 -13.5t-39.5 31.5zM436 -25q-122 0 -223 44.5t-170 121.5q-55 55 0 109l70 69q30 27 55 26t53 -28q86 -94 197 -94
q96 0 153.5 61t57.5 173v794q0 38 21 59t59 21h118q78 0 78 -80v-792q0 -235 -127 -359.5t-342 -124.5z" />
    <glyph glyph-name="G.ss01" horiz-adv-x="1527" 
d="M774 -25q-195 0 -354.5 89.5t-250.5 248t-91 353.5q0 196 93 354.5t252.5 247t352.5 88.5q150 0 280.5 -54.5t225.5 -154.5q26 -26 24.5 -56t-30.5 -55l-72 -65q-52 -44 -112 6q-132 129 -310 129t-300 -124t-122 -316q0 -193 120 -317t304 -124q173 0 287 111
q94 88 109 211h-318q-37 0 -58.5 20t-21.5 58v53q0 37 21.5 57.5t58.5 20.5h520q38 0 59 -21.5t21 -58.5v-27q0 -138 -50.5 -261t-143.5 -214q-94 -94 -221 -146.5t-273 -52.5z" />
    <glyph glyph-name="Gbreve.ss01" horiz-adv-x="1527" 
d="M770 1464q-143 0 -240.5 90t-97.5 226q0 30 18 45.5t48 15.5h55q31 0 50.5 -15t19.5 -46q0 -68 40.5 -107t108.5 -39t109 39t41 107q0 31 19 46t50 15h51q66 0 66 -61q0 -136 -97.5 -226t-240.5 -90zM774 -25q-195 0 -354.5 89.5t-250.5 248t-91 353.5q0 196 93 354.5
t252.5 247t352.5 88.5q150 0 280.5 -54.5t225.5 -154.5q26 -26 24.5 -56t-30.5 -55l-72 -65q-52 -44 -112 6q-132 129 -310 129t-300 -124t-122 -316q0 -193 120 -317t304 -124q173 0 287 111q94 88 109 211h-318q-37 0 -58.5 20t-21.5 58v53q0 37 21.5 57.5t58.5 20.5h520
q38 0 59 -21.5t21 -58.5v-27q0 -138 -50.5 -261t-143.5 -214q-94 -94 -221 -146.5t-273 -52.5z" />
    <glyph glyph-name="uni0122.ss01" horiz-adv-x="1527" 
d="M774 -25q-195 0 -354.5 89.5t-250.5 248t-91 353.5q0 196 93 354.5t252.5 247t352.5 88.5q150 0 280.5 -54.5t225.5 -154.5q26 -26 24.5 -56t-30.5 -55l-72 -65q-52 -44 -112 6q-132 129 -310 129t-300 -124t-122 -316q0 -193 120 -317t304 -124q173 0 287 111
q94 88 109 211h-318q-37 0 -58.5 20t-21.5 58v53q0 37 21.5 57.5t58.5 20.5h520q38 0 59 -21.5t21 -58.5v-27q0 -138 -50.5 -261t-143.5 -214q-94 -94 -221 -146.5t-273 -52.5zM662 -528q-65 0 -56 71l37 269q6 40 25 53.5t57 13.5h94q40 0 53.5 -20.5t1.5 -53.5l-92 -266
q-13 -38 -30 -52.5t-45 -14.5h-45z" />
    <glyph glyph-name="Gdotaccent.ss01" horiz-adv-x="1527" 
d="M770 1483q-69 0 -121.5 52.5t-52.5 121.5q0 71 52 123.5t122 52.5q72 0 124 -52t52 -124q0 -70 -53 -122t-123 -52zM774 -25q-195 0 -354.5 89.5t-250.5 248t-91 353.5q0 196 93 354.5t252.5 247t352.5 88.5q150 0 280.5 -54.5t225.5 -154.5q26 -26 24.5 -56t-30.5 -55
l-72 -65q-52 -44 -112 6q-132 129 -310 129t-300 -124t-122 -316q0 -193 120 -317t304 -124q173 0 287 111q94 88 109 211h-318q-37 0 -58.5 20t-21.5 58v53q0 37 21.5 57.5t58.5 20.5h520q38 0 59 -21.5t21 -58.5v-27q0 -138 -50.5 -261t-143.5 -214q-94 -94 -221 -146.5
t-273 -52.5z" />
    <glyph glyph-name="I.ss01" horiz-adv-x="858" 
d="M156 0q-38 0 -59 21t-21 59v63q0 38 21 59t59 21h135v885h-135q-80 0 -80 78v67q0 78 80 78h546q39 0 60.5 -20t21.5 -58v-67q0 -38 -21.5 -58t-60.5 -20h-135v-885h135q38 0 60 -21t22 -59v-63q0 -38 -22 -59t-60 -21h-546z" />
    <glyph glyph-name="IJ.ss01" horiz-adv-x="1878" 
d="M156 0q-38 0 -59 21t-21 59v63q0 38 21 59t59 21h135v885h-135q-80 0 -80 78v67q0 78 80 78h546q39 0 60.5 -20t21.5 -58v-67q0 -38 -21.5 -58t-60.5 -20h-135v-885h135q38 0 60 -21t22 -59v-63q0 -38 -22 -59t-60 -21h-546zM1262 -27q-122 0 -223 44t-169 120
q-52 59 0 111l68 69q53 53 111 -2q84 -92 196 -92q95 0 153 62.5t58 175.5v645h-285q-39 0 -60 20t-21 58v69q0 38 21 58t60 20h480q38 0 60 -21t22 -59v-749q0 -267 -123 -398t-348 -131z" />
    <glyph glyph-name="Iacute.ss01" horiz-adv-x="858" 
d="M203 1497l-21 31q-20 35 -12.5 57t41.5 43l315 199q47 27 69 21.5t42 -40.5l45 -75q23 -42 13.5 -62.5t-54.5 -40.5l-336 -151q-40 -17 -62.5 -13.5t-39.5 31.5zM156 0q-38 0 -59 21t-21 59v63q0 38 21 59t59 21h135v885h-135q-80 0 -80 78v67q0 78 80 78h546
q39 0 60.5 -20t21.5 -58v-67q0 -38 -21.5 -58t-60.5 -20h-135v-885h135q38 0 60 -21t22 -59v-63q0 -38 -22 -59t-60 -21h-546z" />
    <glyph glyph-name="Icircumflex.ss01" horiz-adv-x="858" 
d="M750 1632q72 -44 36 -104l-20 -31q-19 -31 -44.5 -34.5t-68.5 18.5l-223 116l-223 -116q-43 -22 -68.5 -18.5t-44.5 34.5l-20 31q-36 59 37 104l274 166q29 15 46 14.5t44 -14.5zM702 1331q39 0 60.5 -20t21.5 -58v-67q0 -38 -21.5 -58t-60.5 -20h-135v-885h135
q38 0 60 -21t22 -59v-63q0 -38 -22 -59t-60 -21h-546q-38 0 -59 21t-21 59v63q0 38 21 59t59 21h135v885h-135q-80 0 -80 78v67q0 78 80 78h546z" />
    <glyph glyph-name="Idieresis.ss01" horiz-adv-x="858" 
d="M205 1483q-69 0 -119.5 50t-50.5 118q0 69 50.5 119.5t119.5 50.5t119.5 -50.5t50.5 -119.5q0 -68 -51 -118t-119 -50zM653 1483q-67 0 -117.5 50.5t-50.5 117.5q0 69 50 119.5t118 50.5q69 0 119.5 -50.5t50.5 -119.5t-50.5 -118.5t-119.5 -49.5zM156 0q-38 0 -59 21
t-21 59v63q0 38 21 59t59 21h135v885h-135q-80 0 -80 78v67q0 78 80 78h546q39 0 60.5 -20t21.5 -58v-67q0 -38 -21.5 -58t-60.5 -20h-135v-885h135q38 0 60 -21t22 -59v-63q0 -38 -22 -59t-60 -21h-546z" />
    <glyph glyph-name="Idotaccent.ss01" horiz-adv-x="858" 
d="M430 1483q-69 0 -121.5 52.5t-52.5 121.5q0 71 52 123.5t122 52.5q72 0 124 -52t52 -124q0 -70 -53 -122t-123 -52zM156 0q-38 0 -59 21t-21 59v63q0 38 21 59t59 21h135v885h-135q-80 0 -80 78v67q0 78 80 78h546q39 0 60.5 -20t21.5 -58v-67q0 -38 -21.5 -58t-60.5 -20
h-135v-885h135q38 0 60 -21t22 -59v-63q0 -38 -22 -59t-60 -21h-546z" />
    <glyph glyph-name="Igrave.ss01" horiz-adv-x="858" 
d="M674 1497q-19 -28 -41.5 -31.5t-63.5 13.5l-333 151q-46 20 -56 40.5t13 62.5l45 75q15 24 27.5 33.5t33 7t51.5 -21.5l316 -199q34 -21 41 -43t-15 -57zM156 0q-38 0 -59 21t-21 59v63q0 38 21 59t59 21h135v885h-135q-80 0 -80 78v67q0 78 80 78h546q39 0 60.5 -20
t21.5 -58v-67q0 -38 -21.5 -58t-60.5 -20h-135v-885h135q38 0 60 -21t22 -59v-63q0 -38 -22 -59t-60 -21h-546z" />
    <glyph glyph-name="Imacron.ss01" horiz-adv-x="858" 
d="M184 1554q-75 0 -75 78v37q0 78 75 78h492q76 0 76 -78v-37q0 -78 -76 -78h-492zM156 0q-38 0 -59 21t-21 59v63q0 38 21 59t59 21h135v885h-135q-80 0 -80 78v67q0 78 80 78h546q39 0 60.5 -20t21.5 -58v-67q0 -38 -21.5 -58t-60.5 -20h-135v-885h135q38 0 60 -21
t22 -59v-63q0 -38 -22 -59t-60 -21h-546z" />
    <glyph glyph-name="Iogonek.ss01" horiz-adv-x="858" 
d="M702 1108h-135v-885h135q38 0 60 -21t22 -59v-63q0 -38 -22 -59t-60 -21h-51q-57 -36 -94 -90t-37 -105q0 -69 45.5 -92t112.5 -2q26 11 50 4.5t38 -39.5l8 -16q26 -61 -45 -92q-65 -33 -137.5 -33.5t-130 26.5t-95.5 83t-38 129q0 119 137 227h-309q-38 0 -59 21t-21 59
v63q0 38 21 59t59 21h135v885h-135q-80 0 -80 78v67q0 78 80 78h546q39 0 60.5 -20t21.5 -58v-67q0 -38 -21.5 -58t-60.5 -20z" />
    <glyph glyph-name="Itilde.ss01" horiz-adv-x="858" 
d="M123 1464q-68 0 -68 64q0 126 60.5 199t150.5 73q50 0 99 -21t81.5 -45.5t71 -45.5t68.5 -21q26 0 41.5 19t15.5 51q0 65 70 65h37q67 0 67 -65q0 -126 -60 -198.5t-151 -72.5q-53 0 -103.5 20.5t-82 45t-67 45t-62.5 20.5t-44 -18t-18 -51q-3 -34 -19 -49t-48 -15h-39z
M156 0q-38 0 -59 21t-21 59v63q0 38 21 59t59 21h135v885h-135q-80 0 -80 78v67q0 78 80 78h546q39 0 60.5 -20t21.5 -58v-67q0 -38 -21.5 -58t-60.5 -20h-135v-885h135q38 0 60 -21t22 -59v-63q0 -38 -22 -59t-60 -21h-546z" />
    <glyph glyph-name="J.ss01" horiz-adv-x="1052" 
d="M434 -25q-240 0 -391 164q-54 57 0 111l68 67q52 52 110 -2q88 -92 197 -92q95 0 153 61.5t58 172.5v649h-307q-39 0 -60.5 20t-21.5 58v69q0 38 21.5 58t60.5 20h501q38 0 60 -21t22 -59v-792q0 -236 -127 -360t-344 -124z" />
    <glyph glyph-name="uni00A40301.ss01" horiz-adv-x="1052" 
d="M352 1497l-20 31q-20 35 -13 57t41 43l316 199q47 27 68.5 21.5t41.5 -40.5l45 -75q23 -42 14 -62.5t-54 -40.5l-336 -151q-40 -17 -63 -13.5t-40 31.5zM434 -25q-240 0 -391 164q-54 57 0 111l68 67q52 52 110 -2q88 -92 197 -92q95 0 153 61.5t58 172.5v649h-307
q-39 0 -60.5 20t-21.5 58v69q0 38 21.5 58t60.5 20h501q38 0 60 -21t22 -59v-792q0 -236 -127 -360t-344 -124z" />
    <glyph glyph-name="K.ss01" horiz-adv-x="1304" 
d="M1292 94q19 -58 -32 -86q-56 -33 -132 -33q-115 0 -188 64q-54 44 -168 203l-229 315l-107 -115v-360q0 -39 -20 -60.5t-58 -21.5h-118q-38 0 -59 22t-21 60v1169q0 38 21 59t59 21h118q78 0 78 -80v-501l465 505q26 30 38.5 42.5t34 23t46.5 10.5h170q38 0 51.5 -24
t-12.5 -56l-486 -532l275 -379q46 -63 73 -88.5t52 -26.5q24 -3 49 4q31 10 47.5 1t26.5 -42z" />
    <glyph glyph-name="uni0136.ss01" horiz-adv-x="1304" 
d="M1292 94q19 -58 -32 -86q-56 -33 -132 -33q-115 0 -188 64q-54 44 -168 203l-229 315l-107 -115v-360q0 -39 -20 -60.5t-58 -21.5h-118q-38 0 -59 22t-21 60v1169q0 38 21 59t59 21h118q78 0 78 -80v-501l465 505q26 30 38.5 42.5t34 23t46.5 10.5h170q38 0 51.5 -24
t-12.5 -56l-486 -532l275 -379q46 -63 73 -88.5t52 -26.5q24 -3 49 4q31 10 47.5 1t26.5 -42zM745 -121q40 0 54 -20.5t2 -53.5l-92 -266q-13 -38 -30.5 -52.5t-45.5 -14.5h-45q-65 0 -56 71l37 269q6 40 25 53.5t57 13.5h94z" />
    <glyph glyph-name="Q.ss01" horiz-adv-x="1611" 
d="M1559 -147q15 -23 11.5 -43.5t-12.5 -33t-28 -26.5q-31 -26 -83.5 -40.5t-105.5 -14.5q-84 0 -154.5 34.5t-146.5 94.5q-20 16 -62 52t-62.5 52t-53 31.5t-61.5 15.5q-151 0 -285.5 53t-230.5 144t-151.5 219.5t-55.5 274.5q0 194 94.5 352.5t260.5 248t368 89.5
q152 0 286.5 -52.5t230 -144t151 -219.5t55.5 -274q0 -201 -102 -363t-275 -250l8 -6q11 -9 36 -30.5t39 -32t35.5 -24.5t43.5 -20t45 -6q45 0 90 25q29 15 47.5 5t36.5 -44zM360 666q0 -191 127 -316t314 -125q123 0 224 56.5t159.5 157.5t58.5 227q0 192 -127 316
t-315 124t-314.5 -124t-126.5 -316z" />
    <glyph glyph-name="R.ss01" horiz-adv-x="1329" 
d="M1286 96q5 -20 6.5 -32t-6.5 -23t-15 -16.5t-20 -12.5q-63 -37 -145 -37q-95 0 -157 49.5t-115 155.5l-95 201q-3 5 -12 24.5t-12 25.5t-12.5 22t-15.5 21.5t-18 16t-23.5 14.5t-28 7.5t-35.5 3.5h-146v-434q0 -39 -20 -60.5t-58 -21.5h-118q-38 0 -59 22t-21 60v1169
q0 38 22 59t60 21h473q244 0 374 -109t130 -304q0 -144 -79 -240t-220 -135q28 -20 57 -82l72 -156q37 -83 79 -88q21 -3 54 8q30 11 45.5 1.5t27.5 -44.5zM436 713h291q95 0 152 52t57 140q0 89 -57 143t-152 54h-291v-389z" />
    <glyph glyph-name="Racute.ss01" horiz-adv-x="1329" 
d="M401 1497l-20 31q-20 35 -12.5 57t41.5 43l315 199q47 27 69 21.5t42 -40.5l45 -75q23 -42 13.5 -62.5t-54.5 -40.5l-336 -151q-40 -17 -63 -13.5t-40 31.5zM1286 96q5 -20 6.5 -32t-6.5 -23t-15 -16.5t-20 -12.5q-63 -37 -145 -37q-95 0 -157 49.5t-115 155.5l-95 201
q-3 5 -12 24.5t-12 25.5t-12.5 22t-15.5 21.5t-18 16t-23.5 14.5t-28 7.5t-35.5 3.5h-146v-434q0 -39 -20 -60.5t-58 -21.5h-118q-38 0 -59 22t-21 60v1169q0 38 22 59t60 21h473q244 0 374 -109t130 -304q0 -144 -79 -240t-220 -135q28 -20 57 -82l72 -156q37 -83 79 -88
q21 -3 54 8q30 11 45.5 1.5t27.5 -44.5zM436 713h291q95 0 152 52t57 140q0 89 -57 143t-152 54h-291v-389z" />
    <glyph glyph-name="Rcaron.ss01" horiz-adv-x="1329" 
d="M311 1645q-38 23 -47 45t10 57l19 33q19 29 44.5 32.5t68.5 -18.5l225 -115l223 115q43 22 68.5 18.5t44.5 -32.5l18 -33q19 -35 10 -57t-47 -45l-274 -166q-27 -16 -44 -16.5t-44 16.5zM1286 96q5 -20 6.5 -32t-6.5 -23t-15 -16.5t-20 -12.5q-63 -37 -145 -37
q-95 0 -157 49.5t-115 155.5l-95 201q-3 5 -12 24.5t-12 25.5t-12.5 22t-15.5 21.5t-18 16t-23.5 14.5t-28 7.5t-35.5 3.5h-146v-434q0 -39 -20 -60.5t-58 -21.5h-118q-38 0 -59 22t-21 60v1169q0 38 22 59t60 21h473q244 0 374 -109t130 -304q0 -144 -79 -240t-220 -135
q28 -20 57 -82l72 -156q37 -83 79 -88q21 -3 54 8q30 11 45.5 1.5t27.5 -44.5zM436 713h291q95 0 152 52t57 140q0 89 -57 143t-152 54h-291v-389z" />
    <glyph glyph-name="uni0156.ss01" horiz-adv-x="1329" 
d="M1286 96q5 -20 6.5 -32t-6.5 -23t-15 -16.5t-20 -12.5q-63 -37 -145 -37q-95 0 -157 49.5t-115 155.5l-95 201q-3 5 -12 24.5t-12 25.5t-12.5 22t-15.5 21.5t-18 16t-23.5 14.5t-28 7.5t-35.5 3.5h-146v-434q0 -39 -20 -60.5t-58 -21.5h-118q-38 0 -59 22t-21 60v1169
q0 38 22 59t60 21h473q244 0 374 -109t130 -304q0 -144 -79 -240t-220 -135q28 -20 57 -82l72 -156q37 -83 79 -88q21 -3 54 8q30 11 45.5 1.5t27.5 -44.5zM436 713h291q95 0 152 52t57 140q0 89 -57 143t-152 54h-291v-389zM737 -121q40 0 54 -20.5t2 -53.5l-93 -266
q-13 -38 -30 -52.5t-45 -14.5h-45q-65 0 -56 71l37 269q6 40 25 53.5t57 13.5h94z" />
    <glyph glyph-name="i.loclTRK" horiz-adv-x="546" 
d="M274 1206q-74 0 -125 51t-51 125q0 72 51.5 124.5t124.5 52.5q72 0 124.5 -52.5t52.5 -124.5q0 -73 -52.5 -124.5t-124.5 -51.5zM215 0q-37 0 -57.5 21.5t-20.5 58.5v876q0 37 20.5 57.5t57.5 20.5h119q37 0 56.5 -20.5t19.5 -57.5v-876q0 -37 -20 -58.5t-56 -21.5h-119z
" />
    <glyph glyph-name="uni006A0301" horiz-adv-x="548" 
d="M37 1204l-27 47q-34 50 29 92l315 205q58 42 92 -10l50 -90q36 -58 -27 -90l-344 -162q-63 -29 -88 8zM133 -377q-75 -37 -113 31l-43 80q-36 69 35 110q55 31 81.5 62t37 80t10.5 141v829q0 37 19.5 57.5t56.5 20.5h119q37 0 57.5 -20.5t20.5 -57.5v-833
q0 -214 -56 -315t-225 -185z" />
    <glyph glyph-name="a.ss01" horiz-adv-x="1298" 
d="M1085 1040q37 0 57.5 -20t20.5 -57v-883q0 -37 -20.5 -58.5t-57.5 -21.5h-75q-37 0 -57.5 21.5t-20.5 58.5v47q-141 -154 -346 -154q-223 0 -368.5 155.5t-145.5 383.5q0 150 65 273t183 194.5t266 71.5q197 0 346 -136v48q0 37 20.5 57t57.5 20h75zM627 211
q120 0 200 81.5t80 219.5q0 141 -80 222t-200 81q-127 0 -206 -87t-79 -216q0 -128 79 -214.5t206 -86.5z" />
    <glyph glyph-name="aacute.ss01" horiz-adv-x="1298" 
d="M410 1204l-27 47q-33 49 29 92l315 205q58 42 92 -10l49 -90q36 -58 -26 -90l-344 -162q-63 -29 -88 8zM1085 1040q37 0 57.5 -20t20.5 -57v-883q0 -37 -20.5 -58.5t-57.5 -21.5h-75q-37 0 -57.5 21.5t-20.5 58.5v47q-141 -154 -346 -154q-223 0 -368.5 155.5
t-145.5 383.5q0 150 65 273t183 194.5t266 71.5q197 0 346 -136v48q0 37 20.5 57t57.5 20h75zM627 211q120 0 200 81.5t80 219.5q0 141 -80 222t-200 81q-127 0 -206 -87t-79 -216q0 -128 79 -214.5t206 -86.5z" />
    <glyph glyph-name="abreve.ss01" horiz-adv-x="1298" 
d="M641 1182q-77 0 -141 27t-104.5 71t-64.5 95.5t-30 105.5q-2 31 14.5 50t51.5 19h49q36 0 52 -19t24 -50q15 -64 49.5 -101t99.5 -37q116 0 150 138q13 69 75 69h47q37 0 53 -19t13 -50q-5 -54 -29 -105.5t-64.5 -95.5t-104.5 -71t-140 -27zM1085 1040q37 0 57.5 -20
t20.5 -57v-883q0 -37 -20.5 -58.5t-57.5 -21.5h-75q-37 0 -57.5 21.5t-20.5 58.5v47q-141 -154 -346 -154q-223 0 -368.5 155.5t-145.5 383.5q0 150 65 273t183 194.5t266 71.5q197 0 346 -136v48q0 37 20.5 57t57.5 20h75zM627 211q120 0 200 81.5t80 219.5q0 141 -80 222
t-200 81q-127 0 -206 -87t-79 -216q0 -128 79 -214.5t206 -86.5z" />
    <glyph glyph-name="acircumflex.ss01" horiz-adv-x="1298" 
d="M319 1217l-22 34q-41 58 31 103l264 157q26 15 45 15t45 -15l264 -157q72 -45 31 -103l-23 -34q-20 -31 -42 -35t-62 16l-213 113l-213 -113q-40 -20 -62.5 -16t-42.5 35zM1085 1040q37 0 57.5 -20t20.5 -57v-883q0 -37 -20.5 -58.5t-57.5 -21.5h-75q-37 0 -57.5 21.5
t-20.5 58.5v47q-141 -154 -346 -154q-223 0 -368.5 155.5t-145.5 383.5q0 150 65 273t183 194.5t266 71.5q197 0 346 -136v48q0 37 20.5 57t57.5 20h75zM627 211q120 0 200 81.5t80 219.5q0 141 -80 222t-200 81q-127 0 -206 -87t-79 -216q0 -128 79 -214.5t206 -86.5z" />
    <glyph glyph-name="adieresis.ss01" horiz-adv-x="1298" 
d="M418 1206q-70 0 -121 51t-51 121q0 72 50.5 122t121.5 50q72 0 122 -50t50 -122q0 -71 -50 -121.5t-122 -50.5zM862 1206q-72 0 -123 50.5t-51 121.5q0 72 51 122t123 50q71 0 121.5 -50t50.5 -122q0 -70 -51 -121t-121 -51zM1085 1040q37 0 57.5 -20t20.5 -57v-883
q0 -37 -20.5 -58.5t-57.5 -21.5h-75q-37 0 -57.5 21.5t-20.5 58.5v47q-141 -154 -346 -154q-223 0 -368.5 155.5t-145.5 383.5q0 150 65 273t183 194.5t266 71.5q197 0 346 -136v48q0 37 20.5 57t57.5 20h75zM627 211q120 0 200 81.5t80 219.5q0 141 -80 222t-200 81
q-127 0 -206 -87t-79 -216q0 -128 79 -214.5t206 -86.5z" />
    <glyph glyph-name="agrave.ss01" horiz-adv-x="1298" 
d="M434 1358q-62 32 -26 90l49 90q34 52 92 10l315 -205q62 -43 29 -92l-27 -47q-25 -37 -88 -8zM1085 1040q37 0 57.5 -20t20.5 -57v-883q0 -37 -20.5 -58.5t-57.5 -21.5h-75q-37 0 -57.5 21.5t-20.5 58.5v47q-141 -154 -346 -154q-223 0 -368.5 155.5t-145.5 383.5
q0 150 65 273t183 194.5t266 71.5q197 0 346 -136v48q0 37 20.5 57t57.5 20h75zM627 211q120 0 200 81.5t80 219.5q0 141 -80 222t-200 81q-127 0 -206 -87t-79 -216q0 -128 79 -214.5t206 -86.5z" />
    <glyph glyph-name="amacron.ss01" horiz-adv-x="1298" 
d="M395 1268q-78 0 -78 78v28q0 78 78 78h488q80 0 80 -78v-28q0 -78 -80 -78h-488zM1085 1040q37 0 57.5 -20t20.5 -57v-883q0 -37 -20.5 -58.5t-57.5 -21.5h-75q-37 0 -57.5 21.5t-20.5 58.5v47q-141 -154 -346 -154q-223 0 -368.5 155.5t-145.5 383.5q0 150 65 273
t183 194.5t266 71.5q197 0 346 -136v48q0 37 20.5 57t57.5 20h75zM627 211q120 0 200 81.5t80 219.5q0 141 -80 222t-200 81q-127 0 -206 -87t-79 -216q0 -128 79 -214.5t206 -86.5z" />
    <glyph glyph-name="aogonek.ss01" horiz-adv-x="1298" 
d="M1208 -340q26 -61 -45 -92q-65 -33 -137.5 -33.5t-130 26.5t-95.5 83t-38 129q0 130 180 260q-10 23 -10 47v47q-141 -154 -346 -154q-223 0 -368.5 155.5t-145.5 383.5q0 150 65 273t183 194.5t266 71.5q197 0 346 -136v48q0 37 20.5 57t57.5 20h75q37 0 57.5 -20
t20.5 -57v-883q0 -37 -20.5 -58.5t-57.5 -21.5q-57 -36 -94 -90t-37 -105q0 -69 45.5 -92t112.5 -2q26 11 50 4.5t38 -39.5zM627 211q120 0 200 81.5t80 219.5q0 141 -80 222t-200 81q-127 0 -206 -87t-79 -216q0 -128 79 -214.5t206 -86.5z" />
    <glyph glyph-name="aring.ss01" horiz-adv-x="1298" 
d="M641 1182q-104 0 -175 69t-71 168t71 168.5t175 69.5q102 0 174 -69.5t72 -168.5q0 -98 -71.5 -167.5t-174.5 -69.5zM641 1503q-36 0 -60 -25t-24 -59t24 -58t60 -24t59 24t23 58q0 35 -23 59.5t-59 24.5zM1085 1040q37 0 57.5 -20t20.5 -57v-883q0 -37 -20.5 -58.5
t-57.5 -21.5h-75q-37 0 -57.5 21.5t-20.5 58.5v47q-141 -154 -346 -154q-223 0 -368.5 155.5t-145.5 383.5q0 150 65 273t183 194.5t266 71.5q197 0 346 -136v48q0 37 20.5 57t57.5 20h75zM627 211q120 0 200 81.5t80 219.5q0 141 -80 222t-200 81q-127 0 -206 -87t-79 -216
q0 -128 79 -214.5t206 -86.5z" />
    <glyph glyph-name="atilde.ss01" horiz-adv-x="1298" 
d="M315 1182q-69 0 -69 53q0 117 57.5 184.5t147.5 67.5q60 0 124 -29.5t121 -58.5t99 -29q59 0 59 64q0 29 16.5 41t51.5 12h39q35 0 51 -12t16 -41q0 -117 -56 -184.5t-145 -67.5q-61 0 -127.5 29t-124 58t-96.5 29q-57 0 -57 -63q0 -53 -70 -53h-37zM1085 1040
q37 0 57.5 -20t20.5 -57v-883q0 -37 -20.5 -58.5t-57.5 -21.5h-75q-37 0 -57.5 21.5t-20.5 58.5v47q-141 -154 -346 -154q-223 0 -368.5 155.5t-145.5 383.5q0 150 65 273t183 194.5t266 71.5q197 0 346 -136v48q0 37 20.5 57t57.5 20h75zM627 211q120 0 200 81.5t80 219.5
q0 141 -80 222t-200 81q-127 0 -206 -87t-79 -216q0 -128 79 -214.5t206 -86.5z" />
    <glyph glyph-name="d.ss01" horiz-adv-x="1349" 
d="M1325 98q22 -59 -27 -86q-67 -39 -155 -39q-77 0 -131.5 42t-73.5 118q-143 -160 -352 -160q-223 0 -368.5 155.5t-145.5 383.5q0 150 65 273t183 194.5t266 71.5q166 0 305 -101v410q0 34 18.5 52.5t57.5 27.5l114 20q40 7 61 -14t21 -62v-1140q0 -39 27 -39q9 0 25 4.5
t24 5.5q46 12 64 -45zM627 211q120 0 200 81.5t80 219.5q0 141 -80 222t-200 81q-127 0 -206 -87t-79 -216q0 -128 79 -214.5t206 -86.5z" />
    <glyph glyph-name="dcaron.ss01" horiz-adv-x="1423" 
d="M1303 170l22 -72q22 -59 -27 -86q-71 -39 -155 -39q-77 0 -132 41t-77 117q-138 -158 -348 -158q-223 0 -368.5 155.5t-145.5 383.5q0 150 65 273t183 194.5t266 71.5q166 0 305 -101v410q0 34 18.5 52.5t57.5 27.5l114 20q40 7 61 -14t21 -62v-1140q0 -39 27 -39
q9 0 25 4.5t24 5.5q46 12 64 -45zM1477 1462q40 0 53 -19.5t2 -53.5l-98 -289q-13 -38 -30.5 -52t-45.5 -14h-43q-65 0 -55 70l40 291q6 41 25.5 54t56.5 13h95zM627 211q120 0 200 81.5t80 219.5q0 141 -80 222t-200 81q-127 0 -206 -87t-79 -216q0 -128 79 -214.5
t206 -86.5z" />
    <glyph glyph-name="dcroat.ss01" horiz-adv-x="1349" 
d="M1325 98q22 -59 -27 -86q-67 -39 -155 -39q-77 0 -132 41t-77 117q-138 -158 -348 -158q-223 0 -368.5 155.5t-145.5 383.5q0 150 65 273t183 194.5t266 71.5q166 0 305 -101v193h-242q-80 0 -80 63v11q0 63 80 63h242v80q0 34 18.5 52.5t57.5 27.5l114 20q40 7 61 -14
t21 -62v-104h84q78 0 78 -63v-11q0 -63 -78 -63h-84v-899q0 -39 27 -39q9 0 25 4.5t24 5.5q46 12 64 -45zM627 211q120 0 200 81.5t80 219.5q0 141 -80 222t-200 81q-127 0 -206 -87t-79 -216q0 -128 79 -214.5t206 -86.5z" />
    <glyph glyph-name="e.ss01" horiz-adv-x="1173" 
d="M1018 272l47 -49q47 -47 0 -94q-74 -75 -194 -115.5t-236 -40.5q-242 0 -402.5 148.5t-160.5 388.5q0 234 157 387.5t402 153.5q215 0 344 -94.5t129 -249.5q0 -145 -130.5 -234.5t-346.5 -89.5q-133 0 -271 23q29 -105 109.5 -165.5t191.5 -60.5q145 0 261 92
q29 23 50.5 24t49.5 -24zM629 850q-113 0 -195 -76t-92 -213q121 -26 285 -26q103 0 162 40t59 109q0 75 -59 120.5t-160 45.5z" />
    <glyph glyph-name="eacute.ss01" horiz-adv-x="1173" 
d="M408 1204l-27 47q-33 49 29 92l315 205q58 42 92 -10l49 -90q36 -58 -26 -90l-344 -162q-63 -29 -88 8zM1018 272l47 -49q47 -47 0 -94q-74 -75 -194 -115.5t-236 -40.5q-242 0 -402.5 148.5t-160.5 388.5q0 234 157 387.5t402 153.5q215 0 344 -94.5t129 -249.5
q0 -145 -130.5 -234.5t-346.5 -89.5q-133 0 -271 23q29 -105 109.5 -165.5t191.5 -60.5q145 0 261 92q29 23 50.5 24t49.5 -24zM629 850q-113 0 -195 -76t-92 -213q121 -26 285 -26q103 0 162 40t59 109q0 75 -59 120.5t-160 45.5z" />
    <glyph glyph-name="ecaron.ss01" horiz-adv-x="1173" 
d="M326 1356q-26 16 -38.5 29.5t-12 31.5t17.5 41l24 33q22 30 43.5 34.5t61.5 -16.5l213 -112l213 112q41 21 61 16.5t43 -34.5l25 -33q17 -23 17.5 -41t-12 -31.5t-38.5 -29.5l-264 -160q-26 -15 -45 -15t-45 15zM1018 272l47 -49q47 -47 0 -94q-74 -75 -194 -115.5
t-236 -40.5q-242 0 -402.5 148.5t-160.5 388.5q0 234 157 387.5t402 153.5q215 0 344 -94.5t129 -249.5q0 -145 -130.5 -234.5t-346.5 -89.5q-133 0 -271 23q29 -105 109.5 -165.5t191.5 -60.5q145 0 261 92q29 23 50.5 24t49.5 -24zM629 850q-113 0 -195 -76t-92 -213
q121 -26 285 -26q103 0 162 40t59 109q0 75 -59 120.5t-160 45.5z" />
    <glyph glyph-name="ecircumflex.ss01" horiz-adv-x="1173" 
d="M317 1217l-22 34q-41 58 31 103l264 157q26 15 45 15t45 -15l264 -157q72 -45 31 -103l-23 -34q-20 -31 -42 -35t-62 16l-213 113l-213 -113q-40 -20 -62.5 -16t-42.5 35zM1018 272l47 -49q47 -47 0 -94q-74 -75 -194 -115.5t-236 -40.5q-242 0 -402.5 148.5
t-160.5 388.5q0 234 157 387.5t402 153.5q215 0 344 -94.5t129 -249.5q0 -145 -130.5 -234.5t-346.5 -89.5q-133 0 -271 23q29 -105 109.5 -165.5t191.5 -60.5q145 0 261 92q29 23 50.5 24t49.5 -24zM629 850q-113 0 -195 -76t-92 -213q121 -26 285 -26q103 0 162 40t59 109
q0 75 -59 120.5t-160 45.5z" />
    <glyph glyph-name="edieresis.ss01" horiz-adv-x="1173" 
d="M416 1206q-70 0 -121 51t-51 121q0 72 50.5 122t121.5 50q72 0 122 -50t50 -122q0 -71 -50 -121.5t-122 -50.5zM860 1206q-72 0 -123 50.5t-51 121.5q0 72 51 122t123 50q71 0 121.5 -50t50.5 -122q0 -70 -51 -121t-121 -51zM1018 272l47 -49q47 -47 0 -94
q-74 -75 -194 -115.5t-236 -40.5q-242 0 -402.5 148.5t-160.5 388.5q0 234 157 387.5t402 153.5q215 0 344 -94.5t129 -249.5q0 -145 -130.5 -234.5t-346.5 -89.5q-133 0 -271 23q29 -105 109.5 -165.5t191.5 -60.5q145 0 261 92q29 23 50.5 24t49.5 -24zM629 850
q-113 0 -195 -76t-92 -213q121 -26 285 -26q103 0 162 40t59 109q0 75 -59 120.5t-160 45.5z" />
    <glyph glyph-name="edotaccent.ss01" horiz-adv-x="1173" 
d="M639 1206q-73 0 -124.5 51t-51.5 125q0 72 51.5 124.5t124.5 52.5q72 0 124 -52.5t52 -124.5q0 -73 -52 -124.5t-124 -51.5zM1018 272l47 -49q47 -47 0 -94q-74 -75 -194 -115.5t-236 -40.5q-242 0 -402.5 148.5t-160.5 388.5q0 234 157 387.5t402 153.5q215 0 344 -94.5
t129 -249.5q0 -145 -130.5 -234.5t-346.5 -89.5q-133 0 -271 23q29 -105 109.5 -165.5t191.5 -60.5q145 0 261 92q29 23 50.5 24t49.5 -24zM629 850q-113 0 -195 -76t-92 -213q121 -26 285 -26q103 0 162 40t59 109q0 75 -59 120.5t-160 45.5z" />
    <glyph glyph-name="egrave.ss01" horiz-adv-x="1173" 
d="M432 1358q-62 32 -26 90l49 90q34 52 92 10l315 -205q62 -43 29 -92l-27 -47q-25 -37 -88 -8zM1018 272l47 -49q47 -47 0 -94q-74 -75 -194 -115.5t-236 -40.5q-242 0 -402.5 148.5t-160.5 388.5q0 234 157 387.5t402 153.5q215 0 344 -94.5t129 -249.5
q0 -145 -130.5 -234.5t-346.5 -89.5q-133 0 -271 23q29 -105 109.5 -165.5t191.5 -60.5q145 0 261 92q29 23 50.5 24t49.5 -24zM629 850q-113 0 -195 -76t-92 -213q121 -26 285 -26q103 0 162 40t59 109q0 75 -59 120.5t-160 45.5z" />
    <glyph glyph-name="emacron.ss01" horiz-adv-x="1173" 
d="M393 1268q-78 0 -78 78v28q0 78 78 78h488q80 0 80 -78v-28q0 -78 -80 -78h-488zM1018 272l47 -49q47 -47 0 -94q-74 -75 -194 -115.5t-236 -40.5q-242 0 -402.5 148.5t-160.5 388.5q0 234 157 387.5t402 153.5q215 0 344 -94.5t129 -249.5q0 -145 -130.5 -234.5
t-346.5 -89.5q-133 0 -271 23q29 -105 109.5 -165.5t191.5 -60.5q145 0 261 92q29 23 50.5 24t49.5 -24zM629 850q-113 0 -195 -76t-92 -213q121 -26 285 -26q103 0 162 40t59 109q0 75 -59 120.5t-160 45.5z" />
    <glyph glyph-name="eogonek.ss01" horiz-adv-x="1173" 
d="M1018 272l47 -49q47 -47 0 -94q-74 -74 -201 -119q-78 -71 -78 -151q0 -69 45.5 -92.5t112.5 -2.5q26 11 50 5t38 -39l8 -17q26 -61 -45 -92q-65 -33 -137.5 -33.5t-130 26.5t-95.5 83t-38 129q0 76 55 147h-14q-242 0 -402.5 148.5t-160.5 388.5q0 234 157 387.5
t402 153.5q215 0 344 -94.5t129 -249.5q0 -145 -130.5 -234.5t-346.5 -89.5q-133 0 -271 23q29 -105 109.5 -165.5t191.5 -60.5q145 0 261 92q29 23 50.5 24t49.5 -24zM629 850q-113 0 -195 -76t-92 -213q121 -26 285 -26q103 0 162 40t59 109q0 75 -59 120.5t-160 45.5z
" />
    <glyph glyph-name="g.ss01" horiz-adv-x="1314" 
d="M1260 1016q49 -25 28 -88l-18 -86q-19 -59 -60 -45q-8 1 -28.5 7.5t-30.5 6.5q-27 0 -27 -33v-669q0 -101 -28 -184t-77.5 -141.5t-118.5 -98.5t-149.5 -59t-172.5 -19q-295 0 -474 192q-54 53 2 109l46 53q53 49 106 -2q128 -139 322 -139q126 0 209 65t83 189v119
q-133 -107 -309 -107q-211 0 -351 137.5t-140 343.5q0 207 140.5 345.5t352.5 138.5q200 0 338 -131q25 66 82.5 98.5t130.5 32.5q84 0 144 -35zM616 295q121 0 197 76.5t76 195.5q0 120 -77 197.5t-198 77.5q-120 0 -196 -77.5t-76 -197.5q0 -119 76 -195.5t198 -76.5z" />
    <glyph glyph-name="gbreve.ss01" horiz-adv-x="1314" 
d="M623 1182q-77 0 -141 27t-104.5 71t-64.5 95.5t-30 105.5q-2 31 14 50t51 19h49q36 0 52 -19t24 -50q34 -138 150 -138q65 0 99.5 37t49.5 101q13 69 76 69h47q37 0 53 -19t13 -50q-5 -54 -29 -105.5t-64.5 -95.5t-104.5 -71t-140 -27zM1260 1016q49 -25 28 -88l-18 -86
q-19 -59 -60 -45q-8 1 -28.5 7.5t-30.5 6.5q-27 0 -27 -33v-669q0 -101 -28 -184t-77.5 -141.5t-118.5 -98.5t-149.5 -59t-172.5 -19q-295 0 -474 192q-54 53 2 109l46 53q53 49 106 -2q128 -139 322 -139q126 0 209 65t83 189v119q-133 -107 -309 -107q-211 0 -351 137.5
t-140 343.5q0 207 140.5 345.5t352.5 138.5q200 0 338 -131q25 66 82.5 98.5t130.5 32.5q84 0 144 -35zM616 295q121 0 197 76.5t76 195.5q0 120 -77 197.5t-198 77.5q-120 0 -196 -77.5t-76 -197.5q0 -119 76 -195.5t198 -76.5z" />
    <glyph glyph-name="uni0123.ss01" horiz-adv-x="1314" 
d="M575 1180q-40 0 -53.5 19t-1.5 52l94 277q13 38 30.5 51.5t45.5 13.5h43q68 0 58 -69l-39 -277q-7 -42 -25 -54.5t-57 -12.5h-95zM1260 1016q49 -25 28 -88l-18 -86q-19 -59 -60 -45q-8 1 -28.5 7.5t-30.5 6.5q-27 0 -27 -33v-669q0 -101 -28 -184t-77.5 -141.5
t-118.5 -98.5t-149.5 -59t-172.5 -19q-295 0 -474 192q-54 53 2 109l46 53q53 49 106 -2q128 -139 322 -139q126 0 209 65t83 189v119q-133 -107 -309 -107q-211 0 -351 137.5t-140 343.5q0 207 140.5 345.5t352.5 138.5q200 0 338 -131q25 66 82.5 98.5t130.5 32.5
q84 0 144 -35zM616 295q121 0 197 76.5t76 195.5q0 120 -77 197.5t-198 77.5q-120 0 -196 -77.5t-76 -197.5q0 -119 76 -195.5t198 -76.5z" />
    <glyph glyph-name="gdotaccent.ss01" horiz-adv-x="1314" 
d="M621 1206q-74 0 -125.5 51.5t-51.5 124.5q0 72 52 124.5t125 52.5q72 0 124 -52.5t52 -124.5q0 -73 -52 -124.5t-124 -51.5zM1260 1016q49 -25 28 -88l-18 -86q-19 -59 -60 -45q-8 1 -28.5 7.5t-30.5 6.5q-27 0 -27 -33v-669q0 -101 -28 -184t-77.5 -141.5t-118.5 -98.5
t-149.5 -59t-172.5 -19q-295 0 -474 192q-54 53 2 109l46 53q53 49 106 -2q128 -139 322 -139q126 0 209 65t83 189v119q-133 -107 -309 -107q-211 0 -351 137.5t-140 343.5q0 207 140.5 345.5t352.5 138.5q200 0 338 -131q25 66 82.5 98.5t130.5 32.5q84 0 144 -35z
M616 295q121 0 197 76.5t76 195.5q0 120 -77 197.5t-198 77.5q-120 0 -196 -77.5t-76 -197.5q0 -119 76 -195.5t198 -76.5z" />
    <glyph glyph-name="i.ss01" horiz-adv-x="598" 
d="M270 1206q-74 0 -125 51t-51 125q0 72 51.5 124.5t124.5 52.5q72 0 124 -52.5t52 -124.5q0 -73 -52 -124.5t-124 -51.5zM387 -27q-122 0 -188 67.5t-66 197.5v718q0 37 20.5 57.5t57.5 20.5h119q37 0 56.5 -20.5t19.5 -57.5v-704q0 -39 28 -39q20 0 43 10q49 18 70 -45
l24 -80q11 -36 4.5 -53.5t-30.5 -30.5q-68 -41 -158 -41z" />
    <glyph glyph-name="dotlessi.ss01" horiz-adv-x="598" 
d="M387 -27q-122 0 -188 67.5t-66 197.5v718q0 37 20.5 57.5t57.5 20.5h119q37 0 56.5 -20.5t19.5 -57.5v-704q0 -39 28 -39q20 0 43 10q49 18 70 -45l24 -80q11 -36 4.5 -53.5t-30.5 -30.5q-68 -41 -158 -41z" />
    <glyph glyph-name="iacute.ss01" horiz-adv-x="598" 
d="M41 1204l-27 47q-33 49 29 92l315 205q59 43 93 -10l49 -90q36 -58 -27 -90l-344 -162q-63 -29 -88 8zM387 -27q-122 0 -188 67.5t-66 197.5v718q0 37 20.5 57.5t57.5 20.5h119q37 0 56.5 -20.5t19.5 -57.5v-704q0 -39 28 -39q20 0 43 10q49 18 70 -45l24 -80
q11 -36 4.5 -53.5t-30.5 -30.5q-68 -41 -158 -41z" />
    <glyph glyph-name="icircumflex.ss01" horiz-adv-x="598" 
d="M575 1354q72 -45 31 -103l-22 -34q-20 -31 -42.5 -35t-62.5 16l-213 113l-213 -113q-41 -20 -62.5 -16t-41.5 35l-25 34q-39 59 31 103l266 157q26 15 45 15t45 -15zM547 178l24 -80q11 -36 4.5 -53.5t-30.5 -30.5q-68 -41 -158 -41q-122 0 -188 67.5t-66 197.5v718
q0 37 20.5 57.5t57.5 20.5h119q37 0 56.5 -20.5t19.5 -57.5v-704q0 -39 28 -39q20 0 43 10q49 18 70 -45z" />
    <glyph glyph-name="idieresis.ss01" horiz-adv-x="598" 
d="M49 1206q-72 0 -123 50.5t-51 121.5q0 72 51 122t123 50t122 -50t50 -122q0 -71 -50 -121.5t-122 -50.5zM494 1206q-72 0 -123.5 50.5t-51.5 121.5q0 72 51.5 122t123.5 50q71 0 121.5 -50t50.5 -122q0 -70 -51 -121t-121 -51zM387 -27q-122 0 -188 67.5t-66 197.5v718
q0 37 20.5 57.5t57.5 20.5h119q37 0 56.5 -20.5t19.5 -57.5v-704q0 -39 28 -39q20 0 43 10q49 18 70 -45l24 -80q11 -36 4.5 -53.5t-30.5 -30.5q-68 -41 -158 -41z" />
    <glyph glyph-name="i.loclTRK.ss01" horiz-adv-x="598" 
d="M270 1206q-74 0 -125 51t-51 125q0 72 51.5 124.5t124.5 52.5q72 0 124 -52.5t52 -124.5q0 -73 -52 -124.5t-124 -51.5zM387 -27q-122 0 -188 67.5t-66 197.5v718q0 37 20.5 57.5t57.5 20.5h119q37 0 56.5 -20.5t19.5 -57.5v-704q0 -39 28 -39q20 0 43 10q49 18 70 -45
l24 -80q11 -36 4.5 -53.5t-30.5 -30.5q-68 -41 -158 -41z" />
    <glyph glyph-name="igrave.ss01" horiz-adv-x="598" 
d="M498 1204q-25 -37 -88 -8l-344 162q-63 32 -27 90l49 90q34 52 92 10l316 -205q61 -43 28 -92zM387 -27q-122 0 -188 67.5t-66 197.5v718q0 37 20.5 57.5t57.5 20.5h119q37 0 56.5 -20.5t19.5 -57.5v-704q0 -39 28 -39q20 0 43 10q49 18 70 -45l24 -80q11 -36 4.5 -53.5
t-30.5 -30.5q-68 -41 -158 -41z" />
    <glyph glyph-name="ij.ss01" horiz-adv-x="1134" 
d="M270 1206q-74 0 -125 51t-51 125q0 72 51.5 124.5t124.5 52.5q72 0 124 -52.5t52 -124.5q0 -73 -52 -124.5t-124 -51.5zM838 1206q-74 0 -125 51t-51 125q0 72 51.5 124.5t124.5 52.5q72 0 124 -52.5t52 -124.5q0 -73 -52 -124.5t-124 -51.5zM387 -27q-122 0 -188 67.5
t-66 197.5v718q0 37 20.5 57.5t57.5 20.5h119q37 0 56.5 -20.5t19.5 -57.5v-704q0 -39 28 -39q20 0 43 10q49 18 70 -45l24 -80q11 -36 4.5 -53.5t-30.5 -30.5q-68 -41 -158 -41zM719 -377q-33 -18 -63.5 -10t-47.5 41l-43 80q-36 69 35 110q80 44 103.5 97t23.5 186v702
h-78q-37 0 -57.5 20.5t-20.5 57.5v51q0 37 20.5 56.5t57.5 19.5h275q75 0 75 -76v-835q0 -215 -55 -315.5t-225 -184.5z" />
    <glyph glyph-name="imacron.ss01" horiz-adv-x="598" 
d="M27 1268q-80 0 -80 78v28q0 78 80 78h487q80 0 80 -78v-28q0 -78 -80 -78h-487zM387 -27q-122 0 -188 67.5t-66 197.5v718q0 37 20.5 57.5t57.5 20.5h119q37 0 56.5 -20.5t19.5 -57.5v-704q0 -39 28 -39q20 0 43 10q49 18 70 -45l24 -80q11 -36 4.5 -53.5t-30.5 -30.5
q-68 -41 -158 -41z" />
    <glyph glyph-name="iogonek.ss01" horiz-adv-x="598" 
d="M270 1206q-74 0 -125 51t-51 125q0 72 51.5 124.5t124.5 52.5q72 0 124 -52.5t52 -124.5q0 -73 -52 -124.5t-124 -51.5zM600 -326q26 -61 -45 -92q-65 -33 -137.5 -33.5t-130 26.5t-95.5 83t-38 129q0 107 112 207q-133 57 -133 244v718q0 37 20.5 57.5t57.5 20.5h119
q37 0 56.5 -20.5t19.5 -57.5v-704q0 -39 28 -39q20 0 43 10q49 18 70 -45l24 -80q11 -36 4.5 -53.5t-30.5 -30.5q-53 -32 -117 -39q-82 -75 -82 -155q0 -69 45.5 -92t112.5 -2q26 11 50 4.5t38 -39.5z" />
    <glyph glyph-name="itilde.ss01" horiz-adv-x="598" 
d="M-20 1182q-64 0 -64 53q0 117 52 184.5t134 67.5q42 0 87.5 -18.5t78.5 -40t72.5 -40t71.5 -18.5q28 0 39.5 16t11.5 48q0 53 63 53h33q32 0 47 -12t15 -41q0 -117 -50.5 -184.5t-130.5 -67.5q-55 0 -115 29t-111.5 58t-86.5 29q-51 0 -51 -63q0 -53 -64 -53h-32z
M387 -27q-122 0 -188 67.5t-66 197.5v718q0 37 20.5 57.5t57.5 20.5h119q37 0 56.5 -20.5t19.5 -57.5v-704q0 -39 28 -39q20 0 43 10q49 18 70 -45l24 -80q11 -36 4.5 -53.5t-30.5 -30.5q-68 -41 -158 -41z" />
    <glyph glyph-name="j.ss01" horiz-adv-x="610" 
d="M313 1206q-73 0 -124.5 51t-51.5 125q0 72 51.5 124.5t124.5 52.5q72 0 124 -52.5t52 -124.5q0 -73 -52 -124.5t-124 -51.5zM195 -377q-33 -18 -63.5 -10t-47.5 41l-43 80q-36 69 35 110q80 44 103.5 97t23.5 186v702h-78q-37 0 -57.5 20.5t-20.5 57.5v51q0 37 20.5 56.5
t57.5 19.5h274q76 0 76 -76v-835q0 -215 -55 -315.5t-225 -184.5z" />
    <glyph glyph-name="uni0237.ss01" horiz-adv-x="610" 
d="M195 -377q-33 -18 -63.5 -10t-47.5 41l-43 80q-36 69 35 110q80 44 103.5 97t23.5 186v702h-78q-37 0 -57.5 20.5t-20.5 57.5v51q0 37 20.5 56.5t57.5 19.5h274q76 0 76 -76v-835q0 -215 -55 -315.5t-225 -184.5z" />
    <glyph glyph-name="uni006A0301.ss01" horiz-adv-x="610" 
d="M57 1204l-26 47q-33 49 28 92l316 205q58 42 92 -10l49 -90q36 -58 -27 -90l-344 -162q-63 -29 -88 8zM195 -377q-33 -18 -63.5 -10t-47.5 41l-43 80q-36 69 35 110q80 44 103.5 97t23.5 186v702h-78q-37 0 -57.5 20.5t-20.5 57.5v51q0 37 20.5 56.5t57.5 19.5h274
q76 0 76 -76v-835q0 -215 -55 -315.5t-225 -184.5z" />
    <glyph glyph-name="k.ss01" horiz-adv-x="1150" 
d="M1135 92q21 -61 -27 -86q-65 -33 -137 -33q-150 0 -234 125l-231 326l-98 -109v-235q0 -37 -20 -58.5t-56 -21.5h-117q-37 0 -57.5 21.5t-20.5 58.5v1280q0 34 19 52.5t59 27.5l111 20q40 9 61 -12.5t21 -63.5v-821l348 395q36 43 58.5 59.5t57.5 16.5h152q38 0 52 -23
t-13 -57l-354 -389l221 -315q33 -44 63 -47q18 -4 49 6q29 10 46 0t26 -41z" />
    <glyph glyph-name="uni0137.ss01" horiz-adv-x="1150" 
d="M1135 92q21 -61 -27 -86q-65 -33 -137 -33q-150 0 -234 125l-231 326l-98 -109v-235q0 -37 -20 -58.5t-56 -21.5h-117q-37 0 -57.5 21.5t-20.5 58.5v1280q0 34 19 52.5t59 27.5l111 20q40 9 61 -12.5t21 -63.5v-821l348 395q36 43 58.5 59.5t57.5 16.5h152q38 0 52 -23
t-13 -57l-354 -389l221 -315q33 -44 63 -47q18 -4 49 6q29 10 46 0t26 -41zM651 -121q40 0 54 -20.5t2 -53.5l-93 -266q-13 -38 -30 -52.5t-45 -14.5h-45q-65 0 -56 71l37 269q6 40 25 53.5t57 13.5h94z" />
    <glyph glyph-name="l.ss01" horiz-adv-x="602" 
d="M389 -27q-121 0 -186.5 67.5t-65.5 195.5v1124q0 64 76 80l115 22q40 9 61 -13.5t21 -64.5v-1132q0 -20 5.5 -29.5t22.5 -9.5q18 0 41 10q49 17 72 -45l22 -80q12 -36 6 -53.5t-30 -30.5q-68 -41 -160 -41z" />
    <glyph glyph-name="lacute.ss01" horiz-adv-x="602" 
d="M20 1569l-20 30q-22 35 -14 57.5t43 43.5l315 198q47 27 69 22t42 -40l45 -76q23 -42 13.5 -62t-54.5 -40l-336 -152q-40 -17 -63 -13t-40 32zM389 -27q-121 0 -186.5 67.5t-65.5 195.5v1124q0 64 76 80l115 22q40 9 61 -13.5t21 -64.5v-1132q0 -20 5.5 -29.5t22.5 -9.5
q18 0 41 10q49 17 72 -45l22 -80q12 -36 6 -53.5t-30 -30.5q-68 -41 -160 -41z" />
    <glyph glyph-name="lcaron.ss01" horiz-adv-x="659" 
d="M389 -27q-121 0 -186.5 67.5t-65.5 195.5v1124q0 64 76 80l115 22q40 9 61 -13.5t21 -64.5v-1132q0 -20 5.5 -29.5t22.5 -9.5q18 0 41 10q49 17 72 -45l22 -80q12 -36 6 -53.5t-30 -30.5q-68 -41 -160 -41zM549 1036q-65 0 -55 70l41 291q6 41 25 54t56 13h95
q40 0 53 -19.5t2 -53.5l-98 -289q-13 -38 -30.5 -52t-45.5 -14h-43z" />
    <glyph glyph-name="uni013C.ss01" horiz-adv-x="602" 
d="M389 -27q-121 0 -186.5 67.5t-65.5 195.5v1124q0 64 76 80l115 22q40 9 61 -13.5t21 -64.5v-1132q0 -20 5.5 -29.5t22.5 -9.5q18 0 41 10q49 17 72 -45l22 -80q12 -36 6 -53.5t-30 -30.5q-68 -41 -160 -41zM256 -528q-64 0 -55 71l37 269q6 40 24.5 53.5t56.5 13.5h95
q40 0 53.5 -20.5t1.5 -53.5l-92 -266q-13 -38 -30.5 -52.5t-45.5 -14.5h-45z" />
    <glyph glyph-name="ldot.ss01" horiz-adv-x="772" 
d="M389 -27q-121 0 -186.5 67.5t-65.5 195.5v1124q0 64 76 80l115 22q40 9 61 -13.5t21 -64.5v-1132q0 -20 5.5 -29.5t22.5 -9.5q18 0 41 10q49 17 72 -45l22 -80q12 -36 6 -53.5t-30 -30.5q-68 -41 -160 -41zM643 586q-67 0 -114.5 48t-47.5 114q0 68 47.5 115.5
t114.5 47.5q68 0 116 -48t48 -115q0 -66 -48.5 -114t-115.5 -48z" />
    <glyph glyph-name="lslash.ss01" horiz-adv-x="759" 
d="M604 948q47 24 70.5 7t23.5 -66v-41q0 -39 -14.5 -57.5t-54.5 -40.5l-127 -68v-430q0 -39 28 -39q20 0 43 10q49 18 70 -45l25 -80q11 -36 4.5 -53.5t-31.5 -30.5q-68 -41 -158 -41q-122 0 -188 67.5t-66 195.5v301l-96 -52q-47 -24 -70.5 -7t-23.5 67v41q0 39 15 57.5
t55 40.5l120 64v612q0 65 78 80l113 22q40 9 61 -13.5t21 -64.5v-491z" />
    <glyph glyph-name="m.ss01" horiz-adv-x="1980" 
d="M1438 1051q190 0 305 -121t115 -318v-532q0 -37 -20.5 -58.5t-57.5 -21.5h-119q-36 0 -56 21.5t-20 58.5v512q0 104 -54.5 164.5t-150.5 60.5q-98 0 -158.5 -61.5t-60.5 -163.5v-512q0 -37 -20 -58.5t-56 -21.5h-118q-37 0 -57.5 21.5t-20.5 58.5v512q0 104 -54.5 164.5
t-150.5 60.5q-98 0 -158.5 -61.5t-60.5 -163.5v-512q0 -37 -20 -58.5t-56 -21.5h-119q-36 0 -56.5 21.5t-20.5 58.5v698q0 33 -27 33q-10 0 -29.5 -6.5t-27.5 -7.5q-44 -14 -60 45l-20 86q-21 63 30 88q57 35 142 35q83 0 143 -42t78 -128q116 170 330 170q220 0 333 -164
q59 76 149.5 120t203.5 44z" />
    <glyph glyph-name="n.ss01" horiz-adv-x="1308" 
d="M760 1051q191 0 307.5 -122t116.5 -317v-532q0 -37 -20.5 -58.5t-57.5 -21.5h-119q-36 0 -56 21.5t-20 58.5v512q0 101 -58 163t-159 62q-98 0 -159.5 -61.5t-61.5 -163.5v-512q0 -37 -20.5 -58.5t-57.5 -21.5h-119q-36 0 -55.5 21.5t-19.5 58.5v698q0 33 -27 33
q-10 0 -30.5 -6.5t-28.5 -7.5q-41 -14 -60 45l-18 86q-20 63 29 88q60 35 143 35q84 0 143.5 -42t75.5 -128q119 170 332 170z" />
    <glyph glyph-name="nacute.ss01" horiz-adv-x="1308" 
d="M469 1204l-27 47q-33 49 29 92l315 205q59 43 93 -10l49 -90q36 -58 -27 -90l-344 -162q-63 -29 -88 8zM760 1051q191 0 307.5 -122t116.5 -317v-532q0 -37 -20.5 -58.5t-57.5 -21.5h-119q-36 0 -56 21.5t-20 58.5v512q0 101 -58 163t-159 62q-98 0 -159.5 -61.5
t-61.5 -163.5v-512q0 -37 -20.5 -58.5t-57.5 -21.5h-119q-36 0 -55.5 21.5t-19.5 58.5v698q0 33 -27 33q-10 0 -30.5 -6.5t-28.5 -7.5q-41 -14 -60 45l-18 86q-20 63 29 88q60 35 143 35q84 0 143.5 -42t75.5 -128q119 170 332 170z" />
    <glyph glyph-name="ncaron.ss01" horiz-adv-x="1308" 
d="M387 1356q-26 16 -38.5 29.5t-12 31.5t17.5 41l25 33q23 30 43 34.5t61 -16.5l213 -112l213 112q40 21 61.5 16.5t43.5 -34.5l24 -33q24 -37 15.5 -58t-47.5 -44l-265 -160q-26 -15 -45 -15t-45 15zM760 1051q191 0 307.5 -122t116.5 -317v-532q0 -37 -20.5 -58.5
t-57.5 -21.5h-119q-36 0 -56 21.5t-20 58.5v512q0 101 -58 163t-159 62q-98 0 -159.5 -61.5t-61.5 -163.5v-512q0 -37 -20.5 -58.5t-57.5 -21.5h-119q-36 0 -55.5 21.5t-19.5 58.5v698q0 33 -27 33q-10 0 -30.5 -6.5t-28.5 -7.5q-41 -14 -60 45l-18 86q-20 63 29 88
q60 35 143 35q84 0 143.5 -42t75.5 -128q119 170 332 170z" />
    <glyph glyph-name="uni0146.ss01" horiz-adv-x="1308" 
d="M760 1051q191 0 307.5 -122t116.5 -317v-532q0 -37 -20.5 -58.5t-57.5 -21.5h-119q-36 0 -56 21.5t-20 58.5v512q0 101 -58 163t-159 62q-98 0 -159.5 -61.5t-61.5 -163.5v-512q0 -37 -20.5 -58.5t-57.5 -21.5h-119q-36 0 -55.5 21.5t-19.5 58.5v698q0 33 -27 33
q-10 0 -30.5 -6.5t-28.5 -7.5q-41 -14 -60 45l-18 86q-20 63 29 88q60 35 143 35q84 0 143.5 -42t75.5 -128q119 170 332 170zM733 -121q40 0 53.5 -20.5t1.5 -53.5l-92 -266q-13 -38 -30 -52.5t-45 -14.5h-46q-64 0 -55 71l37 269q6 40 25 53.5t57 13.5h94z" />
    <glyph glyph-name="eng.ss01" horiz-adv-x="1308" 
d="M760 1051q191 0 307.5 -122t116.5 -317v-440q0 -212 -58 -315.5t-227 -184.5q-68 -31 -104 31l-45 86q-36 67 30 105q81 45 106 98t25 186v414q0 101 -58 163t-159 62q-98 0 -159.5 -61.5t-61.5 -163.5v-514q0 -37 -20.5 -57.5t-57.5 -20.5h-119q-36 0 -55.5 20.5
t-19.5 57.5v700q0 33 -27 33q-10 0 -30.5 -6.5t-28.5 -7.5q-41 -14 -60 45l-18 86q-20 63 29 88q60 35 143 35q84 0 143.5 -42t75.5 -128q119 170 332 170z" />
    <glyph glyph-name="ntilde.ss01" horiz-adv-x="1308" 
d="M375 1182q-70 0 -70 53q0 117 57.5 184.5t147.5 67.5q60 0 124 -29.5t121 -58.5t99 -29q59 0 59 64q0 29 16.5 41t51.5 12h39q35 0 51 -12t16 -41q0 -117 -56 -184.5t-144 -67.5q-61 0 -127.5 29t-124 58t-96.5 29q-58 0 -58 -63q0 -53 -69 -53h-37zM760 1051
q191 0 307.5 -122t116.5 -317v-532q0 -37 -20.5 -58.5t-57.5 -21.5h-119q-36 0 -56 21.5t-20 58.5v512q0 101 -58 163t-159 62q-98 0 -159.5 -61.5t-61.5 -163.5v-512q0 -37 -20.5 -58.5t-57.5 -21.5h-119q-36 0 -55.5 21.5t-19.5 58.5v698q0 33 -27 33q-10 0 -30.5 -6.5
t-28.5 -7.5q-41 -14 -60 45l-18 86q-20 63 29 88q60 35 143 35q84 0 143.5 -42t75.5 -128q119 170 332 170z" />
    <glyph glyph-name="p.ss01" horiz-adv-x="1363" 
d="M778 1051q147 0 265 -71.5t183.5 -195t65.5 -272.5t-65 -272t-183.5 -195t-265.5 -72q-175 0 -305 105v-389q0 -37 -20.5 -57.5t-57.5 -20.5h-119q-36 0 -55.5 20.5t-19.5 57.5v1089q0 33 -27 33q-10 0 -30.5 -6.5t-28.5 -7.5q-41 -14 -60 45l-18 86q-20 63 29 88
q60 35 143 35q78 0 135.5 -36.5t79.5 -111.5q145 148 354 148zM737 211q127 0 206 86.5t79 214.5q0 129 -79 216t-206 87q-122 0 -202 -80.5t-80 -222.5q0 -140 80 -220.5t202 -80.5z" />
    <glyph glyph-name="q.ss01" horiz-adv-x="1359" 
d="M1298 1016q49 -25 29 -88l-18 -86q-19 -59 -60 -45q-8 1 -28.5 7.5t-30.5 6.5q-27 0 -27 -33v-1089q0 -37 -19.5 -57.5t-56.5 -20.5h-118q-37 0 -57.5 20.5t-20.5 57.5v387q-131 -103 -305 -103q-223 0 -368.5 155.5t-145.5 383.5q0 150 65.5 273t183.5 194.5t265 71.5
q209 0 354 -148q22 75 79.5 111.5t135.5 36.5q83 0 143 -35zM627 211q122 0 202 80.5t80 220.5q0 142 -80 222.5t-202 80.5q-127 0 -206 -87t-79 -216q0 -128 79 -214.5t206 -86.5z" />
    <glyph glyph-name="r.ss01" horiz-adv-x="886" 
d="M838 1032q28 -9 41 -27t2 -55l-27 -102q-18 -66 -80 -47q-46 16 -92 16q-98 0 -153.5 -69t-55.5 -181v-487q0 -37 -20.5 -58.5t-57.5 -21.5h-119q-36 0 -55.5 21.5t-19.5 58.5v698q0 33 -27 33q-10 0 -30.5 -6.5t-28.5 -7.5q-41 -14 -60 45l-18 86q-20 63 29 88
q60 35 143 35q78 0 136 -38t79 -114q99 152 285 152q64 0 129 -19z" />
    <glyph glyph-name="racute.ss01" horiz-adv-x="886" 
d="M211 1204l-27 47q-33 49 29 92l315 205q59 43 93 -10l49 -90q36 -58 -27 -90l-344 -162q-63 -29 -88 8zM838 1032q28 -9 41 -27t2 -55l-27 -102q-18 -66 -80 -47q-46 16 -92 16q-98 0 -153.5 -69t-55.5 -181v-487q0 -37 -20.5 -58.5t-57.5 -21.5h-119q-36 0 -55.5 21.5
t-19.5 58.5v698q0 33 -27 33q-10 0 -30.5 -6.5t-28.5 -7.5q-41 -14 -60 45l-18 86q-20 63 29 88q60 35 143 35q78 0 136 -38t79 -114q99 152 285 152q64 0 129 -19z" />
    <glyph glyph-name="rcaron.ss01" horiz-adv-x="886" 
d="M129 1356q-26 16 -38.5 29.5t-12 31.5t17.5 41l25 33q23 30 43 34.5t61 -16.5l213 -112l213 112q40 21 61.5 16.5t43.5 -34.5l24 -33q24 -37 15.5 -58t-47.5 -44l-265 -160q-26 -15 -45 -15t-45 15zM838 1032q28 -9 41 -27t2 -55l-27 -102q-18 -66 -80 -47q-46 16 -92 16
q-98 0 -153.5 -69t-55.5 -181v-487q0 -37 -20.5 -58.5t-57.5 -21.5h-119q-36 0 -55.5 21.5t-19.5 58.5v698q0 33 -27 33q-10 0 -30.5 -6.5t-28.5 -7.5q-41 -14 -60 45l-18 86q-20 63 29 88q60 35 143 35q78 0 136 -38t79 -114q99 152 285 152q64 0 129 -19z" />
    <glyph glyph-name="uni0157.ss01" horiz-adv-x="886" 
d="M838 1032q28 -9 41 -27t2 -55l-27 -102q-18 -66 -80 -47q-46 16 -92 16q-98 0 -153.5 -69t-55.5 -181v-487q0 -37 -20.5 -58.5t-57.5 -21.5h-119q-36 0 -55.5 21.5t-19.5 58.5v698q0 33 -27 33q-10 0 -30.5 -6.5t-28.5 -7.5q-41 -14 -60 45l-18 86q-20 63 29 88
q60 35 143 35q78 0 136 -38t79 -114q99 152 285 152q64 0 129 -19zM381 -121q40 0 53.5 -20.5t1.5 -53.5l-92 -266q-13 -38 -30.5 -52.5t-45.5 -14.5h-45q-64 0 -55 71l37 269q6 40 25 53.5t57 13.5h94z" />
    <glyph glyph-name="u.ss01" horiz-adv-x="1271" 
d="M1245 98q22 -60 -26 -86q-67 -39 -156 -39q-81 0 -136.5 43.5t-74.5 124.5q-99 -168 -311 -168q-187 0 -301.5 116.5t-114.5 305.5v561q0 37 19.5 57.5t56.5 20.5h118q37 0 57.5 -20.5t20.5 -57.5v-530q0 -98 55 -157.5t148 -59.5q97 0 154 61t57 162v524q0 37 19.5 57.5
t56.5 20.5h119q37 0 57 -20.5t20 -57.5v-712q0 -39 27 -39q9 0 25 4.5t24 5.5q46 12 64 -45z" />
    </font>
</defs>
</svg>
